B612Mono-BoldItalic.sfdir
StartChar: exclam
Encoding: 241 33 241
GlifName: exclam
Width: 1300
VWidth: 0
Flags: W
LayerCount: 2
Fore
SplineSet
785 1500 m 257
NamedP: "at01"
 599 444 l 257
NamedP: "av02"
 293 409 l 257
 485 1500 l 257
 785 1500 l 257
NamedP: "at01"
233 149 m 257
 239 183 239 183 256.5 212.5 c 128
 274 242 274 242 300.5 264.5 c 128
 327 287 327 287 359 300 c 128
 391 313 391 313 425 313 c 257
NamedP: "av01"
 459 313 459 313 486 300 c 128
 513 287 513 287 531.5 264.5 c 128
 550 242 550 242 557.5 212.5 c 128
 565 183 565 183 559 149 c 257
 553 116 553 116 535 85.5 c 128
 517 55 517 55 491.5 32.5 c 128
 466 10 466 10 434 -3.5 c 128
 402 -17 402 -17 368 -17 c 257
NamedP: "ab01"
 335 -17 335 -17 307 -3.5 c 128
 279 10 279 10 260 32.5 c 128
 241 55 241 55 234 85.5 c 128
 227 116 227 116 233 149 c 257
EndSplineSet
PickledDataWithLists: "(dp0
Vcom.fontlab.ttprogram
p1
(c_codecs
encode
p2
(Vdata
p3
Vlatin1
p4
tp5
Rp6
g2
(V<data>\\u000a        <ttProgram>\\u000a          <ttc align=\"round\" code=\"alignv\" point=\"av01\"/>\\u000a          <ttc align=\"round\" code=\"alignv\" point=\"av02\"/>\\u000a          <ttc code=\"alignt\" point=\"at01\" zone=\"t: 1\"/>\\u000a          <ttc code=\"alignb\" point=\"ab01\" zone=\"b: 0\"/>\\u000a        </ttProgram>\\u000a      </data>
p7
g4
tp8
Rp9
Ntp10
s."
EndChar
StartChar: quotedbl
Encoding: 396 34 396
GlifName: quotedbl
Width: 1300
VWidth: 0
Flags: W
LayerCount: 2
Fore
SplineSet
893 1500 m 257
NamedP: "sv01"
 870 1367 l 257
 867 1349 867 1349 862.5 1324.5 c 128
 858 1300 858 1300 852 1273 c 128
 846 1246 846 1246 839 1218.5 c 128
 832 1191 832 1191 825 1168 c 257
 775 1013 l 257
NamedP: "sv02"
 595 1013 l 257
 599 1168 l 257
 600 1191 600 1191 602.5 1218.5 c 128
 605 1246 605 1246 609 1273 c 128
 613 1300 613 1300 617 1324.5 c 128
 621 1349 621 1349 624 1367 c 257
 647 1500 l 257
 893 1500 l 257
NamedP: "sv01"
593 1500 m 257
 570 1367 l 257
 567 1349 567 1349 562.5 1324.5 c 128
 558 1300 558 1300 552 1273 c 128
 546 1246 546 1246 539 1218.5 c 128
 532 1191 532 1191 525 1168 c 257
 475 1013 l 257
 295 1013 l 257
NamedP: "av01"
 299 1168 l 257
 300 1191 300 1191 302.5 1218.5 c 128
 305 1246 305 1246 309 1273 c 128
 313 1300 313 1300 317 1324.5 c 128
 321 1349 321 1349 324 1367 c 257
 347 1500 l 257
NamedP: "at01"
 593 1500 l 257
EndSplineSet
PickledDataWithLists: "(dp0
Vcom.adobe.type.autohint
p1
(c_codecs
encode
p2
(Vdata
p3
Vlatin1
p4
tp5
Rp6
g2
(V<data>\\u000a        <hintSetList>\\u000a          <hintset pointTag=\"sv01\">\\u000a            <hstem pos=\"1067\" width=\"433\"/>\\u000a            <vstem pos=\"150\" width=\"175\"/>\\u000a            <vstem pos=\"451\" width=\"175\"/>\\u000a          </hintset>\\u000a        </hintSetList>\\u000a      </data>
p7
g4
tp8
Rp9
Ntp10
sVcom.fontlab.ttprogram
p11
(g2
(Vdata
p12
g4
tp13
Rp14
g2
(V<data>\\u000a        <ttProgram>\\u000a          <ttc align=\"round\" code=\"alignv\" point=\"av01\"/>\\u000a          <ttc code=\"alignt\" point=\"at01\" zone=\"t: 1\"/>\\u000a          <ttc code=\"singlev\" point1=\"at01\" point2=\"sv01\"/>\\u000a          <ttc code=\"singlev\" point1=\"av01\" point2=\"sv02\"/>\\u000a        </ttProgram>\\u000a      </data>
p15
g4
tp16
Rp17
Ntp18
s."
EndChar
StartChar: numbersign
Encoding: 337 35 337
GlifName: numbersign
Width: 1300
VWidth: 0
Flags: W
LayerCount: 2
Fore
SplineSet
1074 885 m 257,0,1
 1062 845 1062 845 1051 809 c 128,-1,2
 1040 773 1040 773 1029 738 c 128,-1,3
 1018 703 1018 703 1006.5 666 c 128,-1,4
 995 629 995 629 983 587 c 257,5,-1
 1216 587 l 257,6,-1
NamedP: "sv01"
 1152 373 l 257,7,-1
NamedP: "sv02"
 922 373 l 257,8,9
 909 329 909 329 894.5 281 c 128,-1,10
 880 233 880 233 865 184.5 c 128,-1,11
 850 136 850 136 836 89 c 128,-1,12
 822 42 822 42 809 0 c 257,13,-1
NamedP: "sv03"
 500 -17 l 257,14,-1
NamedP: "ab03"
 619 373 l 257,15,-1
 453 373 l 257,16,17
 440 329 440 329 425 281 c 128,-1,18
 410 233 410 233 395 184.5 c 128,-1,19
 380 136 380 136 365.5 89 c 128,-1,20
 351 42 351 42 338 0 c 257,21,-1
NamedP: "ab01"
 30 -17 l 257,22,-1
NamedP: "ab02"
 152 373 l 257,23,-1
 1 373 l 257,24,-1
 37 587 l 257,25,-1
NamedP: "av01"
 214 587 l 257,26,-1
 304 885 l 257,27,-1
 81 885 l 257,28,-1
 146 1100 l 257,29,-1
NamedP: "at04"
 368 1100 l 257,30,31
 379 1135 379 1135 388.5 1167.5 c 128,-1,32
 398 1200 398 1200 409 1235 c 257,33,-1
 455 1500 l 257,34,-1
NamedP: "at01"
 796 1520 l 257,35,-1
NamedP: "at02"
 669 1100 l 257,36,-1
 836 1100 l 257,37,38
 849 1144 849 1144 865 1196 c 128,-1,39
 881 1248 881 1248 897.5 1301.5 c 128,-1,40
 914 1355 914 1355 929.5 1406.5 c 128,-1,41
 945 1458 945 1458 957 1500 c 257,42,-1
NamedP: "sv04"
 1269 1520 l 257,43,-1
NamedP: "at03"
 1138 1100 l 257,44,-1
 1299 1100 l 257,45,-1
NamedP: "sv05"
 1261 885 l 257,46,-1
NamedP: "sv06"
 1074 885 l 257,0,1
771 885 m 257,47,-1
 607 885 l 257,48,49
 595 845 595 845 584 809 c 128,-1,50
 573 773 573 773 562.5 738 c 128,-1,51
 552 703 552 703 540.5 666 c 128,-1,52
 529 629 529 629 517 587 c 257,53,-1
 681 587 l 257,54,-1
 771 885 l 257,47,-1
EndSplineSet
PickledDataWithLists: "(dp0
Vcom.fontlab.ttprogram
p1
(c_codecs
encode
p2
(Vdata
p3
Vlatin1
p4
tp5
Rp6
g2
(V<data>\\u000a        <ttProgram>\\u000a          <ttc align=\"round\" code=\"alignv\" point=\"av01\"/>\\u000a          <ttc code=\"alignt\" point=\"at01\" zone=\"t: 1\"/>\\u000a          <ttc code=\"alignt\" point=\"at02\" zone=\"t: 1\"/>\\u000a          <ttc code=\"alignt\" point=\"at03\" zone=\"t: 1\"/>\\u000a          <ttc code=\"alignt\" point=\"at04\" zone=\"t: x\"/>\\u000a          <ttc code=\"alignb\" point=\"ab01\" zone=\"b: 0\"/>\\u000a          <ttc code=\"alignb\" point=\"ab02\" zone=\"b: 0\"/>\\u000a          <ttc code=\"alignb\" point=\"ab03\" zone=\"b: 0\"/>\\u000a          <ttc code=\"singlev\" point1=\"av01\" point2=\"sv01\"/>\\u000a          <ttc code=\"singlev\" point1=\"sv01\" point2=\"sv02\" stem=\"Y: 171\"/>\\u000a          <ttc code=\"singlev\" point1=\"ab01\" point2=\"sv03\"/>\\u000a          <ttc code=\"singlev\" point1=\"at01\" point2=\"sv04\"/>\\u000a          <ttc code=\"singlev\" point1=\"at04\" point2=\"sv05\"/>\\u000a          <ttc code=\"singlev\" point1=\"sv05\" point2=\"sv06\" stem=\"Y: 171\"/>\\u000a        </ttProgram>\\u000a      </data>
p7
g4
tp8
Rp9
Ntp10
s."
EndChar
StartChar: dollar
Encoding: 213 36 213
GlifName: dollar
Width: 1300
VWidth: 0
Flags: W
LayerCount: 2
Fore
SplineSet
412 -14 m 257
NamedP: "hr00"
 308 -6 308 -6 222 28 c 128
 136 62 136 62 53 121 c 257
 231 348 l 257
 250 333 250 333 275.5 316 c 128
 301 299 301 299 330.5 283 c 128
 360 267 360 267 392 253.5 c 128
 424 240 424 240 456 233 c 257
 540 712 l 257
 477 745 477 745 417 781 c 128
 357 817 357 817 312.5 862 c 128
 268 907 268 907 246.5 964.5 c 128
 225 1022 225 1022 238 1097 c 257
 253 1179 253 1179 294 1245.5 c 128
 335 1312 335 1312 394.5 1363 c 128
 454 1414 454 1414 527.5 1448.5 c 128
 601 1483 601 1483 679 1500 c 257
 711 1681 l 257
 1018 1719 l 257
NamedP: "av02"
 979 1499 l 257
 1119 1466 1119 1466 1246 1369 c 257
 1062 1178 l 257
 987 1226 987 1226 935 1252 c 257
 867 866 l 257
 927 835 927 835 982 797 c 128
 1037 759 1037 759 1077 709.5 c 128
 1117 660 1117 660 1135.5 596 c 128
 1154 532 1154 532 1139 448 c 257
 1124 363 1124 363 1084 293.5 c 128
 1044 224 1044 224 986.5 170 c 128
 929 116 929 116 857.5 77.5 c 128
 786 39 786 39 708 16 c 257
 671 -190 l 257
NamedP: "sv01"
 381 -190 l 257
NamedP: "av01"
 412 -14 l 257
NamedP: "hr00"
850 430 m 257
NamedP: "mh01"
 859 484 859 484 833 524 c 128
 807 564 807 564 762 596 c 257
 701 249 l 257
 727 258 727 258 751 272.5 c 128
 775 287 775 287 794.5 308.5 c 128
 814 330 814 330 828.5 360 c 128
 843 390 843 390 850 430 c 257
NamedP: "mh01"
549 1125 m 257
NamedP: "mh02"
 544 1096 544 1096 549 1073 c 128
 554 1050 554 1050 567.5 1031.5 c 128
 581 1013 581 1013 600.5 998.5 c 128
 620 984 620 984 644 972 c 257
 696 1268 l 257
 670 1260 670 1260 646 1248.5 c 128
 622 1237 622 1237 602 1219.5 c 128
 582 1202 582 1202 568 1178.5 c 128
 554 1155 554 1155 549 1125 c 257
NamedP: "mh02"
EndSplineSet
PickledDataWithLists: "(dp0
Vcom.adobe.type.autohint
p1
(c_codecs
encode
p2
(Vdata
p3
Vlatin1
p4
tp5
Rp6
g2
(V<data>\\u000a        <hintSetList>\\u000a          <hintset pointTag=\"hr00\">\\u000a            <hstem pos=\"-17\" width=\"165\"/>\\u000a            <hstem pos=\"1352\" width=\"165\"/>\\u000a            <hstem pos=\"1719\" width=\"-20\"/>\\u000a            <vstem pos=\"111\" width=\"204\"/>\\u000a            <vstem pos=\"805\" width=\"204\"/>\\u000a          </hintset>\\u000a        </hintSetList>\\u000a      </data>
p7
g4
tp8
Rp9
Ntp10
sVcom.fontlab.ttprogram
p11
(g2
(Vdata
p12
g4
tp13
Rp14
g2
(V<data>\\u000a        <ttProgram>\\u000a          <ttc code=\"mdeltah\" delta=\"2\" point=\"mh01\" ppm1=\"13\" ppm2=\"13\"/>\\u000a          <ttc code=\"mdeltah\" delta=\"-1\" point=\"mh02\" ppm1=\"13\" ppm2=\"13\"/>\\u000a          <ttc align=\"round\" code=\"alignv\" point=\"av01\"/>\\u000a          <ttc align=\"round\" code=\"alignv\" point=\"av02\"/>\\u000a          <ttc code=\"singlev\" point1=\"av01\" point2=\"sv01\"/>\\u000a        </ttProgram>\\u000a      </data>
p15
g4
tp16
Rp17
Ntp18
s."
EndChar
StartChar: percent
Encoding: 370 37 370
GlifName: percent
Width: 1300
VWidth: 0
Flags: W
LayerCount: 2
Fore
SplineSet
341 0 m 257
 37 0 l 257
 960 1473 l 257
 1264 1473 l 257
 341 0 l 257
331 746 m 257
NamedP: "av02"
 245 746 245 746 190 774.5 c 128
 135 803 135 803 106 853 c 128
 77 903 77 903 72 972 c 128
 67 1041 67 1041 81 1121 c 257
 95 1200 95 1200 123 1267.5 c 128
 151 1335 151 1335 197 1384 c 128
 243 1433 243 1433 308 1461 c 128
 373 1489 373 1489 462 1489 c 257
NamedP: "av01"
 547 1489 547 1489 602 1461 c 128
 657 1433 657 1433 686.5 1384 c 128
 716 1335 716 1335 721 1267.5 c 128
 726 1200 726 1200 712 1121 c 257
 698 1041 698 1041 670 972 c 128
 642 903 642 903 596 853 c 128
 550 803 550 803 484.5 774.5 c 128
 419 746 419 746 331 746 c 257
NamedP: "av02"
458 1165 m 257
 462 1190 462 1190 465 1213 c 128
 468 1236 468 1236 465 1253 c 128
 462 1270 462 1270 452.5 1280.5 c 128
 443 1291 443 1291 424 1291 c 257
 407 1291 407 1291 395.5 1282 c 128
 384 1273 384 1273 376.5 1257.5 c 128
 369 1242 369 1242 364.5 1221.5 c 128
 360 1201 360 1201 356 1178 c 257
 340 1084 l 257
 335 1058 335 1058 332.5 1035 c 128
 330 1012 330 1012 332.5 994.5 c 128
 335 977 335 977 344 966.5 c 128
 353 956 353 956 373 956 c 257
 389 956 389 956 400.5 965 c 128
 412 974 412 974 419.5 989.5 c 128
 427 1005 427 1005 432 1025 c 128
 437 1045 437 1045 441 1068 c 257
 458 1165 l 257
840 -16 m 257
NamedP: "ab01"
 754 -16 754 -16 699 12.5 c 128
 644 41 644 41 615 91 c 128
 586 141 586 141 581 210 c 128
 576 279 576 279 590 359 c 257
 604 438 604 438 632 505.5 c 128
 660 573 660 573 705.5 622.5 c 128
 751 672 751 672 816.5 699.5 c 128
 882 727 882 727 971 727 c 257
NamedP: "av03"
 1056 727 1056 727 1111 699.5 c 128
 1166 672 1166 672 1195 622.5 c 128
 1224 573 1224 573 1229.5 505.5 c 128
 1235 438 1235 438 1221 359 c 257
 1207 279 1207 279 1178.5 210 c 128
 1150 141 1150 141 1104.5 91 c 128
 1059 41 1059 41 993.5 12.5 c 128
 928 -16 928 -16 840 -16 c 257
NamedP: "ab01"
967 404 m 257
 971 429 971 429 974 451.5 c 128
 977 474 977 474 974 491.5 c 128
 971 509 971 509 961.5 519 c 128
 952 529 952 529 933 529 c 257
 916 529 916 529 905 520 c 128
 894 511 894 511 886.5 495.5 c 128
 879 480 879 480 874 459.5 c 128
 869 439 869 439 865 417 c 257
 849 323 l 257
 844 297 844 297 841.5 273.5 c 128
 839 250 839 250 842 232.5 c 128
 845 215 845 215 854.5 204.5 c 128
 864 194 864 194 884 194 c 257
 900 194 900 194 910.5 203 c 128
 921 212 921 212 928.5 227.5 c 128
 936 243 936 243 941 263 c 128
 946 283 946 283 950 306 c 257
 967 404 l 257
EndSplineSet
PickledDataWithLists: "(dp0
Vcom.fontlab.ttprogram
p1
(c_codecs
encode
p2
(Vdata
p3
Vlatin1
p4
tp5
Rp6
g2
(V<data>\\u000a        <ttProgram>\\u000a          <ttc align=\"round\" code=\"alignv\" point=\"av01\"/>\\u000a          <ttc align=\"round\" code=\"alignv\" point=\"av02\"/>\\u000a          <ttc align=\"round\" code=\"alignv\" point=\"av03\"/>\\u000a          <ttc code=\"alignb\" point=\"ab01\" zone=\"b: 0\"/>\\u000a        </ttProgram>\\u000a      </data>
p7
g4
tp8
Rp9
Ntp10
s."
EndChar
StartChar: ampersand
Encoding: 99 38 99
GlifName: ampersand
Width: 1300
VWidth: 0
Flags: W
LayerCount: 2
Fore
SplineSet
1258 740 m 257
NamedP: "av01"
 1241 642 1241 642 1210.5 559.5 c 128
 1180 477 1180 477 1141 409.5 c 128
 1102 342 1102 342 1056.5 289.5 c 128
 1011 237 1011 237 963 200 c 257
 1040 200 l 257
 1166 -17 l 257
NamedP: "sv01"
 787 -17 l 257
NamedP: "ab02"
 731 100 l 257
 680 11 l 257
 656 5 656 5 631.5 0 c 128
 607 -5 607 -5 580.5 -8.5 c 128
 554 -12 554 -12 524.5 -14.5 c 128
 495 -17 495 -17 459 -17 c 257
NamedP: "ab01"
 346 -17 346 -17 262 21.5 c 128
 178 60 178 60 125.5 124.5 c 128
 73 189 73 189 53 274.5 c 128
 33 360 33 360 50 454 c 257
 63 532 63 532 96.5 597 c 128
 130 662 130 662 174 714 c 128
 218 766 218 766 268 804 c 128
 318 842 318 842 366 867 c 257
 354 896 354 896 342.5 930 c 128
 331 964 331 964 324 999.5 c 128
 317 1035 317 1035 314.5 1069.5 c 128
 312 1104 312 1104 318 1134 c 257
 331 1208 331 1208 365 1274.5 c 128
 399 1341 399 1341 457 1391 c 128
 515 1441 515 1441 597.5 1470.5 c 128
 680 1500 680 1500 790 1500 c 257
NamedP: "at01"
 867 1500 867 1500 922.5 1482.5 c 128
 978 1465 978 1465 1018.5 1435.5 c 128
 1059 1406 1059 1406 1089 1367.5 c 128
 1119 1329 1119 1329 1146 1286 c 257
 972 1100 l 257
 951 1137 951 1137 930.5 1165.5 c 128
 910 1194 910 1194 886.5 1212.5 c 128
 863 1231 863 1231 834.5 1240.5 c 128
 806 1250 806 1250 768 1250 c 257
 732 1250 732 1250 708 1238.5 c 128
 684 1227 684 1227 668.5 1210 c 128
 653 1193 653 1193 645 1172.5 c 128
 637 1152 637 1152 634 1133 c 257
 629 1107 629 1107 632 1084 c 257
 634 1065 634 1065 642.5 1037.5 c 128
 651 1010 651 1010 669.5 965.5 c 128
 688 921 688 921 717.5 854 c 128
 747 787 747 787 791 688 c 257
 804 657 804 657 813 637.5 c 128
 822 618 822 618 831.5 598 c 128
 841 578 841 578 852.5 551.5 c 128
 864 525 864 525 884 480 c 257
 903 500 903 500 914.5 527 c 128
 926 554 926 554 937.5 621 c 128
 949 688 949 688 955 720 c 257
 1258 740 l 257
NamedP: "av01"
450 694 m 257
 433 596 l 257
 390 542 390 542 375 463 c 257
 365 405 365 405 374.5 362 c 128
 384 319 384 319 406.5 290.5 c 128
 429 262 429 262 461 247.5 c 128
 493 233 493 233 526 233 c 257
 568 233 568 233 596.5 243.5 c 128
 625 254 625 254 647 269 c 257
 450 694 l 257
EndSplineSet
PickledDataWithLists: "(dp0
Vcom.fontlab.ttprogram
p1
(c_codecs
encode
p2
(Vdata
p3
Vlatin1
p4
tp5
Rp6
g2
(V<data>\\u000a        <ttProgram>\\u000a          <ttc align=\"round\" code=\"alignv\" point=\"av01\"/>\\u000a          <ttc code=\"alignt\" point=\"at01\" zone=\"t: 1\"/>\\u000a          <ttc code=\"alignb\" point=\"ab01\" zone=\"b: 0\"/>\\u000a          <ttc code=\"alignb\" point=\"ab02\" zone=\"b: 0\"/>\\u000a          <ttc code=\"singlev\" point1=\"ab02\" point2=\"sv01\"/>\\u000a        </ttProgram>\\u000a      </data>
p7
g4
tp8
Rp9
Ntp10
s."
EndChar
StartChar: parenleft
Encoding: 365 40 365
GlifName: parenleft
Width: 1300
VWidth: 0
Flags: W
LayerCount: 2
Fore
SplineSet
449 1158 m 257,0,1
NamedP: "hr00"
 465 1251 465 1251 489.5 1331.5 c 128,-1,2
 514 1412 514 1412 559.5 1472 c 128,-1,3
 605 1532 605 1532 679 1566 c 128,-1,4
 753 1600 753 1600 867 1600 c 257,5,6
NamedP: "av01"
 892 1600 892 1600 919.5 1596.5 c 128,-1,7
 947 1593 947 1593 974 1586 c 128,-1,8
 1001 1579 1001 1579 1026 1568.5 c 128,-1,9
 1051 1558 1051 1558 1069 1545 c 257,10,-1
 959 1431 l 257,11,12
 941 1431 941 1431 915.5 1426 c 128,-1,13
 890 1421 890 1421 864.5 1400.5 c 128,-1,14
 839 1380 839 1380 816.5 1339 c 128,-1,15
 794 1298 794 1298 782 1227 c 257,16,-1
 557 -46 l 257,17,18
NamedP: "ah01"
 544 -119 544 -119 552.5 -159.5 c 128,-1,19
 561 -200 561 -200 579 -219 c 128,-1,20
 597 -238 597 -238 618.5 -241.5 c 128,-1,21
 640 -245 640 -245 655 -245 c 257,22,-1
 732 -365 l 257,23,24
 709 -378 709 -378 681 -388.5 c 128,-1,25
 653 -399 653 -399 623 -406 c 128,-1,26
 593 -413 593 -413 564 -416.5 c 128,-1,27
 535 -420 535 -420 510 -420 c 257,28,29
NamedP: "av02"
 396 -420 396 -420 335 -383.5 c 128,-1,30
 274 -347 274 -347 250 -284 c 128,-1,31
 226 -221 226 -221 230 -138 c 128,-1,32
 234 -55 234 -55 251 38 c 257,33,-1
 449 1158 l 257,0,1
NamedP: "hr00"
EndSplineSet
PickledDataWithLists: "(dp0
Vcom.adobe.type.autohint
p1
(c_codecs
encode
p2
(Vdata
p3
Vlatin1
p4
tp5
Rp6
g2
(V<data>\\u000a        <hintSetList>\\u000a          <hintset pointTag=\"hr00\">\\u000a            <hstem pos=\"-420\" width=\"146\"/>\\u000a            <hstem pos=\"1374\" width=\"146\"/>\\u000a            <vstem pos=\"200\" width=\"200\"/>\\u000a          </hintset>\\u000a        </hintSetList>\\u000a      </data>
p7
g4
tp8
Rp9
Ntp10
sVcom.fontlab.ttprogram
p11
(g2
(Vdata
p12
g4
tp13
Rp14
g2
(V<data>\\u000a        <ttProgram>\\u000a          <ttc align=\"round\" code=\"alignh\" point=\"ah01\"/>\\u000a          <ttc align=\"round\" code=\"alignv\" point=\"av01\"/>\\u000a          <ttc align=\"round\" code=\"alignv\" point=\"av02\"/>\\u000a        </ttProgram>\\u000a      </data>
p15
g4
tp16
Rp17
Ntp18
s."
EndChar
StartChar: parenright
Encoding: 366 41 366
GlifName: parenright
Width: 1300
VWidth: 0
Flags: W
LayerCount: 2
Fore
SplineSet
824 38 m 257
NamedP: "hr00"
 807 -55 807 -55 782.5 -138 c 128
 758 -221 758 -221 711.5 -284 c 128
 665 -347 665 -347 591 -383.5 c 128
 517 -420 517 -420 403 -420 c 257
NamedP: "av02"
 378 -420 378 -420 350.5 -416.5 c 128
 323 -413 323 -413 296 -406 c 128
 269 -399 269 -399 244 -388.5 c 128
 219 -378 219 -378 201 -365 c 257
 320 -245 l 257
 335 -245 335 -245 358 -241.5 c 128
 381 -238 381 -238 406 -219 c 128
 431 -200 431 -200 453 -159.5 c 128
 475 -119 475 -119 488 -46 c 257
NamedP: "ah01"
 713 1227 l 257
 725 1298 725 1298 717 1339 c 128
 709 1380 709 1380 691 1400.5 c 128
 673 1421 673 1421 649.5 1426 c 128
 626 1431 626 1431 608 1431 c 257
 538 1545 l 257
 561 1558 561 1558 589 1568.5 c 128
 617 1579 617 1579 647 1586 c 128
 677 1593 677 1593 706 1596.5 c 128
 735 1600 735 1600 760 1600 c 257
NamedP: "av01"
 874 1600 874 1600 935.5 1566 c 128
 997 1532 997 1532 1021.5 1472 c 128
 1046 1412 1046 1412 1042 1331.5 c 128
 1038 1251 1038 1251 1022 1158 c 257
 824 38 l 257
NamedP: "hr00"
EndSplineSet
PickledDataWithLists: "(dp0
Vcom.adobe.type.autohint
p1
(c_codecs
encode
p2
(Vdata
p3
Vlatin1
p4
tp5
Rp6
g2
(V<data>\\u000a        <hintSetList>\\u000a          <hintset pointTag=\"hr00\">\\u000a            <hstem pos=\"-420\" width=\"146\"/>\\u000a            <hstem pos=\"1374\" width=\"146\"/>\\u000a            <vstem pos=\"499\" width=\"200\"/>\\u000a          </hintset>\\u000a        </hintSetList>\\u000a      </data>
p7
g4
tp8
Rp9
Ntp10
sVcom.fontlab.ttprogram
p11
(g2
(Vdata
p12
g4
tp13
Rp14
g2
(V<data>\\u000a        <ttProgram>\\u000a          <ttc align=\"round\" code=\"alignh\" point=\"ah01\"/>\\u000a          <ttc align=\"round\" code=\"alignv\" point=\"av01\"/>\\u000a          <ttc align=\"round\" code=\"alignv\" point=\"av02\"/>\\u000a        </ttProgram>\\u000a      </data>
p15
g4
tp16
Rp17
Ntp18
s."
EndChar
StartChar: asterisk
Encoding: 125 42 125
GlifName: asterisk
Width: 1300
VWidth: 0
Flags: W
LayerCount: 2
Fore
SplineSet
884 926 m 257
 954 805 l 257
 760 654 l 257
 673 800 l 257
 652 990 l 257
 568 800 l 257
 442 656 l 257
 265 781 l 257
 417 950 l 257
 594 1041 l 257
 384 1041 l 257
 241 1090 l 257
 324 1309 l 257
 500 1259 l 257
 635 1120 l 257
 602 1315 l 257
NamedP: "mh01"
 625 1446 l 257
 858 1470 l 257
 830 1309 l 257
 719 1117 l 257
 889 1247 l 257
 1041 1294 l 257
 1098 1083 l 257
 952 1037 l 257
 729 1037 l 257
 884 926 l 257
EndSplineSet
PickledDataWithLists: "(dp0
Vcom.fontlab.ttprogram
p1
(c_codecs
encode
p2
(Vdata
p3
Vlatin1
p4
tp5
Rp6
g2
(V<data>\\u000a        <ttProgram>\\u000a          <ttc code=\"mdeltah\" delta=\"2\" point=\"mh01\" ppm1=\"14\" ppm2=\"14\"/>\\u000a        </ttProgram>\\u000a      </data>
p7
g4
tp8
Rp9
Ntp10
s."
EndChar
StartChar: plus
Encoding: 384 43 384
GlifName: plus
Width: 1300
VWidth: 0
Flags: W
LayerCount: 2
Fore
SplineSet
205 700 m 257
NamedP: "av01"
 565 700 l 257
 638 1117 l 257
NamedP: "at01"
 858 1117 l 257
NamedP: "sv01"
 785 700 l 257
 1145 700 l 257
NamedP: "sv02"
 1109 500 l 257
NamedP: "sv03"
 749 500 l 257
 679 100 l 257
NamedP: "sv04"
 459 100 l 257
NamedP: "av02"
 529 500 l 257
 169 500 l 257
 205 700 l 257
NamedP: "av01"
EndSplineSet
PickledDataWithLists: "(dp0
Vcom.adobe.type.autohint
p1
(c_codecs
encode
p2
(Vdata
p3
Vlatin1
p4
tp5
Rp6
g2
(V<data>\\u000a        <hintSetList>\\u000a          <hintset pointTag=\"av01\">\\u000a            <hstem pos=\"545\" width=\"155\"/>\\u000a            <vstem pos=\"473\" width=\"155\"/>\\u000a          </hintset>\\u000a        </hintSetList>\\u000a      </data>
p7
g4
tp8
Rp9
Ntp10
sVcom.fontlab.ttprogram
p11
(g2
(Vdata
p12
g4
tp13
Rp14
g2
(V<data>\\u000a        <ttProgram>\\u000a          <ttc align=\"round\" code=\"alignv\" point=\"av01\"/>\\u000a          <ttc align=\"round\" code=\"alignv\" point=\"av02\"/>\\u000a          <ttc code=\"alignt\" point=\"at01\" zone=\"t: x\"/>\\u000a          <ttc code=\"singlev\" point1=\"at01\" point2=\"sv01\"/>\\u000a          <ttc code=\"singlev\" point1=\"av01\" point2=\"sv02\"/>\\u000a          <ttc code=\"singlev\" point1=\"sv02\" point2=\"sv03\" stem=\"Y: 171\"/>\\u000a          <ttc code=\"singlev\" point1=\"av02\" point2=\"sv04\"/>\\u000a        </ttProgram>\\u000a      </data>
p15
g4
tp16
Rp17
Ntp18
s."
EndChar
StartChar: comma
Encoding: 191 44 191
GlifName: comma
Width: 1300
VWidth: 0
Flags: W
LayerCount: 2
Fore
SplineSet
152 156 m 257,0,1
NamedP: "hr00"
 158 191 158 191 177.5 222.5 c 128,-1,2
 197 254 197 254 226 277 c 128,-1,3
 255 300 255 300 290 314.5 c 128,-1,4
 325 329 325 329 361 329 c 257,5,6
NamedP: "av01"
 396 329 396 329 425 316.5 c 128,-1,7
 454 304 454 304 475 280 c 128,-1,8
 496 256 496 256 504.5 219 c 128,-1,9
 513 182 513 182 505 136 c 257,10,11
 493 72 493 72 474.5 12.5 c 128,-1,12
 456 -47 456 -47 421 -108 c 128,-1,13
 386 -169 386 -169 329 -232.5 c 128,-1,14
 272 -296 272 -296 185 -365 c 257,15,-1
 128 -337 l 257,16,17
 165 -284 165 -284 196 -228 c 257,18,19
 223 -181 223 -181 247.5 -125.5 c 128,-1,20
 272 -70 272 -70 282 -17 c 257,21,22
 252 -16 252 -16 225 -4 c 128,-1,23
 198 8 198 8 179 29 c 128,-1,24
 160 50 160 50 152.5 82.5 c 128,-1,25
 145 115 145 115 152 156 c 257,0,1
NamedP: "hr00"
EndSplineSet
PickledDataWithLists: "(dp0
Vcom.adobe.type.autohint
p1
(c_codecs
encode
p2
(Vdata
p3
Vlatin1
p4
tp5
Rp6
g2
(V<data>\\u000a        <hintSetList>\\u000a          <hintset pointTag=\"hr00\">\\u000a            <hstem pos=\"-223\" width=\"-21\"/>\\u000a            <hstem pos=\"285\" width=\"-20\"/>\\u000a            <vstem pos=\"109\" width=\"277\"/>\\u000a          </hintset>\\u000a        </hintSetList>\\u000a      </data>
p7
g4
tp8
Rp9
Ntp10
sVcom.fontlab.ttprogram
p11
(g2
(Vdata
p12
g4
tp13
Rp14
g2
(V<data>\\u000a        <ttProgram>\\u000a          <ttc align=\"round\" code=\"alignv\" point=\"av01\"/>\\u000a        </ttProgram>\\u000a      </data>
p15
g4
tp16
Rp17
Ntp18
s."
EndChar
StartChar: hyphen
Encoding: 283 45 283
GlifName: hyphen
Width: 1300
VWidth: 0
Flags: W
LayerCount: 2
Fore
SplineSet
339 624 m 257,0,-1
NamedP: "hr00"
 966 624 l 257,1,-1
 927 400 l 257,2,-1
NamedP: "sv01"
 300 400 l 257,3,-1
NamedP: "av01"
 339 624 l 257,0,-1
NamedP: "hr00"
EndSplineSet
PickledDataWithLists: "(dp0
Vcom.adobe.type.autohint
p1
(c_codecs
encode
p2
(Vdata
p3
Vlatin1
p4
tp5
Rp6
g2
(V<data>\\u000a        <hintSetList>\\u000a          <hintset pointTag=\"hr00\">\\u000a            <hstem pos=\"500\" width=\"155\"/>\\u000a          </hintset>\\u000a        </hintSetList>\\u000a      </data>
p7
g4
tp8
Rp9
Ntp10
sVcom.fontlab.ttprogram
p11
(g2
(Vdata
p12
g4
tp13
Rp14
g2
(V<data>\\u000a        <ttProgram>\\u000a          <ttc align=\"round\" code=\"alignv\" point=\"av01\"/>\\u000a          <ttc code=\"singlev\" point1=\"av01\" point2=\"sv01\"/>\\u000a        </ttProgram>\\u000a      </data>
p15
g4
tp16
Rp17
Ntp18
s."
EndChar
StartChar: period
Encoding: 371 46 371
GlifName: period
Width: 1300
VWidth: 0
Flags: W
LayerCount: 2
Fore
SplineSet
103 183 m 257
NamedP: "hr00"
 110 224 110 224 132 260 c 128
 154 296 154 296 185.5 323 c 128
 217 350 217 350 255.5 365.5 c 128
 294 381 294 381 335 381 c 257
 376 381 376 381 409 365.5 c 128
 442 350 442 350 464.5 323 c 128
 487 296 487 296 496 260 c 128
 505 224 505 224 498 183 c 257
 490 142 490 142 468.5 105.5 c 128
 447 69 447 69 415.5 42 c 128
 384 15 384 15 345.5 -1 c 128
 307 -17 307 -17 266 -17 c 257
 225 -17 225 -17 191.5 -1 c 128
 158 15 158 15 136 42 c 128
 114 69 114 69 104.5 105.5 c 128
 95 142 95 142 103 183 c 257
NamedP: "hr00"
EndSplineSet
PickledDataWithLists: "(dp0
Vcom.adobe.type.autohint
p1
(c_codecs
encode
p2
(Vdata
p3
Vlatin1
p4
tp5
Rp6
g2
(V<data>\\u000a        <hintSetList>\\u000a          <hintset pointTag=\"hr00\">\\u000a            <hstem pos=\"-17\" width=\"244\"/>\\u000a            <vstem pos=\"78\" width=\"242\"/>\\u000a          </hintset>\\u000a        </hintSetList>\\u000a      </data>
p7
g4
tp8
Rp9
Ntp10
s."
EndChar
StartChar: slash
Encoding: 448 47 448
GlifName: slash
Width: 1300
VWidth: 0
Flags: W
LayerCount: 2
Fore
SplineSet
331 -100 m 257
NamedP: "sv01"
 0 -100 l 257
NamedP: "av01"
 977 1600 l 257
NamedP: "av02"
 1300 1600 l 257
NamedP: "sv02"
 331 -100 l 257
NamedP: "sv01"
EndSplineSet
PickledDataWithLists: "(dp0
Vcom.adobe.type.autohint
p1
(c_codecs
encode
p2
(Vdata
p3
Vlatin1
p4
tp5
Rp6
g2
(V<data>\\u000a        <hintSetList>\\u000a          <hintset pointTag=\"sv01\">\\u000a            <hstem pos=\"-79\" width=\"-21\"/>\\u000a            <hstem pos=\"1600\" width=\"-20\"/>\\u000a          </hintset>\\u000a        </hintSetList>\\u000a      </data>
p7
g4
tp8
Rp9
Ntp10
sVcom.fontlab.ttprogram
p11
(g2
(Vdata
p12
g4
tp13
Rp14
g2
(V<data>\\u000a        <ttProgram>\\u000a          <ttc align=\"round\" code=\"alignv\" point=\"av01\"/>\\u000a          <ttc align=\"round\" code=\"alignv\" point=\"av02\"/>\\u000a          <ttc code=\"singlev\" point1=\"av01\" point2=\"sv01\"/>\\u000a          <ttc code=\"singlev\" point1=\"av02\" point2=\"sv02\"/>\\u000a        </ttProgram>\\u000a      </data>
p15
g4
tp16
Rp17
Ntp18
s."
EndChar
StartChar: zero
Encoding: 585 48 585
GlifName: zero
Width: 1300
VWidth: 0
Flags: W
LayerCount: 2
Fore
SplineSet
512 -16 m 257
NamedP: "ab01"
 419 -16 419 -16 347 16.5 c 128
 275 49 275 49 222.5 105 c 128
 170 161 170 161 137 236 c 128
 104 311 104 311 87.5 396 c 128
 71 481 71 481 71.5 572 c 128
 72 663 72 663 88 750 c 257
NamedP: "ah01"
 104 840 104 840 133 931.5 c 128
 162 1023 162 1023 205.5 1108.5 c 128
 249 1194 249 1194 306.5 1268 c 128
 364 1342 364 1342 436 1397.5 c 128
 508 1453 508 1453 594.5 1484.5 c 128
 681 1516 681 1516 783 1516 c 257
NamedP: "at01"
 876 1516 876 1516 948 1483.5 c 128
 1020 1451 1020 1451 1072.5 1395 c 128
 1125 1339 1125 1339 1158.5 1264 c 128
 1192 1189 1192 1189 1208 1104 c 128
 1224 1019 1224 1019 1223.5 928 c 128
 1223 837 1223 837 1208 750 c 257
NamedP: "ah04"
 1192 660 1192 660 1162.5 568.5 c 128
 1133 477 1133 477 1089.5 391.5 c 128
 1046 306 1046 306 988.5 232 c 128
 931 158 931 158 859 102.5 c 128
 787 47 787 47 700 15.5 c 128
 613 -16 613 -16 512 -16 c 257
NamedP: "ab01"
422 791 m 257
NamedP: "ah02"
 413 740 413 740 406.5 678 c 128
 400 616 400 616 399.5 553.5 c 128
 399 491 399 491 406.5 432 c 128
 414 373 414 373 432.5 327 c 128
 451 281 451 281 482 253.5 c 128
 513 226 513 226 561 226 c 257
 603 226 603 226 640 246.5 c 128
 677 267 677 267 708 302.5 c 128
 739 338 739 338 765 385.5 c 128
 791 433 791 433 811.5 487 c 128
 832 541 832 541 846.5 597.5 c 128
 861 654 861 654 871 709 c 257
NamedP: "ah03"
 880 760 880 760 886.5 822 c 128
 893 884 893 884 893.5 946.5 c 128
 894 1009 894 1009 886.5 1068 c 128
 879 1127 879 1127 860.5 1172.5 c 128
 842 1218 842 1218 810.5 1245.5 c 128
 779 1273 779 1273 731 1273 c 257
 689 1273 689 1273 652 1252.5 c 128
 615 1232 615 1232 584 1196.5 c 128
 553 1161 553 1161 527.5 1113.5 c 128
 502 1066 502 1066 481.5 1012.5 c 128
 461 959 461 959 446 902 c 128
 431 845 431 845 422 791 c 257
NamedP: "ah02"
EndSplineSet
PickledDataWithLists: "(dp0
Vcom.adobe.type.autohint
p1
(c_codecs
encode
p2
(Vdata
p3
Vlatin1
p4
tp5
Rp6
g2
(V<data>\\u000a        <hintSetList>\\u000a          <hintset pointTag=\"ab01\">\\u000a            <hstem pos=\"1341\" width=\"176\"/>\\u000a            <vstem pos=\"100\" width=\"207\"/>\\u000a            <vstem pos=\"913\" width=\"207\"/>\\u000a          </hintset>\\u000a        </hintSetList>\\u000a      </data>
p7
g4
tp8
Rp9
Ntp10
sVcom.fontlab.ttprogram
p11
(g2
(Vdata
p12
g4
tp13
Rp14
g2
(V<data>\\u000a        <ttProgram>\\u000a          <ttc align=\"round\" code=\"alignh\" point=\"ah01\"/>\\u000a          <ttc align=\"round\" code=\"alignh\" point=\"ah02\"/>\\u000a          <ttc align=\"round\" code=\"alignh\" point=\"ah03\"/>\\u000a          <ttc align=\"round\" code=\"alignh\" point=\"ah04\"/>\\u000a          <ttc code=\"alignt\" point=\"at01\" zone=\"t: 1\"/>\\u000a          <ttc code=\"alignb\" point=\"ab01\" zone=\"b: 0\"/>\\u000a        </ttProgram>\\u000a      </data>
p15
g4
tp16
Rp17
Ntp18
s."
EndChar
StartChar: one
Encoding: 348 49 348
GlifName: one
Width: 1300
VWidth: 0
Flags: W
LayerCount: 2
Fore
SplineSet
616 880 m 257
NamedP: "hr00"
 754 1243 l 257
 479 972 l 257
 382 898 l 257
 259 1083 l 257
 817 1520 l 257
 1056 1500 l 257
 827 200 l 257
 1070 200 l 257
 1034 0 l 257
 217 0 l 257
 253 200 l 257
 496 200 l 257
 616 880 l 257
NamedP: "hr00"
EndSplineSet
PickledDataWithLists: "(dp0
Vcom.adobe.type.autohint
p1
(c_codecs
encode
p2
(Vdata
p3
Vlatin1
p4
tp5
Rp6
g2
(V<data>\\u000a        <hintSetList>\\u000a          <hintset pointTag=\"hr00\">\\u000a            <hstem pos=\"0\" width=\"160\"/>\\u000a            <hstem pos=\"1520\" width=\"-20\"/>\\u000a            <vstem pos=\"683\" width=\"210\"/>\\u000a          </hintset>\\u000a        </hintSetList>\\u000a      </data>
p7
g4
tp8
Rp9
Ntp10
s."
EndChar
StartChar: two
Encoding: 534 50 534
GlifName: two
Width: 1300
VWidth: 0
Flags: W
LayerCount: 2
Fore
SplineSet
49 0 m 257,0,-1
NamedP: "ab01"
 81 190 l 257,1,2
 141 264 141 264 217 345.5 c 128,-1,3
 293 427 293 427 371.5 505.5 c 128,-1,4
 450 584 450 584 524.5 654 c 128,-1,5
 599 724 599 724 655 775 c 257,6,7
 720 833 720 833 764.5 873 c 128,-1,8
 809 913 809 913 838.5 947 c 128,-1,9
 868 981 868 981 884.5 1015.5 c 128,-1,10
 901 1050 901 1050 909 1097 c 257,11,12
 916 1134 916 1134 910 1170.5 c 128,-1,13
 904 1207 904 1207 886 1236 c 128,-1,14
 868 1265 868 1265 838.5 1282.5 c 128,-1,15
 809 1300 809 1300 768 1300 c 257,16,17
 686 1300 686 1300 614 1245 c 128,-1,18
 542 1190 542 1190 478 1096 c 257,19,-1
 260 1183 l 257,20,21
 303 1260 303 1260 359.5 1321.5 c 128,-1,22
 416 1383 416 1383 486 1426.5 c 128,-1,23
 556 1470 556 1470 640 1493.5 c 128,-1,24
 724 1517 724 1517 821 1517 c 257,25,26
NamedP: "at01"
 935 1517 935 1517 1017.5 1479.5 c 128,-1,27
 1100 1442 1100 1442 1150.5 1381 c 128,-1,28
 1201 1320 1201 1320 1219.5 1242.5 c 128,-1,29
 1238 1165 1238 1165 1224 1086 c 257,30,31
 1212 1016 1212 1016 1179.5 957 c 128,-1,32
 1147 898 1147 898 1100.5 843.5 c 128,-1,33
 1054 789 1054 789 997.5 735 c 128,-1,34
 941 681 941 681 880 621 c 257,35,36
 820 561 820 561 755.5 499 c 128,-1,37
 691 437 691 437 632.5 381 c 128,-1,38
 574 325 574 325 526 278 c 128,-1,39
 478 231 478 231 451 200 c 257,40,-1
 1093 200 l 257,41,-1
 1058 0 l 257,42,-1
 49 0 l 257,0,-1
NamedP: "ab01"
EndSplineSet
PickledDataWithLists: "(dp0
Vcom.adobe.type.autohint
p1
(c_codecs
encode
p2
(Vdata
p3
Vlatin1
p4
tp5
Rp6
g2
(V<data>\\u000a        <hintSetList>\\u000a          <hintset pointTag=\"ab01\">\\u000a            <hstem pos=\"0\" width=\"160\"/>\\u000a            <hstem pos=\"1348\" width=\"169\"/>\\u000a            <vstem pos=\"836\" width=\"195\"/>\\u000a          </hintset>\\u000a        </hintSetList>\\u000a      </data>
p7
g4
tp8
Rp9
Ntp10
sVcom.fontlab.ttprogram
p11
(g2
(Vdata
p12
g4
tp13
Rp14
g2
(V<data>\\u000a        <ttProgram>\\u000a          <ttc code=\"alignt\" point=\"at01\" zone=\"t: 1\"/>\\u000a          <ttc code=\"alignb\" point=\"ab01\" zone=\"b: 0\"/>\\u000a        </ttProgram>\\u000a      </data>
p15
g4
tp16
Rp17
Ntp18
s."
EndChar
StartChar: three
Encoding: 522 51 522
GlifName: three
Width: 1300
VWidth: 0
Flags: W
LayerCount: 2
Fore
SplineSet
361 938 m 257
NamedP: "hr00"
 394 959 394 959 440 989 c 128
 486 1019 486 1019 539 1055 c 128
 592 1091 592 1091 647.5 1130.5 c 128
 703 1170 703 1170 754.5 1211.5 c 128
 806 1253 806 1253 850.5 1294.5 c 128
 895 1336 895 1336 926 1374 c 257
 652 1300 l 257
 321 1300 l 257
 378 1500 l 257
 1220 1500 l 257
 1189 1327 l 257
 1144 1248 1144 1248 1074.5 1182 c 128
 1005 1116 1005 1116 923 1052 c 257
 752 969 l 257
 857 969 857 969 938.5 941.5 c 128
 1020 914 1020 914 1072 863 c 128
 1124 812 1124 812 1144.5 738.5 c 128
 1165 665 1165 665 1149 573 c 257
 1131 474 1131 474 1076 393 c 128
 1021 312 1021 312 939.5 248.5 c 128
 858 185 858 185 755.5 138 c 128
 653 91 653 91 540 60.5 c 128
 427 30 427 30 310 15 c 128
 193 0 193 0 82 0 c 257
 118 200 l 257
 236 204 236 204 353 231 c 128
 470 258 470 258 566 304.5 c 128
 662 351 662 351 727 416.5 c 128
 792 482 792 482 807 563 c 257
 817 621 817 621 799.5 660.5 c 128
 782 700 782 700 744 724.5 c 128
 706 749 706 749 652.5 759.5 c 128
 599 770 599 770 537 770 c 257
 522 770 522 770 493 768.5 c 128
 464 767 464 767 432.5 765.5 c 128
 401 764 401 764 372.5 762.5 c 128
 344 761 344 761 329 760 c 257
 361 938 l 257
NamedP: "hr00"
EndSplineSet
PickledDataWithLists: "(dp0
Vcom.adobe.type.autohint
p1
(c_codecs
encode
p2
(Vdata
p3
Vlatin1
p4
tp5
Rp6
g2
(V<data>\\u000a        <hintSetList>\\u000a          <hintset pointTag=\"hr00\">\\u000a            <hstem pos=\"0\" width=\"160\"/>\\u000a            <hstem pos=\"790\" width=\"158\"/>\\u000a            <hstem pos=\"1340\" width=\"160\"/>\\u000a            <vstem pos=\"849\" width=\"210\"/>\\u000a          </hintset>\\u000a        </hintSetList>\\u000a      </data>
p7
g4
tp8
Rp9
Ntp10
s."
EndChar
StartChar: four
Encoding: 260 52 260
GlifName: four
Width: 1300
VWidth: 0
Flags: W
LayerCount: 2
Fore
SplineSet
1155 300 m 257
NamedP: "hr00"
 977 300 l 257
 924 0 l 257
 603 0 l 257
 656 300 l 257
 96 300 l 257
 132 500 l 257
 805 1520 l 257
 1082 1500 l 257
 621 763 l 257
 401 500 l 257
 692 500 l 257
 741 780 l 257
 1066 800 l 257
 1013 500 l 257
 1212 500 l 257
 1155 300 l 257
NamedP: "hr00"
EndSplineSet
PickledDataWithLists: "(dp0
Vcom.adobe.type.autohint
p1
(c_codecs
encode
p2
(Vdata
p3
Vlatin1
p4
tp5
Rp6
g2
(V<data>\\u000a        <hintSetList>\\u000a          <hintset pointTag=\"hr00\">\\u000a            <hstem pos=\"21\" width=\"-21\"/>\\u000a            <hstem pos=\"300\" width=\"160\"/>\\u000a            <hstem pos=\"1520\" width=\"-20\"/>\\u000a            <vstem pos=\"696\" width=\"210\"/>\\u000a          </hintset>\\u000a        </hintSetList>\\u000a      </data>
p7
g4
tp8
Rp9
Ntp10
s."
EndChar
StartChar: five
Encoding: 252 53 252
GlifName: five
Width: 1300
VWidth: 0
Flags: W
LayerCount: 2
Fore
SplineSet
619 1046 m 257,0,1
NamedP: "hr00"
 644 1052 644 1052 673 1055.5 c 128,-1,2
 702 1059 702 1059 737 1059 c 257,3,4
 853 1059 853 1059 938.5 1025 c 128,-1,5
 1024 991 1024 991 1077.5 932 c 128,-1,6
 1131 873 1131 873 1150.5 794.5 c 128,-1,7
 1170 716 1170 716 1154 626 c 257,8,9
 1136 523 1136 523 1079.5 437 c 128,-1,10
 1023 351 1023 351 940.5 281.5 c 128,-1,11
 858 212 858 212 754.5 159.5 c 128,-1,12
 651 107 651 107 538.5 71.5 c 128,-1,13
 426 36 426 36 309.5 18 c 128,-1,14
 193 0 193 0 85 0 c 257,15,-1
 125 226 l 257,16,17
 197 228 197 228 274 242 c 128,-1,18
 351 256 351 256 425 280 c 128,-1,19
 499 304 499 304 567 338 c 128,-1,20
 635 372 635 372 689 413.5 c 128,-1,21
 743 455 743 455 778 503.5 c 128,-1,22
 813 552 813 552 823 606 c 257,23,24
 830 647 830 647 823 686 c 128,-1,25
 816 725 816 725 796 755 c 128,-1,26
 776 785 776 785 744 803.5 c 128,-1,27
 712 822 712 822 669 822 c 257,28,29
 631 822 631 822 597 816 c 128,-1,30
 563 810 563 810 534.5 800.5 c 128,-1,31
 506 791 506 791 483 780 c 128,-1,32
 460 769 460 769 444 759 c 257,33,-1
 219 759 l 257,34,-1
 350 1500 l 257,35,-1
 1216 1500 l 257,36,-1
 1180 1300 l 257,37,-1
 663 1300 l 257,38,-1
 619 1046 l 257,0,1
NamedP: "hr00"
EndSplineSet
PickledDataWithLists: "(dp0
Vcom.adobe.type.autohint
p1
(c_codecs
encode
p2
(Vdata
p3
Vlatin1
p4
tp5
Rp6
g2
(V<data>\\u000a        <hintSetList>\\u000a          <hintset pointTag=\"hr00\">\\u000a            <hstem pos=\"0\" width=\"160\"/>\\u000a            <hstem pos=\"866\" width=\"169\"/>\\u000a            <hstem pos=\"1340\" width=\"160\"/>\\u000a            <vstem pos=\"218\" width=\"208\"/>\\u000a            <vstem pos=\"862\" width=\"205\"/>\\u000a          </hintset>\\u000a        </hintSetList>\\u000a      </data>
p7
g4
tp8
Rp9
Ntp10
s."
EndChar
StartChar: six
Encoding: 447 54 447
GlifName: six
Width: 1300
VWidth: 0
Flags: W
LayerCount: 2
Fore
SplineSet
1132 1280 m 257
NamedP: "hr00"
 1109 1294 1109 1294 1078.5 1297 c 128
 1048 1300 1048 1300 1024 1300 c 257
 955 1300 955 1300 875.5 1266.5 c 128
 796 1233 796 1233 720 1169 c 128
 644 1105 644 1105 579 1012 c 128
 514 919 514 919 475 800 c 257
 666 945 l 257
 724 956 724 956 769 956 c 257
 866 956 866 956 952 931.5 c 128
 1038 907 1038 907 1099 854.5 c 128
 1160 802 1160 802 1187.5 720.5 c 128
 1215 639 1215 639 1195 525 c 257
 1175 414 1175 414 1118 315.5 c 128
 1061 217 1061 217 975 143 c 128
 889 69 889 69 779.5 26 c 128
 670 -17 670 -17 547 -17 c 257
NamedP: "ab01"
 439 -17 439 -17 362 15 c 128
 285 47 285 47 233 99.5 c 128
 181 152 181 152 151 219.5 c 128
 121 287 121 287 108 358.5 c 128
 95 430 95 430 96.5 500 c 128
 98 570 98 570 108 627 c 257
 129 745 129 745 174 857 c 128
 219 969 219 969 285 1067.5 c 128
 351 1166 351 1166 436 1249 c 128
 521 1332 521 1332 621.5 1391.5 c 128
 722 1451 722 1451 835.5 1484 c 128
 949 1517 949 1517 1072 1517 c 257
NamedP: "at01"
 1090 1517 1090 1517 1123 1514.5 c 128
 1156 1512 1156 1512 1204 1498 c 257
 1132 1280 l 257
NamedP: "hr00"
720 756 m 257
NamedP: "av01"
 684 756 684 756 644.5 741 c 128
 605 726 605 726 567.5 703 c 128
 530 680 530 680 497 652.5 c 128
 464 625 464 625 440 601 c 257
 435 575 435 575 432 553.5 c 128
 429 532 429 532 427.5 512.5 c 128
 426 493 426 493 426 474 c 128
 426 455 426 455 428 434 c 257
 432 387 432 387 443.5 344.5 c 128
 455 302 455 302 475.5 270 c 128
 496 238 496 238 524 219 c 128
 552 200 552 200 589 200 c 257
 643 200 643 200 688 228.5 c 128
 733 257 733 257 767 302.5 c 128
 801 348 801 348 823.5 404.5 c 128
 846 461 846 461 856 516 c 257
 865 566 865 566 859 610 c 128
 853 654 853 654 835 686.5 c 128
 817 719 817 719 787.5 737.5 c 128
 758 756 758 756 720 756 c 257
NamedP: "av01"
EndSplineSet
PickledDataWithLists: "(dp0
Vcom.adobe.type.autohint
p1
(c_codecs
encode
p2
(Vdata
p3
Vlatin1
p4
tp5
Rp6
g2
(V<data>\\u000a        <hintSetList>\\u000a          <hintset pointTag=\"hr00\">\\u000a            <hstem pos=\"-17\" width=\"170\"/>\\u000a            <hstem pos=\"757\" width=\"170\"/>\\u000a            <hstem pos=\"1347\" width=\"170\"/>\\u000a            <vstem pos=\"123\" width=\"206\"/>\\u000a            <vstem pos=\"922\" width=\"205\"/>\\u000a          </hintset>\\u000a        </hintSetList>\\u000a      </data>
p7
g4
tp8
Rp9
Ntp10
sVcom.fontlab.ttprogram
p11
(g2
(Vdata
p12
g4
tp13
Rp14
g2
(V<data>\\u000a        <ttProgram>\\u000a          <ttc align=\"round\" code=\"alignv\" point=\"av01\"/>\\u000a          <ttc code=\"alignt\" point=\"at01\" zone=\"t: 1\"/>\\u000a          <ttc code=\"alignb\" point=\"ab01\" zone=\"b: 0\"/>\\u000a        </ttProgram>\\u000a      </data>
p15
g4
tp16
Rp17
Ntp18
s."
EndChar
StartChar: seven
Encoding: 440 55 440
GlifName: seven
Width: 1300
VWidth: 0
Flags: W
LayerCount: 2
Fore
SplineSet
179 1500 m 257
NamedP: "hr00"
 1186 1500 l 257
 1157 1339 l 257
 1152 1312 1152 1312 1131 1274 c 128
 1110 1236 1110 1236 1077.5 1189.5 c 128
 1045 1143 1045 1143 1003 1088.5 c 128
 961 1034 961 1034 915 976 c 257
 861 906 861 906 801 827 c 128
 741 748 741 748 686.5 666 c 128
 632 584 632 584 588.5 502.5 c 128
 545 421 545 421 523 346 c 257
 512 310 512 310 502 266 c 128
 492 222 492 222 483 175.5 c 128
 474 129 474 129 466 84 c 128
 458 39 458 39 451 0 c 257
 114 0 l 257
 120 32 120 32 130 86 c 128
 140 140 140 140 153 200 c 128
 166 260 166 260 181 318.5 c 128
 196 377 196 377 212 418 c 257
 246 507 246 507 296.5 597.5 c 128
 347 688 347 688 405 774 c 128
 463 860 463 860 523.5 939 c 128
 584 1018 584 1018 638 1086 c 257
 683 1143 683 1143 720 1191 c 128
 757 1239 757 1239 775 1272 c 257
 139 1272 l 257
 179 1500 l 257
NamedP: "hr00"
EndSplineSet
PickledDataWithLists: "(dp0
Vcom.adobe.type.autohint
p1
(c_codecs
encode
p2
(Vdata
p3
Vlatin1
p4
tp5
Rp6
g2
(V<data>\\u000a        <hintSetList>\\u000a          <hintset pointTag=\"hr00\">\\u000a            <hstem pos=\"21\" width=\"-21\"/>\\u000a            <hstem pos=\"1340\" width=\"160\"/>\\u000a            <vstem pos=\"400\" width=\"205\"/>\\u000a            <vstem pos=\"879\" width=\"221\"/>\\u000a          </hintset>\\u000a        </hintSetList>\\u000a      </data>
p7
g4
tp8
Rp9
Ntp10
s."
EndChar
StartChar: eight
Encoding: 225 56 225
GlifName: eight
Width: 1300
VWidth: 0
Flags: W
LayerCount: 2
Fore
SplineSet
810 1517 m 257
NamedP: "at01"
 913 1517 913 1517 996 1490.5 c 128
 1079 1464 1079 1464 1134 1414.5 c 128
 1189 1365 1189 1365 1212.5 1294 c 128
 1236 1223 1236 1223 1220 1134 c 257
 1211 1083 1211 1083 1183.5 1040 c 128
 1156 997 1156 997 1118 961 c 128
 1080 925 1080 925 1035 896 c 128
 990 867 990 867 945 844 c 257
 1006 812 1006 812 1056 769.5 c 128
 1106 727 1106 727 1140 674.5 c 128
 1174 622 1174 622 1187.5 560 c 128
 1201 498 1201 498 1189 427 c 257
 1168 312 1168 312 1105 228 c 128
 1042 144 1042 144 953 89.5 c 128
 864 35 864 35 757.5 9 c 128
 651 -17 651 -17 545 -17 c 257
NamedP: "ab01"
 441 -17 441 -17 349 12.5 c 128
 257 42 257 42 192 100 c 128
 127 158 127 158 96.5 243.5 c 128
 66 329 66 329 86 441 c 257
 98 512 98 512 130.5 573.5 c 128
 163 635 163 635 210.5 686 c 128
 258 737 258 737 318 777.5 c 128
 378 818 378 818 446 848 c 257
 405 875 405 875 371 905.5 c 128
 337 936 337 936 314 970 c 128
 291 1004 291 1004 281 1042 c 128
 271 1080 271 1080 279 1124 c 257
 291 1192 291 1192 321.5 1248 c 128
 352 1304 352 1304 394 1347.5 c 128
 436 1391 436 1391 487.5 1423 c 128
 539 1455 539 1455 594 1476 c 128
 649 1497 649 1497 704.5 1507 c 128
 760 1517 760 1517 810 1517 c 257
NamedP: "at01"
863 422 m 257
 872 476 872 476 857 520 c 128
 842 564 842 564 811.5 599.5 c 128
 781 635 781 635 740.5 662.5 c 128
 700 690 700 690 659 711 c 257
 612 690 612 690 570.5 662.5 c 128
 529 635 529 635 495.5 599 c 128
 462 563 462 563 439 519 c 128
 416 475 416 475 406 421 c 257
 398 373 398 373 410 332 c 128
 422 291 422 291 448 262 c 128
 474 233 474 233 510 216.5 c 128
 546 200 546 200 585 200 c 257
 630 200 630 200 676 215 c 128
 722 230 722 230 760 258.5 c 128
 798 287 798 287 826 328 c 128
 854 369 854 369 863 422 c 257
605 1156 m 257
 599 1122 599 1122 608 1093.5 c 128
 617 1065 617 1065 636.5 1041 c 128
 656 1017 656 1017 682.5 998 c 128
 709 979 709 979 739 964 c 257
 799 993 799 993 845.5 1041 c 128
 892 1089 892 1089 903 1152 c 257
 910 1190 910 1190 900.5 1218 c 128
 891 1246 891 1246 873 1264 c 128
 855 1282 855 1282 832 1291 c 128
 809 1300 809 1300 789 1300 c 257
 761 1300 761 1300 730.5 1289 c 128
 700 1278 700 1278 674 1258.5 c 128
 648 1239 648 1239 629 1212.5 c 128
 610 1186 610 1186 605 1156 c 257
EndSplineSet
PickledDataWithLists: "(dp0
Vcom.adobe.type.autohint
p1
(c_codecs
encode
p2
(Vdata
p3
Vlatin1
p4
tp5
Rp6
g2
(V<data>\\u000a        <hintSetList/>\\u000a      </data>
p7
g4
tp8
Rp9
Ntp10
sVcom.fontlab.ttprogram
p11
(g2
(Vdata
p12
g4
tp13
Rp14
g2
(V<data>\\u000a        <ttProgram>\\u000a          <ttc code=\"alignt\" point=\"at01\" zone=\"t: 1\"/>\\u000a          <ttc code=\"alignb\" point=\"ab01\" zone=\"b: 0\"/>\\u000a        </ttProgram>\\u000a      </data>
p15
g4
tp16
Rp17
Ntp18
s."
EndChar
StartChar: nine
Encoding: 330 57 330
GlifName: nine
Width: 1300
VWidth: 0
Flags: W
LayerCount: 2
Fore
SplineSet
190 200 m 257
NamedP: "hr00"
 259 202 259 202 329.5 223 c 128
 400 244 400 244 466 279 c 128
 532 314 532 314 590.5 361.5 c 128
 649 409 649 409 696 463.5 c 128
 743 518 743 518 775 578 c 128
 807 638 807 638 819 700 c 257
 614 548 l 257
 598 546 598 546 581 545 c 128
 564 544 564 544 547 544 c 257
 438 544 438 544 349 577.5 c 128
 260 611 260 611 201 673 c 128
 142 735 142 735 117.5 822.5 c 128
 93 910 93 910 112 1017 c 257
 131 1128 131 1128 185.5 1220 c 128
 240 1312 240 1312 322 1378 c 128
 404 1444 404 1444 510.5 1480.5 c 128
 617 1517 617 1517 741 1517 c 257
NamedP: "at01"
 851 1517 851 1517 929.5 1486 c 128
 1008 1455 1008 1455 1060.5 1403.5 c 128
 1113 1352 1113 1352 1142 1285 c 128
 1171 1218 1171 1218 1183.5 1146.5 c 128
 1196 1075 1196 1075 1194 1004 c 128
 1192 933 1192 933 1181 873 c 257
 1150 696 1150 696 1066.5 540.5 c 128
 983 385 983 385 855 266.5 c 128
 727 148 727 148 559 73.5 c 128
 391 -1 391 -1 190 -17 c 257
NamedP: "ab01"
 190 200 l 257
NamedP: "hr00"
594 761 m 257
NamedP: "av01"
 628 761 628 761 666.5 777 c 128
 705 793 705 793 742 819 c 128
 779 845 779 845 811.5 878 c 128
 844 911 844 911 866 945 c 257
 875 1008 875 1008 869.5 1071.5 c 128
 864 1135 864 1135 844.5 1186 c 128
 825 1237 825 1237 791 1268.5 c 128
 757 1300 757 1300 709 1300 c 257
 662 1300 662 1300 618.5 1278.5 c 128
 575 1257 575 1257 539.5 1221 c 128
 504 1185 504 1185 479 1136.5 c 128
 454 1088 454 1088 445 1034 c 257
 435 980 435 980 439.5 931 c 128
 444 882 444 882 463 844 c 128
 482 806 482 806 514.5 783.5 c 128
 547 761 547 761 594 761 c 257
NamedP: "av01"
EndSplineSet
PickledDataWithLists: "(dp0
Vcom.adobe.type.autohint
p1
(c_codecs
encode
p2
(Vdata
p3
Vlatin1
p4
tp5
Rp6
g2
(V<data>\\u000a        <hintSetList>\\u000a          <hintset pointTag=\"hr00\">\\u000a            <hstem pos=\"-17\" width=\"167\"/>\\u000a            <hstem pos=\"573\" width=\"170\"/>\\u000a            <hstem pos=\"1347\" width=\"170\"/>\\u000a            <vstem pos=\"130\" width=\"204\"/>\\u000a            <vstem pos=\"917\" width=\"206\"/>\\u000a          </hintset>\\u000a        </hintSetList>\\u000a      </data>
p7
g4
tp8
Rp9
Ntp10
sVcom.fontlab.ttprogram
p11
(g2
(Vdata
p12
g4
tp13
Rp14
g2
(V<data>\\u000a        <ttProgram>\\u000a          <ttc align=\"round\" code=\"alignv\" point=\"av01\"/>\\u000a          <ttc code=\"alignt\" point=\"at01\" zone=\"t: 1\"/>\\u000a          <ttc code=\"alignb\" point=\"ab01\" zone=\"b: 0\"/>\\u000a        </ttProgram>\\u000a      </data>
p15
g4
tp16
Rp17
Ntp18
s."
EndChar
StartChar: semicolon
Encoding: 438 59 438
GlifName: semicolon
Width: 1300
VWidth: 0
Flags: W
LayerCount: 2
Fore
SplineSet
191 156 m 257,0,1
NamedP: "hr00"
 197 191 197 191 216.5 222.5 c 128,-1,2
 236 254 236 254 264.5 277 c 128,-1,3
 293 300 293 300 328.5 314.5 c 128,-1,4
 364 329 364 329 400 329 c 257,5,6
NamedP: "av03"
 435 329 435 329 464 316.5 c 128,-1,7
 493 304 493 304 514 280 c 128,-1,8
 535 256 535 256 543.5 219 c 128,-1,9
 552 182 552 182 543 136 c 257,10,11
 532 72 532 72 513.5 12.5 c 128,-1,12
 495 -47 495 -47 460 -108 c 128,-1,13
 425 -169 425 -169 368 -232.5 c 128,-1,14
 311 -296 311 -296 224 -365 c 257,15,-1
 167 -337 l 257,16,17
 203 -284 203 -284 235 -228 c 257,18,19
 262 -181 262 -181 286.5 -125.5 c 128,-1,20
 311 -70 311 -70 321 -17 c 257,21,22
NamedP: "ab01"
 291 -16 291 -16 264 -4 c 128,-1,23
 237 8 237 8 218 29 c 128,-1,24
 199 50 199 50 191.5 82.5 c 128,-1,25
 184 115 184 115 191 156 c 257,0,1
NamedP: "hr00"
268 700 m 257,26,27
 275 741 275 741 297 777 c 128,-1,28
 319 813 319 813 350.5 840 c 128,-1,29
 382 867 382 867 420.5 882.5 c 128,-1,30
 459 898 459 898 500 898 c 257,31,32
NamedP: "av01"
 541 898 541 898 574 882.5 c 128,-1,33
 607 867 607 867 629.5 840 c 128,-1,34
 652 813 652 813 661 777 c 128,-1,35
 670 741 670 741 663 700 c 257,36,37
 656 659 656 659 634 622.5 c 128,-1,38
 612 586 612 586 580.5 559 c 128,-1,39
 549 532 549 532 511 516 c 128,-1,40
 473 500 473 500 432 500 c 257,41,42
NamedP: "av02"
 391 500 391 500 357 516 c 128,-1,43
 323 532 323 532 301 559 c 128,-1,44
 279 586 279 586 270 622.5 c 128,-1,45
 261 659 261 659 268 700 c 257,26,27
EndSplineSet
PickledDataWithLists: "(dp0
Vcom.adobe.type.autohint
p1
(c_codecs
encode
p2
(Vdata
p3
Vlatin1
p4
tp5
Rp6
g2
(V<data>\\u000a        <hintSetList>\\u000a          <hintset pointTag=\"hr00\">\\u000a            <hstem pos=\"-229\" width=\"-21\"/>\\u000a            <hstem pos=\"480\" width=\"218\"/>\\u000a            <vstem pos=\"140\" width=\"216\"/>\\u000a          </hintset>\\u000a        </hintSetList>\\u000a      </data>
p7
g4
tp8
Rp9
Ntp10
sVcom.fontlab.ttprogram
p11
(g2
(Vdata
p12
g4
tp13
Rp14
g2
(V<data>\\u000a        <ttProgram>\\u000a          <ttc align=\"round\" code=\"alignv\" point=\"av01\"/>\\u000a          <ttc align=\"round\" code=\"alignv\" point=\"av02\"/>\\u000a          <ttc align=\"round\" code=\"alignv\" point=\"av03\"/>\\u000a          <ttc code=\"alignb\" point=\"ab01\" zone=\"b: 0\"/>\\u000a        </ttProgram>\\u000a      </data>
p15
g4
tp16
Rp17
Ntp18
s."
EndChar
StartChar: less
Encoding: 308 60 308
GlifName: less
Width: 1300
VWidth: 0
Flags: W
LayerCount: 2
Fore
SplineSet
1219 1277 m 257
NamedP: "av01"
 1172 1009 l 257
NamedP: "sv01"
 442 654 l 257
NamedP: "iv01"
 1047 302 l 257
NamedP: "sv02"
 1000 34 l 257
NamedP: "av02"
 83 545 l 257
 123 770 l 257
 1219 1277 l 257
NamedP: "av01"
EndSplineSet
PickledDataWithLists: "(dp0
Vcom.fontlab.ttprogram
p1
(c_codecs
encode
p2
(Vdata
p3
Vlatin1
p4
tp5
Rp6
g2
(V<data>\\u000a        <ttProgram>\\u000a          <ttc align=\"round\" code=\"alignv\" point=\"av01\"/>\\u000a          <ttc align=\"round\" code=\"alignv\" point=\"av02\"/>\\u000a          <ttc code=\"singlev\" point1=\"av01\" point2=\"sv01\" stem=\"Y: 171\"/>\\u000a          <ttc code=\"interpolatev\" point=\"iv01\" point1=\"av01\" point2=\"av02\"/>\\u000a          <ttc code=\"singlev\" point1=\"av02\" point2=\"sv02\" stem=\"Y: 171\"/>\\u000a        </ttProgram>\\u000a      </data>
p7
g4
tp8
Rp9
Ntp10
s."
EndChar
StartChar: equal
Encoding: 235 61 235
GlifName: equal
Width: 1300
VWidth: 0
Flags: W
LayerCount: 2
Fore
SplineSet
304 800 m 257
NamedP: "av01"
 1104 800 l 257
NamedP: "sv01"
 1065 581 l 257
 265 581 l 257
 304 800 l 257
NamedP: "av01"
234 400 m 257
NamedP: "av02"
 1034 400 l 257
NamedP: "sv02"
 995 181 l 257
 195 181 l 257
 234 400 l 257
NamedP: "av02"
EndSplineSet
PickledDataWithLists: "(dp0
Vcom.adobe.type.autohint
p1
(c_codecs
encode
p2
(Vdata
p3
Vlatin1
p4
tp5
Rp6
g2
(V<data>\\u000a        <hintSetList>\\u000a          <hintset pointTag=\"av01\">\\u000a            <hstem pos=\"260\" width=\"140\"/>\\u000a            <hstem pos=\"560\" width=\"140\"/>\\u000a          </hintset>\\u000a        </hintSetList>\\u000a      </data>
p7
g4
tp8
Rp9
Ntp10
sVcom.fontlab.ttprogram
p11
(g2
(Vdata
p12
g4
tp13
Rp14
g2
(V<data>\\u000a        <ttProgram>\\u000a          <ttc align=\"round\" code=\"alignv\" point=\"av01\"/>\\u000a          <ttc align=\"round\" code=\"alignv\" point=\"av02\"/>\\u000a          <ttc code=\"singlev\" point1=\"av01\" point2=\"sv01\"/>\\u000a          <ttc code=\"singlev\" point1=\"av02\" point2=\"sv02\"/>\\u000a        </ttProgram>\\u000a      </data>
p15
g4
tp16
Rp17
Ntp18
s."
EndChar
StartChar: greater
Encoding: 269 62 269
GlifName: greater
Width: 1300
VWidth: 0
Flags: W
LayerCount: 2
Fore
SplineSet
1217 770 m 257
 1177 545 l 257
 80 34 l 257
NamedP: "av02"
 127 302 l 257
NamedP: "sv01"
 856 654 l 257
NamedP: "iv01"
 252 1009 l 257
NamedP: "sv02"
 299 1278 l 257
NamedP: "av01"
 1217 770 l 257
EndSplineSet
PickledDataWithLists: "(dp0
Vcom.fontlab.ttprogram
p1
(c_codecs
encode
p2
(Vdata
p3
Vlatin1
p4
tp5
Rp6
g2
(V<data>\\u000a        <ttProgram>\\u000a          <ttc align=\"round\" code=\"alignv\" point=\"av01\"/>\\u000a          <ttc align=\"round\" code=\"alignv\" point=\"av02\"/>\\u000a          <ttc code=\"singlev\" point1=\"av02\" point2=\"sv01\" stem=\"Y: 171\"/>\\u000a          <ttc code=\"interpolatev\" point=\"iv01\" point1=\"av01\" point2=\"av02\"/>\\u000a          <ttc code=\"singlev\" point1=\"av01\" point2=\"sv02\" stem=\"Y: 171\"/>\\u000a        </ttProgram>\\u000a      </data>
p7
g4
tp8
Rp9
Ntp10
s."
EndChar
StartChar: question
Encoding: 393 63 393
GlifName: question
Width: 1300
VWidth: 0
Flags: W
LayerCount: 2
Fore
SplineSet
1146 1124 m 257
 1135 1064 1135 1064 1107 1014.5 c 128
 1079 965 1079 965 1039 922 c 128
 999 879 999 879 950.5 841 c 128
 902 803 902 803 852 765 c 257
 818 740 818 740 783.5 708.5 c 128
 749 677 749 677 718.5 637 c 128
 688 597 688 597 664.5 547 c 128
 641 497 641 497 630 434 c 257
NamedP: "av01"
 313 399 l 257
NamedP: "mh01"
 329 486 329 486 355 562 c 128
 381 638 381 638 421.5 705 c 128
 462 772 462 772 519.5 830.5 c 128
 577 889 577 889 657 942 c 257
 683 961 683 961 707.5 981 c 128
 732 1001 732 1001 752 1023.5 c 128
 772 1046 772 1046 786.5 1072.5 c 128
 801 1099 801 1099 807 1132 c 257
 814 1172 814 1172 804.5 1200.5 c 128
 795 1229 795 1229 773.5 1247.5 c 128
 752 1266 752 1266 721.5 1274.5 c 128
 691 1283 691 1283 657 1283 c 257
 631 1283 631 1283 592 1274.5 c 128
 553 1266 553 1266 507.5 1246.5 c 128
 462 1227 462 1227 414 1195 c 128
 366 1163 366 1163 323 1117 c 257
 168 1268 l 257
 238 1344 238 1344 311.5 1392.5 c 128
 385 1441 385 1441 457 1468.5 c 128
 529 1496 529 1496 596.5 1506.5 c 128
 664 1517 664 1517 723 1517 c 257
NamedP: "at01"
 818 1517 818 1517 902.5 1493.5 c 128
 987 1470 987 1470 1047 1421.5 c 128
 1107 1373 1107 1373 1135.5 1299 c 128
 1164 1225 1164 1225 1146 1124 c 257
273 149 m 257
 279 183 279 183 296.5 212.5 c 128
 314 242 314 242 340.5 264.5 c 128
 367 287 367 287 398.5 300 c 128
 430 313 430 313 464 313 c 257
NamedP: "av02"
 498 313 498 313 525.5 300 c 128
 553 287 553 287 571.5 264.5 c 128
 590 242 590 242 597.5 212.5 c 128
 605 183 605 183 599 149 c 257
 593 116 593 116 575 85.5 c 128
 557 55 557 55 531 32.5 c 128
 505 10 505 10 473 -3.5 c 128
 441 -17 441 -17 407 -17 c 257
NamedP: "ab01"
 374 -17 374 -17 346 -3.5 c 128
 318 10 318 10 299.5 32.5 c 128
 281 55 281 55 274 85.5 c 128
 267 116 267 116 273 149 c 257
EndSplineSet
PickledDataWithLists: "(dp0
Vcom.fontlab.ttprogram
p1
(c_codecs
encode
p2
(Vdata
p3
Vlatin1
p4
tp5
Rp6
g2
(V<data>\\u000a        <ttProgram>\\u000a          <ttc code=\"mdeltah\" delta=\"5\" point=\"mh01\" ppm1=\"16\" ppm2=\"16\"/>\\u000a          <ttc align=\"round\" code=\"alignv\" point=\"av01\"/>\\u000a          <ttc align=\"round\" code=\"alignv\" point=\"av02\"/>\\u000a          <ttc code=\"alignt\" point=\"at01\" zone=\"t: 1\"/>\\u000a          <ttc code=\"alignb\" point=\"ab01\" zone=\"b: 0\"/>\\u000a          <ttc code=\"mdeltav\" delta=\"5\" point=\"av01\" ppm1=\"16\" ppm2=\"16\"/>\\u000a          <ttc code=\"mdeltav\" delta=\"7\" point=\"mh01\" ppm1=\"16\" ppm2=\"16\"/>\\u000a        </ttProgram>\\u000a      </data>
p7
g4
tp8
Rp9
Ntp10
s."
EndChar
StartChar: at
Encoding: 128 64 128
GlifName: at
Width: 1300
VWidth: 0
Flags: W
LayerCount: 2
Fore
SplineSet
728 636 m 257
 783 774 l 257
 759 768 759 768 726 750 c 128
 693 732 693 732 659 695.5 c 128
 625 659 625 659 593 601 c 128
 561 543 561 543 538 457 c 257
 518 381 518 381 511.5 329 c 128
 505 277 505 277 508.5 244 c 128
 512 211 512 211 524 194 c 128
 536 177 536 177 551.5 171.5 c 128
 567 166 567 166 585 169.5 c 128
 603 173 603 173 619 181 c 257
 728 636 l 257
1052 570 m 257
 1068 652 1068 652 1077 734 c 128
 1086 816 1086 816 1085.5 891.5 c 128
 1085 967 1085 967 1073 1031.5 c 128
 1061 1096 1061 1096 1035.5 1144 c 128
 1010 1192 1010 1192 968.5 1219.5 c 128
 927 1247 927 1247 868 1247 c 257
 808 1247 808 1247 746.5 1223.5 c 128
 685 1200 685 1200 626 1159.5 c 128
 567 1119 567 1119 513 1063.5 c 128
 459 1008 459 1008 414 944.5 c 128
 369 881 369 881 334.5 811.5 c 128
 300 742 300 742 281 673 c 257
 256 584 256 584 240 487 c 128
 224 390 224 390 221 297 c 128
 218 204 218 204 230.5 120.5 c 128
 243 37 243 37 275.5 -25.5 c 128
 308 -88 308 -88 363 -125 c 128
 418 -162 418 -162 499 -162 c 257
 514 -162 514 -162 540.5 -156.5 c 128
 567 -151 567 -151 597.5 -139.5 c 128
 628 -128 628 -128 660.5 -110 c 128
 693 -92 693 -92 722 -66 c 257
 656 -313 l 257
 640 -330 640 -330 612.5 -343 c 128
 585 -356 585 -356 555 -364.5 c 128
 525 -373 525 -373 496.5 -377.5 c 128
 468 -382 468 -382 450 -382 c 257
NamedP: "av03"
 342 -382 342 -382 263 -340.5 c 128
 184 -299 184 -299 130 -228.5 c 128
 76 -158 76 -158 45.5 -64.5 c 128
 15 29 15 29 3 132 c 128
 -9 235 -9 235 -4.5 342 c 128
 0 449 0 449 17 547 c 257
 39 673 39 673 82.5 790 c 128
 126 907 126 907 187.5 1008.5 c 128
 249 1110 249 1110 326.5 1193 c 128
 404 1276 404 1276 494 1335.5 c 128
 584 1395 584 1395 685 1427.5 c 128
 786 1460 786 1460 894 1460 c 257
NamedP: "av01"
 995 1460 995 1460 1068.5 1424 c 128
 1142 1388 1142 1388 1191.5 1323.5 c 128
 1241 1259 1241 1259 1268.5 1170.5 c 128
 1296 1082 1296 1082 1303.5 977.5 c 128
NamedP: "ah02"
 1311 873 1311 873 1301 756 c 128
 1291 639 1291 639 1266 519 c 257
 1236 375 1236 375 1188.5 271 c 128
 1141 167 1141 167 1076.5 99.5 c 128
 1012 32 1012 32 931 0 c 128
 850 -32 850 -32 753 -32 c 257
NamedP: "ab02"
 728 -32 728 -32 707 -24.5 c 128
 686 -17 686 -17 669 -4.5 c 128
 652 8 652 8 639.5 24 c 128
 627 40 627 40 621 57 c 257
 555 -17 l 257
NamedP: "ab01"
 504 -17 504 -17 456.5 -3 c 128
 409 11 409 11 374 50 c 128
 339 89 339 89 321.5 159 c 128
 304 229 304 229 314 340 c 257
NamedP: "ah01"
 324 447 324 447 353.5 536.5 c 128
 383 626 383 626 426 697.5 c 128
 469 769 469 769 521 822 c 128
 573 875 573 875 628 910.5 c 128
 683 946 683 946 736.5 963.5 c 128
 790 981 790 981 836 981 c 257
NamedP: "av02"
 896 981 896 981 936.5 973 c 128
 977 965 977 965 1001 952 c 257
 835 249 l 257
 827 210 827 210 827.5 189.5 c 128
 828 169 828 169 851 169 c 257
 868 169 868 169 894.5 196 c 128
 921 223 921 223 950 274.5 c 128
 979 326 979 326 1006.5 400.5 c 128
 1034 475 1034 475 1052 570 c 257
EndSplineSet
PickledDataWithLists: "(dp0
Vcom.fontlab.ttprogram
p1
(c_codecs
encode
p2
(Vdata
p3
Vlatin1
p4
tp5
Rp6
g2
(V<data>\\u000a        <ttProgram>\\u000a          <ttc align=\"round\" code=\"alignh\" point=\"ah01\"/>\\u000a          <ttc align=\"round\" code=\"alignh\" point=\"ah02\"/>\\u000a          <ttc align=\"round\" code=\"alignv\" point=\"av01\"/>\\u000a          <ttc align=\"round\" code=\"alignv\" point=\"av02\"/>\\u000a          <ttc align=\"round\" code=\"alignv\" point=\"av03\"/>\\u000a          <ttc code=\"alignb\" point=\"ab01\" zone=\"b: 0\"/>\\u000a          <ttc code=\"alignb\" point=\"ab02\" zone=\"b: 0\"/>\\u000a        </ttProgram>\\u000a      </data>
p7
g4
tp8
Rp9
Ntp10
s."
EndChar
StartChar: C
Encoding: 12 67 12
GlifName: C_
Width: 1300
VWidth: 0
Flags: W
LayerCount: 2
Fore
SplineSet
1058 133 m 257
NamedP: "hr00"
 943 52 943 52 824 17.5 c 128
 705 -17 705 -17 575 -17 c 257
NamedP: "ab01"
 472 -17 472 -17 387.5 11.5 c 128
 303 40 303 40 238.5 91.5 c 128
 174 143 174 143 129 215 c 128
 84 287 84 287 60.5 374 c 128
 37 461 37 461 34 561.5 c 128
 31 662 31 662 50 769 c 257
 68 870 68 870 96 964.5 c 128
 124 1059 124 1059 167 1142 c 128
 210 1225 210 1225 270.5 1294 c 128
 331 1363 331 1363 414 1412.5 c 128
 497 1462 497 1462 605 1489.5 c 128
 713 1517 713 1517 850 1517 c 257
NamedP: "at01"
 914 1517 914 1517 974.5 1505.5 c 128
 1035 1494 1035 1494 1089 1472 c 128
 1143 1450 1143 1450 1189 1418 c 128
 1235 1386 1235 1386 1271 1344 c 257
 1091 1160 l 257
 1062 1182 1062 1182 1029 1202 c 128
 996 1222 996 1222 961.5 1237 c 128
 927 1252 927 1252 891.5 1261 c 128
 856 1270 856 1270 822 1270 c 257
 727 1270 727 1270 656 1231 c 128
 585 1192 585 1192 534.5 1124.5 c 128
 484 1057 484 1057 451 966 c 128
 418 875 418 875 400 772 c 257
 389 711 389 711 386.5 647.5 c 128
 384 584 384 584 391 524 c 128
 398 464 398 464 416 411 c 128
 434 358 434 358 464.5 318.5 c 128
 495 279 495 279 539.5 256 c 128
 584 233 584 233 643 233 c 257
 677 233 677 233 711 238.5 c 128
 745 244 745 244 784 256.5 c 128
 823 269 823 269 869.5 289.5 c 128
 916 310 916 310 975 340 c 257
 1058 133 l 257
NamedP: "hr00"
EndSplineSet
PickledDataWithLists: "(dp0
Vcom.adobe.type.autohint
p1
(c_codecs
encode
p2
(Vdata
p3
Vlatin1
p4
tp5
Rp6
g2
(V<data>\\u000a        <hintSetList>\\u000a          <hintset pointTag=\"hr00\">\\u000a            <hstem pos=\"-15\" width=\"298\"/>\\u000a            <hstem pos=\"1218\" width=\"297\"/>\\u000a            <vstem pos=\"84\" width=\"261\"/>\\u000a          </hintset>\\u000a        </hintSetList>\\u000a      </data>
p7
g4
tp8
Rp9
Ntp10
sVcom.fontlab.ttprogram
p11
(g2
(Vdata
p12
g4
tp13
Rp14
g2
(V<data>\\u000a        <ttProgram>\\u000a          <ttc code=\"alignt\" point=\"at01\" zone=\"t: 1\"/>\\u000a          <ttc code=\"alignb\" point=\"ab01\" zone=\"b: 0\"/>\\u000a        </ttProgram>\\u000a      </data>
p15
g4
tp16
Rp17
Ntp18
sVcom.typemytype.robofont.guides
p19
(lp20
(dp21
Vangle
p22
I0
sVisGlobal
p23
I00
sVmagnetic
p24
I5
sVx
p25
I0
sVy
p26
I233
sas."
EndChar
StartChar: D
Encoding: 15 68 15
GlifName: D_
Width: 1300
VWidth: 0
Flags: W
LayerCount: 2
Fore
SplineSet
223 1500 m 257,0,1
NamedP: "hr00"
 273 1505 273 1505 330 1508 c 128,-1,2
 387 1511 387 1511 442 1513 c 128,-1,3
 497 1515 497 1515 546 1516 c 128,-1,4
 595 1517 595 1517 628 1517 c 257,5,6
NamedP: "at01"
 721 1517 721 1517 811 1499.5 c 128,-1,7
 901 1482 901 1482 980 1444.5 c 128,-1,8
 1059 1407 1059 1407 1123 1350 c 128,-1,9
 1187 1293 1187 1293 1227.5 1214 c 128,-1,10
 1268 1135 1268 1135 1281 1033.5 c 128,-1,11
 1294 932 1294 932 1272 807 c 257,12,13
 1234 589 1234 589 1162.5 435.5 c 128,-1,14
 1091 282 1091 282 979.5 185.5 c 128,-1,15
 868 89 868 89 713 44.5 c 128,-1,16
 558 0 558 0 353 0 c 257,17,-1
NamedP: "sv01"
 2 0 l 257,18,-1
NamedP: "ab01"
 223 1262 l 257,19,-1
 223 1500 l 257,0,1
NamedP: "hr00"
549 1121 m 257,20,-1
 396 250 l 257,21,22
 501 250 501 250 578.5 275.5 c 128,-1,23
 656 301 656 301 712.5 343.5 c 128,-1,24
 769 386 769 386 806 441 c 128,-1,25
 843 496 843 496 867 554.5 c 128,-1,26
 891 613 891 613 904 671 c 128,-1,27
 917 729 917 729 926 778 c 257,28,29
 946 890 946 890 944.5 983 c 128,-1,30
 943 1076 943 1076 907 1143 c 128,-1,31
 871 1210 871 1210 792.5 1246.5 c 128,-1,32
 714 1283 714 1283 579 1283 c 257,33,34
 576 1283 576 1283 572.5 1282.5 c 128,-1,35
 569 1282 569 1282 565 1282 c 257,36,-1
 557 1282 l 257,37,-1
 549 1121 l 257,20,-1
EndSplineSet
PickledDataWithLists: "(dp0
Vcom.adobe.type.autohint
p1
(c_codecs
encode
p2
(Vdata
p3
Vlatin1
p4
tp5
Rp6
g2
(V<data>\\u000a        <hintSetList>\\u000a          <hintset pointTag=\"hr00\">\\u000a            <hstem pos=\"0\" width=\"289\"/>\\u000a            <hstem pos=\"1227\" width=\"283\"/>\\u000a            <vstem pos=\"87\" width=\"262\"/>\\u000a            <vstem pos=\"837\" width=\"262\"/>\\u000a          </hintset>\\u000a        </hintSetList>\\u000a      </data>
p7
g4
tp8
Rp9
Ntp10
sVcom.fontlab.ttprogram
p11
(g2
(Vdata
p12
g4
tp13
Rp14
g2
(V<data>\\u000a        <ttProgram>\\u000a          <ttc code=\"alignt\" point=\"at01\" zone=\"t: 1\"/>\\u000a          <ttc code=\"alignb\" point=\"ab01\" zone=\"b: 0\"/>\\u000a          <ttc code=\"singlev\" point1=\"ab01\" point2=\"sv01\"/>\\u000a        </ttProgram>\\u000a      </data>
p15
g4
tp16
Rp17
Ntp18
sVcom.typemytype.robofont.guides
p19
(lp20
(dp21
Vangle
p22
I0
sVisGlobal
p23
I00
sVmagnetic
p24
I5
sVx
p25
I0
sVy
p26
I1450
sa(dp27
g22
I0
sg23
I00
sg24
I5
sg25
I0
sg26
I210
sa(dp28
g22
I90
sg23
I00
sg24
I5
sg25
I278
sg26
I0
sas."
EndChar
StartChar: H
Encoding: 29 72 29
GlifName: H_
Width: 1300
VWidth: 0
Flags: W
LayerCount: 2
Fore
SplineSet
672 0 m 257,0,-1
NamedP: "hr00"
 794 688 l 257,1,-1
NamedP: "sv01"
 478 688 l 257,2,-1
NamedP: "av01"
 356 0 l 257,3,-1
 10 0 l 257,4,-1
NamedP: "ab01"
 232 1263 l 257,5,-1
 232 1500 l 257,6,-1
NamedP: "at01"
 625 1520 l 257,7,-1
NamedP: "at02"
 518 916 l 257,8,-1
 834 916 l 257,9,-1
 937 1500 l 257,10,-1
NamedP: "sv02"
 1287 1520 l 257,11,-1
NamedP: "at03"
 1018 0 l 257,12,-1
NamedP: "sv03"
 672 0 l 257,0,-1
NamedP: "hr00"
EndSplineSet
PickledDataWithLists: "(dp0
Vcom.adobe.type.autohint
p1
(c_codecs
encode
p2
(Vdata
p3
Vlatin1
p4
tp5
Rp6
g2
(V<data>\\u000a        <hintSetList>\\u000a          <hintset pointTag=\"hr00\">\\u000a            <hstem pos=\"19\" width=\"-21\"/>\\u000a            <hstem pos=\"655\" width=\"289\"/>\\u000a            <hstem pos=\"1518\" width=\"-20\"/>\\u000a            <vstem pos=\"131\" width=\"258\"/>\\u000a            <vstem pos=\"886\" width=\"257\"/>\\u000a          </hintset>\\u000a        </hintSetList>\\u000a      </data>
p7
g4
tp8
Rp9
Ntp10
sVcom.fontlab.ttprogram
p11
(g2
(Vdata
p12
g4
tp13
Rp14
g2
(V<data>\\u000a        <ttProgram>\\u000a          <ttc align=\"round\" code=\"alignv\" point=\"av01\"/>\\u000a          <ttc code=\"alignt\" point=\"at01\" zone=\"t: 1\"/>\\u000a          <ttc code=\"alignt\" point=\"at02\" zone=\"t: 1\"/>\\u000a          <ttc code=\"alignt\" point=\"at03\" zone=\"t: 1\"/>\\u000a          <ttc code=\"alignb\" point=\"ab01\" zone=\"b: 0\"/>\\u000a          <ttc code=\"singlev\" point1=\"av01\" point2=\"sv01\"/>\\u000a          <ttc code=\"singlev\" point1=\"at01\" point2=\"sv02\"/>\\u000a          <ttc code=\"singlev\" point1=\"ab01\" point2=\"sv03\"/>\\u000a        </ttProgram>\\u000a      </data>
p15
g4
tp16
Rp17
Ntp18
s."
EndChar
StartChar: I
Encoding: 30 73 30
GlifName: I_
Width: 1300
VWidth: 0
Flags: W
LayerCount: 2
Fore
SplineSet
347 1500 m 257
NamedP: "at01"
 1225 1500 l 257
NamedP: "sv01"
 1185 1272 l 257
 912 1272 l 257
 727 228 l 257
 1028 228 l 257
 953 0 l 257
NamedP: "sv02"
 75 0 l 257
NamedP: "ab01"
 115 228 l 257
 393 228 l 257
 578 1272 l 257
 272 1272 l 257
 347 1500 l 257
NamedP: "at01"
EndSplineSet
PickledDataWithLists: "(dp0
Vcom.adobe.type.autohint
p1
(c_codecs
encode
p2
(Vdata
p3
Vlatin1
p4
tp5
Rp6
g2
(V<data>\\u000a        <hintSetList>\\u000a          <hintset pointTag=\"at01\">\\u000a            <hstem pos=\"19\" width=\"-21\"/>\\u000a            <hstem pos=\"1518\" width=\"-20\"/>\\u000a            <vstem pos=\"161\" width=\"262\"/>\\u000a          </hintset>\\u000a        </hintSetList>\\u000a      </data>
p7
g4
tp8
Rp9
Ntp10
sVcom.fontlab.ttprogram
p11
(g2
(Vdata
p12
g4
tp13
Rp14
g2
(V<data>\\u000a        <ttProgram>\\u000a          <ttc code=\"alignt\" point=\"at01\" zone=\"t: 1\"/>\\u000a          <ttc code=\"alignb\" point=\"ab01\" zone=\"b: 0\"/>\\u000a          <ttc code=\"singlev\" point1=\"at01\" point2=\"sv01\"/>\\u000a          <ttc code=\"singlev\" point1=\"ab01\" point2=\"sv02\"/>\\u000a        </ttProgram>\\u000a      </data>
p15
g4
tp16
Rp17
Ntp18
s."
EndChar
StartChar: J
Encoding: 37 74 37
GlifName: J_
Width: 1300
VWidth: 0
Flags: W
LayerCount: 2
Fore
SplineSet
471 1500 m 257
NamedP: "at01"
 1243 1500 l 257
NamedP: "sv01"
 1057 446 l 257
 1041 352 1041 352 997.5 271.5 c 128
 954 191 954 191 884 121 c 257
 851 88 851 88 807.5 62.5 c 128
 764 37 764 37 712.5 19.5 c 128
 661 2 661 2 604 -7.5 c 128
 547 -17 547 -17 489 -17 c 257
NamedP: "ab01"
 392 -17 392 -17 321.5 0.5 c 128
 251 18 251 18 200 48 c 128
 149 78 149 78 113.5 117 c 128
 78 156 78 156 50 200 c 257
 239 400 l 257
 251 382 251 382 270.5 355.5 c 128
 290 329 290 329 320.5 304.5 c 128
 351 280 351 280 396 262 c 128
 441 244 441 244 504 244 c 257
 534 244 534 244 565.5 253.5 c 128
 597 263 597 263 625 286 c 128
 653 309 653 309 674.5 347.5 c 128
 696 386 696 386 706 444 c 257
 827 1132 l 257
 871 1266 l 257
 450 1266 l 257
 471 1500 l 257
NamedP: "at01"
EndSplineSet
PickledDataWithLists: "(dp0
Vcom.adobe.type.autohint
p1
(c_codecs
encode
p2
(Vdata
p3
Vlatin1
p4
tp5
Rp6
g2
(V<data>\\u000a        <hintSetList>\\u000a          <hintset pointTag=\"at01\">\\u000a            <hstem pos=\"-15\" width=\"301\"/>\\u000a            <hstem pos=\"1518\" width=\"-20\"/>\\u000a            <vstem pos=\"528\" width=\"262\"/>\\u000a          </hintset>\\u000a        </hintSetList>\\u000a      </data>
p7
g4
tp8
Rp9
Ntp10
sVcom.fontlab.ttprogram
p11
(g2
(Vdata
p12
g4
tp13
Rp14
g2
(V<data>\\u000a        <ttProgram>\\u000a          <ttc code=\"alignt\" point=\"at01\" zone=\"t: 1\"/>\\u000a          <ttc code=\"alignb\" point=\"ab01\" zone=\"b: 0\"/>\\u000a          <ttc code=\"singlev\" point1=\"at01\" point2=\"sv01\"/>\\u000a        </ttProgram>\\u000a      </data>
p15
g4
tp16
Rp17
Ntp18
s."
EndChar
StartChar: O
Encoding: 48 79 48
GlifName: O_
Width: 1300
VWidth: 0
Flags: W
LayerCount: 2
Fore
SplineSet
514 -17 m 257
NamedP: "ab01"
 416 -17 416 -17 338.5 10.5 c 128
 261 38 261 38 203.5 88.5 c 128
 146 139 146 139 108 209 c 128
 70 279 70 279 51 364.5 c 128
 32 450 32 450 32 547.5 c 128
 32 645 32 645 51 750 c 257
 69 855 69 855 103 952.5 c 128
 137 1050 137 1050 185 1135.5 c 128
 233 1221 233 1221 295 1291 c 128
 357 1361 357 1361 432 1411.5 c 128
 507 1462 507 1462 595.5 1489.5 c 128
 684 1517 684 1517 785 1517 c 257
NamedP: "at01"
 932 1517 932 1517 1033 1456 c 128
 1134 1395 1134 1395 1191 1291 c 128
 1248 1187 1248 1187 1262 1047 c 128
 1276 907 1276 907 1248 750 c 257
 1229 645 1229 645 1195.5 547.5 c 128
 1162 450 1162 450 1114 364.5 c 128
 1066 279 1066 279 1004 209 c 128
 942 139 942 139 866.5 88.5 c 128
 791 38 791 38 702.5 10.5 c 128
 614 -17 614 -17 514 -17 c 257
NamedP: "ab01"
892 721 m 257
 903 783 903 783 911 848 c 128
 919 913 919 913 920.5 974.5 c 128
 922 1036 922 1036 914 1090.5 c 128
 906 1145 906 1145 885 1185.5 c 128
 864 1226 864 1226 828 1250 c 128
 792 1274 792 1274 736 1274 c 257
 684 1274 684 1274 642 1252.5 c 128
 600 1231 600 1231 566.5 1194.5 c 128
 533 1158 533 1158 507.5 1109.5 c 128
 482 1061 482 1061 462.5 1006.5 c 128
 443 952 443 952 429 894.5 c 128
 415 837 415 837 406 783 c 257
 395 720 395 720 387 654.5 c 128
 379 589 379 589 378 527 c 128
 377 465 377 465 385 410.5 c 128
 393 356 393 356 414 315 c 128
 435 274 435 274 471 250 c 128
 507 226 507 226 562 226 c 257
 639 226 639 226 695 273 c 128
 751 320 751 320 790 393 c 128
 829 466 829 466 853.5 553 c 128
 878 640 878 640 892 721 c 257
EndSplineSet
PickledDataWithLists: "(dp0
Vcom.adobe.type.autohint
p1
(c_codecs
encode
p2
(Vdata
p3
Vlatin1
p4
tp5
Rp6
g2
(V<data>\\u000a        <hintSetList>\\u000a          <hintset pointTag=\"ab01\">\\u000a            <hstem pos=\"-16\" width=\"237\"/>\\u000a            <hstem pos=\"1279\" width=\"237\"/>\\u000a            <vstem pos=\"83\" width=\"349\"/>\\u000a            <vstem pos=\"1169\" width=\"349\"/>\\u000a          </hintset>\\u000a        </hintSetList>\\u000a      </data>
p7
g4
tp8
Rp9
Ntp10
sVcom.fontlab.ttprogram
p11
(g2
(Vdata
p12
g4
tp13
Rp14
g2
(V<data>\\u000a        <ttProgram>\\u000a          <ttc code=\"alignt\" point=\"at01\" zone=\"t: 1\"/>\\u000a          <ttc code=\"alignb\" point=\"ab01\" zone=\"b: 0\"/>\\u000a        </ttProgram>\\u000a      </data>
p15
g4
tp16
Rp17
Ntp18
s."
EndChar
StartChar: Q
Encoding: 62 81 62
GlifName: Q_
Width: 1300
VWidth: 0
Flags: W
LayerCount: 2
Fore
SplineSet
398 783 m 257
NamedP: "hr00"
 389 723 389 723 380 659.5 c 128
 371 596 371 596 367.5 535.5 c 128
 364 475 364 475 369 421 c 128
 374 367 374 367 393 326.5 c 128
 412 286 412 286 447.5 262.5 c 128
 483 239 483 239 541 239 c 257
 533 262 533 262 521 298.5 c 128
 509 335 509 335 496.5 374 c 128
 484 413 484 413 472.5 447.5 c 128
 461 482 461 482 455 500 c 257
 700 601 l 257
 797 300 l 257
 832 500 l 257
 850 548 850 548 870.5 609.5 c 128
 891 671 891 671 905 751 c 257
 916 813 916 813 922.5 876 c 128
 929 939 929 939 927.5 997.5 c 128
 926 1056 926 1056 915.5 1107.5 c 128
 905 1159 905 1159 882.5 1197 c 128
 860 1235 860 1235 824 1257 c 128
 788 1279 788 1279 736 1279 c 257
 687 1279 687 1279 645.5 1257.5 c 128
 604 1236 604 1236 569.5 1199 c 128
 535 1162 535 1162 507.5 1112.5 c 128
 480 1063 480 1063 459 1008 c 128
 438 953 438 953 422.5 895 c 128
 407 837 407 837 398 783 c 257
NamedP: "hr00"
1035 -180 m 257
 939 -180 939 -180 869.5 -169.5 c 128
 800 -159 800 -159 748 -129 c 128
 696 -99 696 -99 657 -44 c 128
 618 11 618 11 584 100 c 257
 565 -11 l 257
 539 -14 539 -14 515 -15.5 c 128
 491 -17 491 -17 466 -17 c 257
NamedP: "ab01"
 375 -17 375 -17 304 12 c 128
 233 41 233 41 181 93 c 128
 129 145 129 145 95.5 216.5 c 128
 62 288 62 288 46 373.5 c 128
 30 459 30 459 31.5 554.5 c 128
 33 650 33 650 50 750 c 257
 68 855 68 855 102 952.5 c 128
 136 1050 136 1050 184 1135.5 c 128
 232 1221 232 1221 294 1291 c 128
 356 1361 356 1361 431 1411.5 c 128
 506 1462 506 1462 594.5 1489.5 c 128
 683 1517 683 1517 784 1517 c 257
NamedP: "at01"
 931 1517 931 1517 1032.5 1461 c 128
 1134 1405 1134 1405 1192 1306.5 c 128
 1250 1208 1250 1208 1265 1073 c 128
 1280 938 1280 938 1252 780 c 257
 1236 688 1236 688 1203 592.5 c 128
 1170 497 1170 497 1122.5 410 c 128
 1075 323 1075 323 1013.5 249.5 c 128
 952 176 952 176 879 127 c 257
 892 97 892 97 914 81 c 128
 936 65 936 65 962.5 58.5 c 128
 989 52 989 52 1018.5 51 c 128
 1048 50 1048 50 1075 50 c 257
 1035 -180 l 257
EndSplineSet
PickledDataWithLists: "(dp0
Vcom.adobe.type.autohint
p1
(c_codecs
encode
p2
(Vdata
p3
Vlatin1
p4
tp5
Rp6
g2
(V<data>\\u000a        <hintSetList>\\u000a          <hintset pointTag=\"hr00\">\\u000a            <hstem pos=\"-16\" width=\"237\"/>\\u000a            <hstem pos=\"286\" width=\"212\"/>\\u000a            <hstem pos=\"1279\" width=\"237\"/>\\u000a            <vstem pos=\"83\" width=\"349\"/>\\u000a            <vstem pos=\"1169\" width=\"349\"/>\\u000a          </hintset>\\u000a        </hintSetList>\\u000a      </data>
p7
g4
tp8
Rp9
Ntp10
sVcom.fontlab.ttprogram
p11
(g2
(Vdata
p12
g4
tp13
Rp14
g2
(V<data>\\u000a        <ttProgram>\\u000a          <ttc code=\"alignt\" point=\"at01\" zone=\"t: 1\"/>\\u000a          <ttc code=\"alignb\" point=\"ab01\" zone=\"b: 0\"/>\\u000a        </ttProgram>\\u000a      </data>
p15
g4
tp16
Rp17
Ntp18
s."
EndChar
StartChar: R
Encoding: 63 82 63
GlifName: R_
Width: 1300
VWidth: 0
Flags: W
LayerCount: 2
Fore
SplineSet
491 600 m 257
NamedP: "hr00"
 385 0 l 257
 61 0 l 257
NamedP: "ab01"
 282 1262 l 257
 282 1488 l 257
 327 1493 327 1493 376.5 1498.5 c 128
 426 1504 426 1504 476 1508 c 128
 526 1512 526 1512 575 1514.5 c 128
 624 1517 624 1517 668 1517 c 257
NamedP: "at01"
 795 1517 795 1517 903 1485.5 c 128
 1011 1454 1011 1454 1086 1394.5 c 128
 1161 1335 1161 1335 1196 1250.5 c 128
 1231 1166 1231 1166 1212 1061 c 257
 1197 972 1197 972 1157 901.5 c 128
 1117 831 1117 831 1057 777 c 128
 997 723 997 723 918.5 685 c 128
 840 647 840 647 746 624 c 257
 834 600 l 257
 1136 0 l 257
NamedP: "sv01"
 771 0 l 257
 491 600 l 257
NamedP: "hr00"
582 1121 m 257
 526 800 l 257
 562 800 l 257
 630 800 630 800 686.5 821.5 c 128
 743 843 743 843 785.5 879.5 c 128
 828 916 828 916 855 964.5 c 128
 882 1013 882 1013 891 1066 c 257
 903 1136 903 1136 885 1181 c 128
 867 1226 867 1226 830.5 1251.5 c 128
 794 1277 794 1277 746.5 1286.5 c 128
 699 1296 699 1296 653 1296 c 257
 637 1296 637 1296 623 1295.5 c 128
 609 1295 609 1295 597 1294 c 257
 582 1121 l 257
EndSplineSet
PickledDataWithLists: "(dp0
Vcom.adobe.type.autohint
p1
(c_codecs
encode
p2
(Vdata
p3
Vlatin1
p4
tp5
Rp6
g2
(V<data>\\u000a        <hintSetList>\\u000a          <hintset pointTag=\"hr00\">\\u000a            <hstem pos=\"20\" width=\"-21\"/>\\u000a            <hstem pos=\"583\" width=\"219\"/>\\u000a            <hstem pos=\"1305\" width=\"206\"/>\\u000a            <vstem pos=\"27\" width=\"351\"/>\\u000a            <vstem pos=\"705\" width=\"329\"/>\\u000a          </hintset>\\u000a        </hintSetList>\\u000a      </data>
p7
g4
tp8
Rp9
Ntp10
sVcom.fontlab.ttprogram
p11
(g2
(Vdata
p12
g4
tp13
Rp14
g2
(V<data>\\u000a        <ttProgram>\\u000a          <ttc code=\"alignt\" point=\"at01\" zone=\"t: 1\"/>\\u000a          <ttc code=\"alignb\" point=\"ab01\" zone=\"b: 0\"/>\\u000a          <ttc code=\"singlev\" point1=\"ab01\" point2=\"sv01\"/>\\u000a        </ttProgram>\\u000a      </data>
p15
g4
tp16
Rp17
Ntp18
s."
EndChar
StartChar: S
Encoding: 66 83 66
GlifName: S_
Width: 1300
VWidth: 0
Flags: W
LayerCount: 2
Fore
SplineSet
1048 1178 m 257
NamedP: "hr00"
 1006 1205 1006 1205 972 1223 c 128
 938 1241 938 1241 908 1252.5 c 128
 878 1264 878 1264 850.5 1269 c 128
 823 1274 823 1274 795 1274 c 257
 758 1274 758 1274 720.5 1267 c 128
 683 1260 683 1260 651 1243 c 128
 619 1226 619 1226 595.5 1197.5 c 128
 572 1169 572 1169 565 1125 c 257
 557 1084 557 1084 572.5 1054.5 c 128
 588 1025 588 1025 617 1002 c 128
 646 979 646 979 685.5 960 c 128
 725 941 725 941 766 921 c 257
 859 876 859 876 930 825.5 c 128
 1001 775 1001 775 1045.5 713.5 c 128
 1090 652 1090 652 1106 574.5 c 128
 1122 497 1122 497 1104 398 c 257
 1084 282 1084 282 1022 203 c 128
 960 124 960 124 872 75 c 128
 784 26 784 26 677 4.5 c 128
 570 -17 570 -17 460 -17 c 257
NamedP: "ab01"
 397 -17 397 -17 341 -8 c 128
 285 1 285 1 234 18.5 c 128
 183 36 183 36 135 62 c 128
 87 88 87 88 39 121 c 257
 217 348 l 257
 241 330 241 330 274.5 312 c 128
 308 294 308 294 346 279 c 128
 384 264 384 264 424.5 255 c 128
 465 246 465 246 503 246 c 257
 547 246 547 246 591.5 254 c 128
 636 262 636 262 673.5 282.5 c 128
 711 303 711 303 738 338.5 c 128
 765 374 765 374 775 430 c 257
 785 484 785 484 767.5 523 c 128
 750 562 750 562 715.5 591.5 c 128
 681 621 681 621 635 645 c 128
 589 669 589 669 542 693 c 257
 476 727 476 727 416 770 c 128
 356 813 356 813 313.5 866 c 128
 271 919 271 919 250.5 984 c 128
 230 1049 230 1049 244 1127 c 257
 262 1228 262 1228 317 1301.5 c 128
 372 1375 372 1375 450.5 1423 c 128
 529 1471 529 1471 623.5 1494 c 128
 718 1517 718 1517 814 1517 c 257
NamedP: "at01"
 931 1517 931 1517 1032.5 1480 c 128
 1134 1443 1134 1443 1232 1369 c 257
 1048 1178 l 257
NamedP: "hr00"
EndSplineSet
PickledDataWithLists: "(dp0
Vcom.adobe.type.autohint
p1
(c_codecs
encode
p2
(Vdata
p3
Vlatin1
p4
tp5
Rp6
g2
(V<data>\\u000a        <hintSetList>\\u000a          <hintset pointTag=\"hr00\">\\u000a            <hstem pos=\"-16\" width=\"232\"/>\\u000a            <hstem pos=\"1284\" width=\"232\"/>\\u000a            <vstem pos=\"99\" width=\"346\"/>\\u000a            <vstem pos=\"758\" width=\"346\"/>\\u000a          </hintset>\\u000a        </hintSetList>\\u000a      </data>
p7
g4
tp8
Rp9
Ntp10
sVcom.fontlab.ttprogram
p11
(g2
(Vdata
p12
g4
tp13
Rp14
g2
(V<data>\\u000a        <ttProgram>\\u000a          <ttc code=\"alignt\" point=\"at01\" zone=\"t: 1\"/>\\u000a          <ttc code=\"alignb\" point=\"ab01\" zone=\"b: 0\"/>\\u000a        </ttProgram>\\u000a      </data>
p15
g4
tp16
Rp17
Ntp18
s."
EndChar
StartChar: T
Encoding: 69 84 69
GlifName: T_
Width: 1300
VWidth: 0
Flags: W
LayerCount: 2
Fore
SplineSet
246 0 m 257
NamedP: "hr00"
 471 1272 l 257
 68 1272 l 257
 108 1500 l 257
NamedP: "at01"
 1242 1500 l 257
NamedP: "sv01"
 1202 1272 l 257
 804 1272 l 257
 579 0 l 257
NamedP: "ab01"
 246 0 l 257
NamedP: "hr00"
EndSplineSet
PickledDataWithLists: "(dp0
Vcom.adobe.type.autohint
p1
(c_codecs
encode
p2
(Vdata
p3
Vlatin1
p4
tp5
Rp6
g2
(V<data>\\u000a        <hintSetList>\\u000a          <hintset pointTag=\"hr00\">\\u000a            <hstem pos=\"20\" width=\"-21\"/>\\u000a            <hstem pos=\"1272\" width=\"228\"/>\\u000a            <vstem pos=\"410\" width=\"352\"/>\\u000a          </hintset>\\u000a        </hintSetList>\\u000a      </data>
p7
g4
tp8
Rp9
Ntp10
sVcom.fontlab.ttprogram
p11
(g2
(Vdata
p12
g4
tp13
Rp14
g2
(V<data>\\u000a        <ttProgram>\\u000a          <ttc code=\"alignt\" point=\"at01\" zone=\"t: 1\"/>\\u000a          <ttc code=\"alignb\" point=\"ab01\" zone=\"b: 0\"/>\\u000a          <ttc code=\"singlev\" point1=\"at01\" point2=\"sv01\"/>\\u000a        </ttProgram>\\u000a      </data>
p15
g4
tp16
Rp17
Ntp18
s."
EndChar
StartChar: V
Encoding: 80 86 80
GlifName: V_
Width: 1300
VWidth: 0
Flags: W
LayerCount: 2
Fore
SplineSet
1283 1500 m 257
NamedP: "sv01"
 641 200 l 257
 575 -17 l 257
NamedP: "ab01"
 226 0 l 257
 17 1500 l 257
NamedP: "at01"
 343 1520 l 257
NamedP: "at02"
 451 700 l 257
NamedP: "mh01"
 427 260 l 257
NamedP: "mv01"
 574 700 l 257
 963 1500 l 257
 1283 1500 l 257
NamedP: "sv01"
EndSplineSet
PickledDataWithLists: "(dp0
Vcom.adobe.type.autohint
p1
(c_codecs
encode
p2
(Vdata
p3
Vlatin1
p4
tp5
Rp6
g2
(V<data>\\u000a        <hintSetList>\\u000a          <hintset pointTag=\"sv01\">\\u000a            <hstem pos=\"1\" width=\"-21\"/>\\u000a            <hstem pos=\"1519\" width=\"-20\"/>\\u000a          </hintset>\\u000a        </hintSetList>\\u000a      </data>
p7
g4
tp8
Rp9
Ntp10
sVcom.fontlab.ttprogram
p11
(g2
(Vdata
p12
g4
tp13
Rp14
g2
(V<data>\\u000a        <ttProgram>\\u000a          <ttc code=\"mdeltah\" delta=\"-2\" point=\"mh01\" ppm1=\"16\" ppm2=\"16\"/>\\u000a          <ttc code=\"alignt\" point=\"at01\" zone=\"t: 1\"/>\\u000a          <ttc code=\"alignt\" point=\"at02\" zone=\"t: 1\"/>\\u000a          <ttc code=\"alignb\" point=\"ab01\" zone=\"b: 0\"/>\\u000a          <ttc code=\"singlev\" point1=\"at01\" point2=\"sv01\"/>\\u000a          <ttc code=\"mdeltav\" delta=\"-6\" point=\"mh01\" ppm1=\"16\" ppm2=\"16\"/>\\u000a          <ttc code=\"mdeltav\" delta=\"8\" point=\"mv01\" ppm1=\"16\" ppm2=\"16\"/>\\u000a        </ttProgram>\\u000a      </data>
p15
g4
tp16
Rp17
Ntp18
s."
EndChar
StartChar: W
Encoding: 81 87 81
GlifName: W_
Width: 1300
VWidth: 0
Flags: W
LayerCount: 2
Fore
SplineSet
319 1520 m 257,0,-1
NamedP: "at02"
 333 959 l 257,1,-1
 231 400 l 257,2,-1
 241 400 l 257,3,-1
 348 701 l 257,4,-1
 452 1000 l 257,5,-1
 678 1000 l 257,6,-1
 682 701 l 257,7,-1
 681 400 l 257,8,-1
 691 400 l 257,9,-1
 787 957 l 257,10,-1
 985 1500 l 257,11,-1
 1276 1500 l 257,12,-1
NamedP: "sv01"
 743 0 l 257,13,-1
NamedP: "sv02"
 490 0 l 257,14,-1
 482 300 l 257,15,-1
 504 650 l 257,16,-1
 401 300 l 257,17,-1
 286 0 l 257,18,-1
 30 0 l 257,19,-1
NamedP: "ab01"
 31 1500 l 257,20,-1
NamedP: "at01"
 319 1520 l 257,0,-1
NamedP: "at02"
EndSplineSet
PickledDataWithLists: "(dp0
Vcom.adobe.type.autohint
p1
(c_codecs
encode
p2
(Vdata
p3
Vlatin1
p4
tp5
Rp6
g2
(V<data>\\u000a        <hintSetList>\\u000a          <hintset pointTag=\"at02\">\\u000a            <hstem pos=\"20\" width=\"-21\"/>\\u000a            <hstem pos=\"1519\" width=\"-20\"/>\\u000a          </hintset>\\u000a        </hintSetList>\\u000a      </data>
p7
g4
tp8
Rp9
Ntp10
sVcom.fontlab.ttprogram
p11
(g2
(Vdata
p12
g4
tp13
Rp14
g2
(V<data>\\u000a        <ttProgram>\\u000a          <ttc code=\"alignt\" point=\"at01\" zone=\"t: 1\"/>\\u000a          <ttc code=\"alignt\" point=\"at02\" zone=\"t: 1\"/>\\u000a          <ttc code=\"alignb\" point=\"ab01\" zone=\"b: 0\"/>\\u000a          <ttc code=\"singlev\" point1=\"at01\" point2=\"sv01\"/>\\u000a          <ttc code=\"singlev\" point1=\"ab01\" point2=\"sv02\"/>\\u000a        </ttProgram>\\u000a      </data>
p15
g4
tp16
Rp17
Ntp18
s."
EndChar
StartChar: X
Encoding: 82 88 82
GlifName: X_
Width: 1300
VWidth: 0
Flags: W
LayerCount: 2
Fore
SplineSet
856 0 m 257
NamedP: "hr00"
 642 613 l 257
 602 427 l 257
 352 0 l 257
 30 0 l 257
NamedP: "ab01"
 552 824 l 257
 283 1500 l 257
NamedP: "at01"
 615 1520 l 257
NamedP: "at02"
 796 1050 l 257
 848 1231 l 257
 1013 1500 l 257
 1300 1500 l 257
NamedP: "sv01"
 879 855 l 257
 1196 0 l 257
NamedP: "sv02"
 856 0 l 257
NamedP: "hr00"
EndSplineSet
PickledDataWithLists: "(dp0
Vcom.adobe.type.autohint
p1
(c_codecs
encode
p2
(Vdata
p3
Vlatin1
p4
tp5
Rp6
g2
(V<data>\\u000a        <hintSetList>\\u000a          <hintset pointTag=\"hr00\">\\u000a            <hstem pos=\"76\" width=\"-20\"/>\\u000a            <hstem pos=\"1519\" width=\"-20\"/>\\u000a          </hintset>\\u000a        </hintSetList>\\u000a      </data>
p7
g4
tp8
Rp9
Ntp10
sVcom.fontlab.ttprogram
p11
(g2
(Vdata
p12
g4
tp13
Rp14
g2
(V<data>\\u000a        <ttProgram>\\u000a          <ttc code=\"alignt\" point=\"at01\" zone=\"t: 1\"/>\\u000a          <ttc code=\"alignt\" point=\"at02\" zone=\"t: 1\"/>\\u000a          <ttc code=\"alignb\" point=\"ab01\" zone=\"b: 0\"/>\\u000a          <ttc code=\"singlev\" point1=\"at01\" point2=\"sv01\"/>\\u000a          <ttc code=\"singlev\" point1=\"ab01\" point2=\"sv02\"/>\\u000a        </ttProgram>\\u000a      </data>
p15
g4
tp16
Rp17
Ntp18
s."
EndChar
StartChar: Z
Encoding: 87 90 87
GlifName: Z_
Width: 1300
VWidth: 0
Flags: W
LayerCount: 2
Fore
SplineSet
1100 228 m 257
NamedP: "hr00"
 1087 0 l 257
NamedP: "sv01"
 48 0 l 257
NamedP: "ab01"
 30 86 l 257
 765 1187 l 257
 922 1300 l 257
 787 1272 l 257
 329 1272 l 257
 342 1500 l 257
NamedP: "at01"
 1256 1500 l 257
NamedP: "sv02"
 1287 1442 l 257
 541 314 l 257
 387 200 l 257
 524 228 l 257
 1100 228 l 257
NamedP: "hr00"
EndSplineSet
PickledDataWithLists: "(dp0
Vcom.adobe.type.autohint
p1
(c_codecs
encode
p2
(Vdata
p3
Vlatin1
p4
tp5
Rp6
g2
(V<data>\\u000a        <hintSetList>\\u000a          <hintset pointTag=\"hr00\">\\u000a            <hstem pos=\"0\" width=\"228\"/>\\u000a            <hstem pos=\"1272\" width=\"228\"/>\\u000a          </hintset>\\u000a        </hintSetList>\\u000a      </data>
p7
g4
tp8
Rp9
Ntp10
sVcom.fontlab.ttprogram
p11
(g2
(Vdata
p12
g4
tp13
Rp14
g2
(V<data>\\u000a        <ttProgram>\\u000a          <ttc code=\"alignt\" point=\"at01\" zone=\"t: 1\"/>\\u000a          <ttc code=\"alignb\" point=\"ab01\" zone=\"b: 0\"/>\\u000a          <ttc code=\"singlev\" point1=\"ab01\" point2=\"sv01\"/>\\u000a          <ttc code=\"singlev\" point1=\"at01\" point2=\"sv02\"/>\\u000a        </ttProgram>\\u000a      </data>
p15
g4
tp16
Rp17
Ntp18
s."
EndChar
StartChar: bracketleft
Encoding: 158 91 158
GlifName: bracketleft
Width: 1300
VWidth: 0
Flags: W
LayerCount: 2
Fore
SplineSet
459 1288 m 257
NamedP: "hr00"
 474 1520 l 257
NamedP: "at01"
 1174 1520 l 257
NamedP: "sv01"
 1135 1302 l 257
 785 1302 l 257
 774 1154 l 257
 565 -31 l 257
 524 -179 l 257
 874 -179 l 257
 835 -398 l 257
NamedP: "sv02"
 135 -398 l 257
NamedP: "av01"
 202 -166 l 257
 459 1288 l 257
NamedP: "hr00"
EndSplineSet
PickledDataWithLists: "(dp0
Vcom.adobe.type.autohint
p1
(c_codecs
encode
p2
(Vdata
p3
Vlatin1
p4
tp5
Rp6
g2
(V<data>\\u000a        <hintSetList>\\u000a          <hintset pointTag=\"hr00\">\\u000a            <hstem pos=\"-420\" width=\"150\"/>\\u000a            <hstem pos=\"1370\" width=\"150\"/>\\u000a            <vstem pos=\"122\" width=\"198\"/>\\u000a          </hintset>\\u000a        </hintSetList>\\u000a      </data>
p7
g4
tp8
Rp9
Ntp10
sVcom.fontlab.ttprogram
p11
(g2
(Vdata
p12
g4
tp13
Rp14
g2
(V<data>\\u000a        <ttProgram>\\u000a          <ttc align=\"round\" code=\"alignv\" point=\"av01\"/>\\u000a          <ttc code=\"alignt\" point=\"at01\" zone=\"t: 1\"/>\\u000a          <ttc code=\"singlev\" point1=\"at01\" point2=\"sv01\"/>\\u000a          <ttc code=\"singlev\" point1=\"av01\" point2=\"sv02\"/>\\u000a        </ttProgram>\\u000a      </data>
p15
g4
tp16
Rp17
Ntp18
s."
EndChar
StartChar: bracketright
Encoding: 159 93 159
GlifName: bracketright
Width: 1300
VWidth: 0
Flags: W
LayerCount: 2
Fore
SplineSet
862 -166 m 257
NamedP: "hr00"
 847 -398 l 257
NamedP: "sv01"
 147 -398 l 257
NamedP: "av01"
 186 -179 l 257
 535 -179 l 257
 546 -31 l 257
 755 1154 l 257
 796 1302 l 257
 447 1302 l 257
 486 1520 l 257
NamedP: "at01"
 1186 1520 l 257
NamedP: "sv02"
 1119 1288 l 257
 862 -166 l 257
NamedP: "hr00"
EndSplineSet
PickledDataWithLists: "(dp0
Vcom.adobe.type.autohint
p1
(c_codecs
encode
p2
(Vdata
p3
Vlatin1
p4
tp5
Rp6
g2
(V<data>\\u000a        <hintSetList>\\u000a          <hintset pointTag=\"hr00\">\\u000a            <hstem pos=\"-420\" width=\"150\"/>\\u000a            <hstem pos=\"1370\" width=\"150\"/>\\u000a            <vstem pos=\"480\" width=\"198\"/>\\u000a          </hintset>\\u000a        </hintSetList>\\u000a      </data>
p7
g4
tp8
Rp9
Ntp10
sVcom.fontlab.ttprogram
p11
(g2
(Vdata
p12
g4
tp13
Rp14
g2
(V<data>\\u000a        <ttProgram>\\u000a          <ttc align=\"round\" code=\"alignv\" point=\"av01\"/>\\u000a          <ttc code=\"alignt\" point=\"at01\" zone=\"t: 1\"/>\\u000a          <ttc code=\"singlev\" point1=\"av01\" point2=\"sv01\"/>\\u000a          <ttc code=\"singlev\" point1=\"at01\" point2=\"sv02\"/>\\u000a        </ttProgram>\\u000a      </data>
p15
g4
tp16
Rp17
Ntp18
s."
EndChar
StartChar: grave
Encoding: 268 96 268
GlifName: grave
Width: 1300
VWidth: 0
Flags: W
LayerCount: 2
Fore
SplineSet
1101 1200 m 257,0,-1
NamedP: "ah01"
 886 1200 l 257,1,-1
NamedP: "sh01"
 658 1520 l 257,2,-1
 991 1500 l 257,3,-1
NamedP: "at01"
 1101 1200 l 257,0,-1
NamedP: "ah01"
EndSplineSet
PickledDataWithLists: "(dp0
Vcom.adobe.type.autohint
p1
(c_codecs
encode
p2
(Vdata
p3
Vlatin1
p4
tp5
Rp6
g2
(V<data>\\u000a        <hintSetList>\\u000a          <hintset pointTag=\"ah01\">\\u000a            <hstem pos=\"1221\" width=\"-21\"/>\\u000a            <hstem pos=\"1520\" width=\"-20\"/>\\u000a          </hintset>\\u000a        </hintSetList>\\u000a      </data>
p7
g4
tp8
Rp9
Ntp10
sVcom.fontlab.ttprogram
p11
(g2
(Vdata
p12
g4
tp13
Rp14
g2
(V<data>\\u000a        <ttProgram>\\u000a          <ttc align=\"round\" code=\"alignh\" point=\"ah01\"/>\\u000a          <ttc code=\"singleh\" point1=\"ah01\" point2=\"sh01\" stem=\"X: 190\"/>\\u000a          <ttc align=\"round\" code=\"alignv\" point=\"ah01\"/>\\u000a          <ttc code=\"alignt\" point=\"at01\" zone=\"t: 1\"/>\\u000a        </ttProgram>\\u000a      </data>
p15
g4
tp16
Rp17
Ntp18
s."
EndChar
StartChar: b
Encoding: 130 98 130
GlifName: b
Width: 1300
VWidth: 0
Flags: W
LayerCount: 2
Fore
SplineSet
454 212 m 257
NamedP: "hr00"
 483 207 483 207 515 203.5 c 128
 547 200 547 200 577 200 c 257
 640 200 640 200 687 237.5 c 128
 734 275 734 275 768 333.5 c 128
 802 392 802 392 824 462.5 c 128
 846 533 846 533 857 598 c 257
 872 680 872 680 870.5 737.5 c 128
 869 795 869 795 855.5 831 c 128
 842 867 842 867 818.5 883.5 c 128
 795 900 795 900 767 900 c 257
 706 900 706 900 656.5 879 c 128
 607 858 607 858 563 826 c 257
 454 212 l 257
NamedP: "hr00"
337 1398 m 257
 337 1601 l 257
 705 1632 l 257
NamedP: "av01"
 589 974 l 257
 707 1096 l 257
 738 1104 738 1104 771.5 1110.5 c 128
 805 1117 805 1117 833 1117 c 257
NamedP: "at01"
 925 1117 925 1117 999.5 1082.5 c 128
 1074 1048 1074 1048 1122.5 981.5 c 128
 1171 915 1171 915 1188.5 817 c 128
 1206 719 1206 719 1184 593 c 257
 1160 456 1160 456 1099 343.5 c 128
 1038 231 1038 231 951 151 c 128
 864 71 864 71 756 27 c 128
 648 -17 648 -17 530 -17 c 257
NamedP: "ab01"
 466 -17 466 -17 401.5 -10.5 c 128
 337 -4 337 -4 279.5 6 c 128
 222 16 222 16 175 29 c 128
 128 42 128 42 100 54 c 257
 337 1398 l 257
EndSplineSet
PickledDataWithLists: "(dp0
Vcom.adobe.type.autohint
p1
(c_codecs
encode
p2
(Vdata
p3
Vlatin1
p4
tp5
Rp6
g2
(V<data>\\u000a        <hintSetList>\\u000a          <hintset pointTag=\"hr00\">\\u000a            <hstem pos=\"-17\" width=\"160\"/>\\u000a            <hstem pos=\"957\" width=\"160\"/>\\u000a            <hstem pos=\"1620\" width=\"-20\"/>\\u000a            <vstem pos=\"101\" width=\"190\"/>\\u000a            <vstem pos=\"811\" width=\"190\"/>\\u000a          </hintset>\\u000a        </hintSetList>\\u000a      </data>
p7
g4
tp8
Rp9
Ntp10
sVcom.fontlab.ttprogram
p11
(g2
(Vdata
p12
g4
tp13
Rp14
g2
(V<data>\\u000a        <ttProgram>\\u000a          <ttc align=\"round\" code=\"alignv\" point=\"av01\"/>\\u000a          <ttc code=\"alignt\" point=\"at01\" zone=\"t: x\"/>\\u000a          <ttc code=\"alignb\" point=\"ab01\" zone=\"b: 0\"/>\\u000a        </ttProgram>\\u000a      </data>
p15
g4
tp16
Rp17
Ntp18
s."
EndChar
StartChar: c
Encoding: 164 99 164
GlifName: c
Width: 1300
VWidth: 0
Flags: W
LayerCount: 2
Fore
SplineSet
1007 772 m 257
NamedP: "hr00"
 970 833 970 833 916 859 c 128
 862 885 862 885 785 885 c 257
 724 885 724 885 663.5 861.5 c 128
 603 838 603 838 552.5 795 c 128
 502 752 502 752 465.5 690.5 c 128
 429 629 429 629 416 553 c 257
 404 484 404 484 420.5 425.5 c 128
 437 367 437 367 473.5 325 c 128
 510 283 510 283 561.5 259.5 c 128
 613 236 613 236 671 236 c 257
 723 236 723 236 767 245.5 c 128
 811 255 811 255 848 271.5 c 128
 885 288 885 288 914 309 c 128
 943 330 943 330 965 353 c 257
 1051 137 l 257
 1030 121 1030 121 990 95 c 128
 950 69 950 69 892.5 44 c 128
 835 19 835 19 760 1 c 128
 685 -17 685 -17 594 -17 c 257
NamedP: "ab01"
 461 -17 461 -17 360.5 29 c 128
 260 75 260 75 196.5 153.5 c 128
 133 232 133 232 109.5 336 c 128
 86 440 86 440 106 555 c 257
 118 624 118 624 142.5 693 c 128
 167 762 167 762 206 824.5 c 128
 245 887 245 887 300 940.5 c 128
 355 994 355 994 427.5 1033 c 128
 500 1072 500 1072 592 1094.5 c 128
 684 1117 684 1117 797 1117 c 257
NamedP: "at01"
 931 1117 931 1117 1034.5 1079.5 c 128
 1138 1042 1138 1042 1201 957 c 257
 1007 772 l 257
NamedP: "hr00"
EndSplineSet
PickledDataWithLists: "(dp0
Vcom.adobe.type.autohint
p1
(c_codecs
encode
p2
(Vdata
p3
Vlatin1
p4
tp5
Rp6
g2
(V<data>\\u000a        <hintSetList>\\u000a          <hintset pointTag=\"hr00\">\\u000a            <hstem pos=\"-16\" width=\"232\"/>\\u000a            <hstem pos=\"892\" width=\"224\"/>\\u000a            <vstem pos=\"36\" width=\"331\"/>\\u000a          </hintset>\\u000a        </hintSetList>\\u000a      </data>
p7
g4
tp8
Rp9
Ntp10
sVcom.fontlab.ttprogram
p11
(g2
(Vdata
p12
g4
tp13
Rp14
g2
(V<data>\\u000a        <ttProgram>\\u000a          <ttc code=\"alignt\" point=\"at01\" zone=\"t: x\"/>\\u000a          <ttc code=\"alignb\" point=\"ab01\" zone=\"b: 0\"/>\\u000a        </ttProgram>\\u000a      </data>
p15
g4
tp16
Rp17
Ntp18
s."
EndChar
StartChar: d
Encoding: 202 100 202
GlifName: d
Width: 1300
VWidth: 0
Flags: W
LayerCount: 2
Fore
SplineSet
796 900 m 257,0,-1
NamedP: "hr00"
 727 900 l 257,1,2
 661 900 661 900 606.5 869 c 128,-1,3
 552 838 552 838 511 785 c 128,-1,4
 470 732 470 732 442 662 c 128,-1,5
 414 592 414 592 401 515 c 257,6,7
 388 441 388 441 389.5 383 c 128,-1,8
 391 325 391 325 405 284 c 128,-1,9
 419 243 419 243 444.5 221.5 c 128,-1,10
 470 200 470 200 505 200 c 257,11,12
 541 200 541 200 570 210.5 c 128,-1,13
 599 221 599 221 622 237.5 c 128,-1,14
 645 254 645 254 662.5 275 c 128,-1,15
 680 296 680 296 693 316 c 257,16,-1
 796 900 l 257,0,-1
NamedP: "hr00"
637 0 m 257,17,-1
NamedP: "ab02"
 666 162 l 257,18,-1
 510 -10 l 257,19,20
 502 -12 502 -12 495 -13 c 128,-1,21
 488 -14 488 -14 478 -15 c 128,-1,22
 468 -16 468 -16 454.5 -16.5 c 128,-1,23
 441 -17 441 -17 420 -17 c 257,24,25
NamedP: "ab01"
 328 -17 328 -17 255.5 23.5 c 128,-1,26
 183 64 183 64 136.5 137 c 128,-1,27
 90 210 90 210 73.5 309.5 c 128,-1,28
 57 409 57 409 78 528 c 257,29,30
 99 647 99 647 158.5 751.5 c 128,-1,31
 218 856 218 856 307.5 933.5 c 128,-1,32
 397 1011 397 1011 512.5 1055.5 c 128,-1,33
 628 1100 628 1100 761 1100 c 257,34,-1
NamedP: "at01"
 831 1100 l 257,35,-1
NamedP: "sv01"
 925 1632 l 257,36,-1
NamedP: "av01"
 1245 1600 l 257,37,-1
 1000 209 l 257,38,-1
 985 0 l 257,39,-1
NamedP: "sv02"
 637 0 l 257,17,-1
NamedP: "ab02"
EndSplineSet
PickledDataWithLists: "(dp0
Vcom.adobe.type.autohint
p1
(c_codecs
encode
p2
(Vdata
p3
Vlatin1
p4
tp5
Rp6
g2
(V<data>\\u000a        <hintSetList>\\u000a          <hintset pointTag=\"hr00\">\\u000a            <hstem pos=\"-17\" width=\"161\"/>\\u000a            <hstem pos=\"940\" width=\"160\"/>\\u000a            <hstem pos=\"1620\" width=\"-20\"/>\\u000a            <vstem pos=\"12\" width=\"189\"/>\\u000a            <vstem pos=\"711\" width=\"190\"/>\\u000a          </hintset>\\u000a        </hintSetList>\\u000a      </data>
p7
g4
tp8
Rp9
Ntp10
sVcom.fontlab.ttprogram
p11
(g2
(Vdata
p12
g4
tp13
Rp14
g2
(V<data>\\u000a        <ttProgram>\\u000a          <ttc align=\"round\" code=\"alignv\" point=\"av01\"/>\\u000a          <ttc code=\"alignt\" point=\"at01\" zone=\"t: x\"/>\\u000a          <ttc code=\"alignb\" point=\"ab01\" zone=\"b: 0\"/>\\u000a          <ttc code=\"alignb\" point=\"ab02\" zone=\"b: 0\"/>\\u000a          <ttc code=\"singlev\" point1=\"at01\" point2=\"sv01\"/>\\u000a          <ttc code=\"singlev\" point1=\"ab02\" point2=\"sv02\"/>\\u000a        </ttProgram>\\u000a      </data>
p15
g4
tp16
Rp17
Ntp18
s."
EndChar
StartChar: e
Encoding: 220 101 220
GlifName: e
Width: 1300
VWidth: 0
Flags: W
LayerCount: 2
Fore
SplineSet
1078 158 m 257
NamedP: "hr00"
 1032 121 1032 121 980 89.5 c 128
 928 58 928 58 868 34.5 c 128
 808 11 808 11 738 -2.5 c 128
 668 -16 668 -16 586 -16 c 257
NamedP: "ab01"
 442 -16 442 -16 340.5 31 c 128
 239 78 239 78 179 156.5 c 128
 119 235 119 235 99.5 337 c 128
 80 439 80 439 100 550 c 257
 112 621 112 621 138 690.5 c 128
 164 760 164 760 203.5 823 c 128
 243 886 243 886 297 939.5 c 128
 351 993 351 993 419.5 1032.5 c 128
 488 1072 488 1072 571 1094.5 c 128
 654 1117 654 1117 752 1117 c 257
NamedP: "at01"
 872 1117 872 1117 960 1081.5 c 128
 1048 1046 1048 1046 1101.5 982 c 128
 1155 918 1155 918 1173.5 829 c 128
 1192 740 1192 740 1173 632 c 257
 1168 605 1168 605 1157 561 c 128
 1146 517 1146 517 1132 466 c 257
NamedP: "sv01"
 395 466 l 257
NamedP: "av01"
 387 412 387 412 393.5 365 c 128
 400 318 400 318 428 283.5 c 128
 456 249 456 249 508 229.5 c 128
 560 210 560 210 644 210 c 257
 696 210 696 210 736.5 221.5 c 128
 777 233 777 233 808 248.5 c 128
 839 264 839 264 862 281 c 128
 885 298 885 298 901 310 c 257
 1078 158 l 257
NamedP: "hr00"
886 672 m 257
 894 718 894 718 888 759 c 128
 882 800 882 800 861 831.5 c 128
 840 863 840 863 804.5 881.5 c 128
 769 900 769 900 718 900 c 257
 667 900 667 900 629.5 885 c 128
 592 870 592 870 564.5 847.5 c 128
 537 825 537 825 519 800 c 128
 501 775 501 775 490 756 c 257
 381 653 l 257
 557 671 l 257
 886 672 l 257
EndSplineSet
PickledDataWithLists: "(dp0
Vcom.adobe.type.autohint
p1
(c_codecs
encode
p2
(Vdata
p3
Vlatin1
p4
tp5
Rp6
g2
(V<data>\\u000a        <hintSetList>\\u000a          <hintset pointTag=\"hr00\">\\u000a            <hstem pos=\"-17\" width=\"160\"/>\\u000a            <hstem pos=\"500\" width=\"150\"/>\\u000a            <hstem pos=\"958\" width=\"159\"/>\\u000a            <vstem pos=\"100\" width=\"190\"/>\\u000a            <vstem pos=\"802\" width=\"188\"/>\\u000a          </hintset>\\u000a        </hintSetList>\\u000a      </data>
p7
g4
tp8
Rp9
Ntp10
sVcom.fontlab.ttprogram
p11
(g2
(Vdata
p12
g4
tp13
Rp14
g2
(V<data>\\u000a        <ttProgram>\\u000a          <ttc align=\"round\" code=\"alignv\" point=\"av01\"/>\\u000a          <ttc code=\"alignt\" point=\"at01\" zone=\"t: x\"/>\\u000a          <ttc code=\"alignb\" point=\"ab01\" zone=\"b: 0\"/>\\u000a          <ttc code=\"singlev\" point1=\"av01\" point2=\"sv01\"/>\\u000a        </ttProgram>\\u000a      </data>
p15
g4
tp16
Rp17
Ntp18
s."
EndChar
StartChar: f
Encoding: 245 102 245
GlifName: f
Width: 1300
VWidth: 0
Flags: W
LayerCount: 2
Fore
SplineSet
487 876 m 257
NamedP: "hr00"
 231 876 l 257
 270 1100 l 257
NamedP: "at01"
 526 1100 l 257
 551 1242 l 257
 570 1339 570 1339 603.5 1412 c 128
 637 1485 637 1485 689 1533 c 128
 741 1581 741 1581 814 1602 c 128
 887 1623 887 1623 985 1617 c 257
NamedP: "av01"
 1037 1614 1037 1614 1082.5 1601.5 c 128
 1128 1589 1128 1589 1165 1572.5 c 128
 1202 1556 1202 1556 1231.5 1537 c 128
 1261 1518 1261 1518 1282 1501 c 257
 1118 1341 l 257
 1089 1361 1089 1361 1055 1374.5 c 128
 1021 1388 1021 1388 977 1393 c 257
 951 1396 951 1396 930 1389.5 c 128
 909 1383 909 1383 893.5 1364 c 128
 878 1345 878 1345 866.5 1313 c 128
 855 1281 855 1281 847 1233 c 257
 823 1100 l 257
 1120 1100 l 257
NamedP: "sv01"
 1054 876 l 257
 798 876 l 257
 644 0 l 257
 624 -112 624 -112 596 -195.5 c 128
 568 -279 568 -279 520.5 -333 c 128
 473 -387 473 -387 399.5 -411 c 128
 326 -435 326 -435 214 -428 c 257
NamedP: "av02"
 177 -426 177 -426 145 -419.5 c 128
 113 -413 113 -413 87.5 -405.5 c 128
 62 -398 62 -398 44 -390 c 128
 26 -382 26 -382 16 -376 c 257
 106 -179 l 257
 107 -179 107 -179 107.5 -179.5 c 128
 108 -180 108 -180 109 -180 c 257
 128 -188 128 -188 151.5 -196 c 128
 175 -204 175 -204 201 -202 c 257
 229 -199 229 -199 250 -184 c 128
 271 -169 271 -169 286 -142.5 c 128
 301 -116 301 -116 312 -80 c 128
 323 -44 323 -44 333 0 c 257
 487 876 l 257
NamedP: "hr00"
EndSplineSet
PickledDataWithLists: "(dp0
Vcom.adobe.type.autohint
p1
(c_codecs
encode
p2
(Vdata
p3
Vlatin1
p4
tp5
Rp6
g2
(V<data>\\u000a        <hintSetList>\\u000a          <hintset pointTag=\"hr00\">\\u000a            <hstem pos=\"20\" width=\"-21\"/>\\u000a            <hstem pos=\"876\" width=\"224\"/>\\u000a            <hstem pos=\"1358\" width=\"224\"/>\\u000a            <vstem pos=\"134\" width=\"326\"/>\\u000a          </hintset>\\u000a        </hintSetList>\\u000a      </data>
p7
g4
tp8
Rp9
Ntp10
sVcom.fontlab.ttprogram
p11
(g2
(Vdata
p12
g4
tp13
Rp14
g2
(V<data>\\u000a        <ttProgram>\\u000a          <ttc align=\"round\" code=\"alignv\" point=\"av01\"/>\\u000a          <ttc align=\"round\" code=\"alignv\" point=\"av02\"/>\\u000a          <ttc code=\"alignt\" point=\"at01\" zone=\"t: x\"/>\\u000a          <ttc code=\"singlev\" point1=\"at01\" point2=\"sv01\"/>\\u000a        </ttProgram>\\u000a      </data>
p15
g4
tp16
Rp17
Ntp18
sVcom.typemytype.robofont.guides
p19
(lp20
(dp21
Vangle
p22
I0
sVisGlobal
p23
I00
sVmagnetic
p24
I5
sVx
p25
I0
sVy
p26
I3298
sas."
EndChar
StartChar: i
Encoding: 285 105 285
GlifName: i
Width: 1300
VWidth: 0
Flags: W
LayerCount: 2
Fore
SplineSet
588 1501 m 257
NamedP: "at01"
 925 1501 l 257
NamedP: "sv01"
 879 1240 l 257
 542 1240 l 257
NamedP: "mv01"
 588 1501 l 257
NamedP: "at01"
570 920 m 257
 406 876 l 257
 212 876 l 257
 212 1100 l 257
NamedP: "at02"
 854 1100 l 257
NamedP: "sv02"
 729 423 l 257
 722 384 722 384 727.5 349.5 c 128
 733 315 733 315 748.5 290 c 128
 764 265 764 265 788 250.5 c 128
 812 236 812 236 842 236 c 257
 875 236 875 236 903.5 241.5 c 128
 932 247 932 247 959.5 258 c 128
 987 269 987 269 1014.5 287 c 128
 1042 305 1042 305 1072 330 c 257
 1090 98 l 257
 1075 87 1075 87 1050 68 c 128
 1025 49 1025 49 987.5 30 c 128
 950 11 950 11 897.5 -3 c 128
 845 -17 845 -17 774 -17 c 257
NamedP: "ab01"
 659 -17 659 -17 581.5 19 c 128
 504 55 504 55 460.5 116.5 c 128
 417 178 417 178 405 259.5 c 128
 393 341 393 341 409 432 c 257
 473 800 l 257
 570 920 l 257
EndSplineSet
PickledDataWithLists: "(dp0
Vcom.adobe.type.autohint
p1
(c_codecs
encode
p2
(Vdata
p3
Vlatin1
p4
tp5
Rp6
g2
(V<data>\\u000a        <hintSetList>\\u000a          <hintset pointTag=\"at01\">\\u000a            <hstem pos=\"21\" width=\"-21\"/>\\u000a            <hstem pos=\"1300\" width=\"200\"/>\\u000a            <vstem pos=\"201\" width=\"190\"/>\\u000a          </hintset>\\u000a        </hintSetList>\\u000a      </data>
p7
g4
tp8
Rp9
Ntp10
sVcom.fontlab.ttprogram
p11
(g2
(Vdata
p12
g4
tp13
Rp14
g2
(V<data>\\u000a        <ttProgram>\\u000a          <ttc code=\"alignt\" point=\"at01\" zone=\"t: 1\"/>\\u000a          <ttc code=\"alignt\" point=\"at02\" zone=\"t: x\"/>\\u000a          <ttc code=\"alignb\" point=\"ab01\" zone=\"b: 0\"/>\\u000a          <ttc code=\"singlev\" point1=\"at01\" point2=\"sv01\"/>\\u000a          <ttc code=\"mdeltav\" delta=\"2\" point=\"mv01\" ppm1=\"12\" ppm2=\"12\"/>\\u000a          <ttc code=\"singlev\" point1=\"at02\" point2=\"sv02\"/>\\u000a        </ttProgram>\\u000a      </data>
p15
g4
tp16
Rp17
Ntp18
s."
EndChar
StartChar: j
Encoding: 298 106 298
GlifName: j
Width: 1300
VWidth: 0
Flags: W
LayerCount: 2
Fore
SplineSet
855 1501 m 257,0,-1
NamedP: "at02"
 1192 1501 l 257,1,-1
NamedP: "sv01"
 1146 1240 l 257,2,-1
NamedP: "mv01"
 809 1240 l 257,3,-1
 855 1501 l 257,0,-1
NamedP: "at02"
834 920 m 257,4,-1
 670 876 l 257,5,-1
 475 876 l 257,6,-1
 476 1100 l 257,7,-1
NamedP: "at01"
 1117 1100 l 257,8,-1
NamedP: "sv02"
 911 -68 l 257,9,10
 895 -159 895 -159 854 -240.5 c 128,-1,11
 813 -322 813 -322 748 -383.5 c 128,-1,12
 683 -445 683 -445 593 -481 c 128,-1,13
 503 -517 503 -517 388 -517 c 257,14,15
NamedP: "ab01"
 317 -517 317 -517 269 -503 c 128,-1,16
 221 -489 221 -489 190 -470 c 128,-1,17
 159 -451 159 -451 141.5 -432 c 128,-1,18
 124 -413 124 -413 112 -402 c 257,19,-1
 212 -170 l 257,20,21
 255 -220 255 -220 301 -242 c 128,-1,22
 347 -264 347 -264 413 -264 c 257,23,24
 443 -264 443 -264 470 -250 c 128,-1,25
 497 -236 497 -236 519.5 -211.5 c 128,-1,26
 542 -187 542 -187 558.5 -152.5 c 128,-1,27
 575 -118 575 -118 582 -77 c 257,28,-1
 737 800 l 257,29,-1
 834 920 l 257,4,-1
EndSplineSet
PickledDataWithLists: "(dp0
Vcom.adobe.type.autohint
p1
(c_codecs
encode
p2
(Vdata
p3
Vlatin1
p4
tp5
Rp6
g2
(V<data>\\u000a        <hintSetList>\\u000a          <hintset pointTag=\"at02\">\\u000a            <hstem pos=\"-482\" width=\"224\"/>\\u000a            <hstem pos=\"1212\" width=\"261\"/>\\u000a            <vstem pos=\"39\" width=\"326\"/>\\u000a          </hintset>\\u000a        </hintSetList>\\u000a      </data>
p7
g4
tp8
Rp9
Ntp10
sVcom.fontlab.ttprogram
p11
(g2
(Vdata
p12
g4
tp13
Rp14
g2
(V<data>\\u000a        <ttProgram>\\u000a          <ttc code=\"alignt\" point=\"at01\" zone=\"t: x\"/>\\u000a          <ttc code=\"alignt\" point=\"at02\" zone=\"t: 1\"/>\\u000a          <ttc code=\"alignb\" point=\"ab01\" zone=\"b: -500\"/>\\u000a          <ttc code=\"singlev\" point1=\"at02\" point2=\"sv01\"/>\\u000a          <ttc code=\"mdeltav\" delta=\"2\" point=\"mv01\" ppm1=\"12\" ppm2=\"12\"/>\\u000a          <ttc code=\"singlev\" point1=\"at01\" point2=\"sv02\"/>\\u000a        </ttProgram>\\u000a      </data>
p15
g4
tp16
Rp17
Ntp18
s."
EndChar
StartChar: m
Encoding: 317 109 317
GlifName: m
Width: 1300
VWidth: 0
Flags: W
LayerCount: 2
Fore
SplineSet
286 0 m 257
NamedP: "mh01"
 -28 0 l 257
NamedP: "mh02"
 165 1100 l 257
 483 1120 l 257
NamedP: "at01"
 462 1000 l 257
 557 1100 l 257
 562 1103 562 1103 572 1106 c 128
 582 1109 582 1109 594 1111.5 c 128
 606 1114 606 1114 618.5 1115.5 c 128
 631 1117 631 1117 640 1117 c 257
NamedP: "at02"
 688 1117 688 1117 722 1113.5 c 128
 756 1110 756 1110 780.5 1101 c 128
 805 1092 805 1092 822 1077 c 128
 839 1062 839 1062 854 1039 c 257
 876 1052 876 1052 904.5 1065.5 c 128
 933 1079 933 1079 964.5 1090.5 c 128
 996 1102 996 1102 1029 1109.5 c 128
 1062 1117 1062 1117 1093 1117 c 257
NamedP: "at03"
 1190 1117 1190 1117 1241.5 1090 c 128
 1293 1063 1293 1063 1313 1013.5 c 128
 1333 964 1333 964 1328.5 893.5 c 128
 1324 823 1324 823 1308 736 c 257
 1179 0 l 257
NamedP: "mh03"
 864 0 l 257
NamedP: "mh04"
 992 727 l 257
 999 768 999 768 1003.5 797.5 c 128
 1008 827 1008 827 1007 846.5 c 128
 1006 866 1006 866 998 875.5 c 128
 990 885 990 885 972 885 c 257
 955 885 955 885 938.5 878 c 128
 922 871 922 871 907 859 c 128
 892 847 892 847 881 831.5 c 128
 870 816 870 816 864 798 c 257
 863 791 863 791 861.5 778.5 c 128
 860 766 860 766 857.5 753.5 c 128
 855 741 855 741 853.5 730 c 128
 852 719 852 719 851 715 c 257
 725 0 l 257
NamedP: "mh05"
 421 0 l 257
NamedP: "mh06"
 546 708 l 257
 553 750 553 750 557 783 c 128
 561 816 561 816 560 838.5 c 128
 559 861 559 861 552 873 c 128
 545 885 545 885 529 885 c 257
 500 885 500 885 472 866 c 128
 444 847 444 847 427 804 c 257
 286 0 l 257
NamedP: "mh01"
EndSplineSet
PickledDataWithLists: "(dp0
Vcom.adobe.type.autohint
p1
(c_codecs
encode
p2
(Vdata
p3
Vlatin1
p4
tp5
Rp6
g2
(V<data>\\u000a        <hintSetList>\\u000a          <hintset pointTag=\"mh01\">\\u000a            <hstem pos=\"20\" width=\"-21\"/>\\u000a            <hstem pos=\"892\" width=\"224\"/>\\u000a            <vstem pos=\"134\" width=\"326\"/>\\u000a            <vstem pos=\"703\" width=\"326\"/>\\u000a            <vstem pos=\"1253\" width=\"326\"/>\\u000a          </hintset>\\u000a        </hintSetList>\\u000a      </data>
p7
g4
tp8
Rp9
Ntp10
sVcom.fontlab.ttprogram
p11
(g2
(Vdata
p12
g4
tp13
Rp14
g2
(V<data>\\u000a        <ttProgram>\\u000a          <ttc code=\"mdeltah\" delta=\"-2\" point=\"mh01\" ppm1=\"12\" ppm2=\"12\"/>\\u000a          <ttc code=\"mdeltah\" delta=\"3\" point=\"mh02\" ppm1=\"12\" ppm2=\"12\"/>\\u000a          <ttc code=\"mdeltah\" delta=\"-1\" point=\"mh03\" ppm1=\"12\" ppm2=\"12\"/>\\u000a          <ttc code=\"mdeltah\" delta=\"2\" point=\"mh04\" ppm1=\"12\" ppm2=\"12\"/>\\u000a          <ttc code=\"mdeltah\" delta=\"-2\" point=\"mh05\" ppm1=\"12\" ppm2=\"12\"/>\\u000a          <ttc code=\"mdeltah\" delta=\"3\" point=\"mh06\" ppm1=\"12\" ppm2=\"12\"/>\\u000a          <ttc code=\"alignt\" point=\"at01\" zone=\"t: x\"/>\\u000a          <ttc code=\"alignt\" point=\"at02\" zone=\"t: x\"/>\\u000a          <ttc code=\"alignt\" point=\"at03\" zone=\"t: x\"/>\\u000a          <ttc code=\"alignb\" point=\"mh02\" zone=\"b: 0\"/>\\u000a          <ttc code=\"singlev\" point1=\"mh02\" point2=\"mh01\"/>\\u000a          <ttc code=\"singlev\" point1=\"mh01\" point2=\"mh06\"/>\\u000a          <ttc code=\"singlev\" point1=\"mh06\" point2=\"mh05\"/>\\u000a          <ttc code=\"singlev\" point1=\"mh05\" point2=\"mh04\"/>\\u000a          <ttc code=\"singlev\" point1=\"mh04\" point2=\"mh03\"/>\\u000a        </ttProgram>\\u000a      </data>
p15
g4
tp16
Rp17
Ntp18
s."
EndChar
StartChar: n
Encoding: 326 110 326
GlifName: n
Width: 1300
VWidth: 0
Flags: W
LayerCount: 2
Fore
SplineSet
412 0 m 257
NamedP: "hr00"
 95 0 l 257
NamedP: "ab01"
 289 1100 l 257
 609 1120 l 257
NamedP: "at01"
 588 1000 l 257
 683 1100 l 257
 722 1110 722 1110 766.5 1113.5 c 128
 811 1117 811 1117 869 1117 c 257
NamedP: "at02"
 960 1117 960 1117 1028 1090 c 128
 1096 1063 1096 1063 1138 1013.5 c 128
 1180 964 1180 964 1194.5 893.5 c 128
 1209 823 1209 823 1193 736 c 257
 1064 0 l 257
NamedP: "sv01"
 747 0 l 257
 876 736 l 257
 883 777 883 777 876.5 806.5 c 128
 870 836 870 836 853 855 c 128
 836 874 836 874 811.5 883 c 128
 787 892 787 892 759 892 c 257
 696 892 696 892 648.5 871.5 c 128
 601 851 601 851 554 808 c 257
 412 0 l 257
NamedP: "hr00"
EndSplineSet
PickledDataWithLists: "(dp0
Vcom.adobe.type.autohint
p1
(c_codecs
encode
p2
(Vdata
p3
Vlatin1
p4
tp5
Rp6
g2
(V<data>\\u000a        <hintSetList>\\u000a          <hintset pointTag=\"hr00\">\\u000a            <hstem pos=\"20\" width=\"-21\"/>\\u000a            <hstem pos=\"892\" width=\"224\"/>\\u000a            <vstem pos=\"135\" width=\"326\"/>\\u000a            <vstem pos=\"703\" width=\"327\"/>\\u000a          </hintset>\\u000a        </hintSetList>\\u000a      </data>
p7
g4
tp8
Rp9
Ntp10
sVcom.fontlab.ttprogram
p11
(g2
(Vdata
p12
g4
tp13
Rp14
g2
(V<data>\\u000a        <ttProgram>\\u000a          <ttc code=\"alignt\" point=\"at01\" zone=\"t: x\"/>\\u000a          <ttc code=\"alignt\" point=\"at02\" zone=\"t: x\"/>\\u000a          <ttc code=\"alignb\" point=\"ab01\" zone=\"b: 0\"/>\\u000a          <ttc code=\"singlev\" point1=\"ab01\" point2=\"sv01\"/>\\u000a        </ttProgram>\\u000a      </data>
p15
g4
tp16
Rp17
Ntp18
s."
EndChar
StartChar: p
Encoding: 360 112 360
GlifName: p
Width: 1300
VWidth: 0
Flags: W
LayerCount: 2
Fore
SplineSet
486 200 m 257
NamedP: "hr00"
 564 200 l 257
 631 200 631 200 695.5 229.5 c 128
 760 259 760 259 813.5 310 c 128
 867 361 867 361 904.5 429.5 c 128
 942 498 942 498 956 576 c 257
 971 657 971 657 965 718 c 128
 959 779 959 779 936.5 819.5 c 128
 914 860 914 860 878 880 c 128
 842 900 842 900 797 900 c 257
 770 900 770 900 742 892 c 128
 714 884 714 884 687.5 871.5 c 128
 661 859 661 859 637 843 c 128
 613 827 613 827 594 811 c 257
 486 200 l 257
NamedP: "hr00"
37 -500 m 257
NamedP: "ab01"
 319 1100 l 257
 648 1120 l 257
NamedP: "at02"
 617 944 l 257
 771 1110 l 257
 792 1113 792 1113 815 1115 c 128
 838 1117 838 1117 862 1117 c 257
NamedP: "at01"
 955 1117 955 1117 1036 1078 c 128
 1117 1039 1117 1039 1172.5 966.5 c 128
 1228 894 1228 894 1251 792 c 128
 1274 690 1274 690 1252 564 c 257
 1231 441 1231 441 1164 337.5 c 128
 1097 234 1097 234 998 159 c 128
 899 84 899 84 774 42 c 128
 649 0 649 0 512 0 c 257
NamedP: "sv01"
 451 0 l 257
NamedP: "ab02"
 363 -500 l 257
NamedP: "sv02"
 37 -500 l 257
NamedP: "ab01"
EndSplineSet
PickledDataWithLists: "(dp0
Vcom.adobe.type.autohint
p1
(c_codecs
encode
p2
(Vdata
p3
Vlatin1
p4
tp5
Rp6
g2
(V<data>\\u000a        <hintSetList>\\u000a          <hintset pointTag=\"hr00\">\\u000a            <hstem pos=\"-479\" width=\"-21\"/>\\u000a            <hstem pos=\"0\" width=\"160\"/>\\u000a            <hstem pos=\"957\" width=\"160\"/>\\u000a            <vstem pos=\"200\" width=\"190\"/>\\u000a            <vstem pos=\"910\" width=\"190\"/>\\u000a          </hintset>\\u000a        </hintSetList>\\u000a      </data>
p7
g4
tp8
Rp9
Ntp10
sVcom.fontlab.ttprogram
p11
(g2
(Vdata
p12
g4
tp13
Rp14
g2
(V<data>\\u000a        <ttProgram>\\u000a          <ttc code=\"alignt\" point=\"at01\" zone=\"t: x\"/>\\u000a          <ttc code=\"alignt\" point=\"at02\" zone=\"t: x\"/>\\u000a          <ttc code=\"alignb\" point=\"ab01\" zone=\"b: -500\"/>\\u000a          <ttc code=\"alignb\" point=\"ab02\" zone=\"b: 0\"/>\\u000a          <ttc code=\"singlev\" point1=\"ab02\" point2=\"sv01\"/>\\u000a          <ttc code=\"singlev\" point1=\"ab01\" point2=\"sv02\"/>\\u000a        </ttProgram>\\u000a      </data>
p15
g4
tp16
Rp17
Ntp18
s."
EndChar
StartChar: q
Encoding: 392 113 392
GlifName: q
Width: 1300
VWidth: 0
Flags: W
LayerCount: 2
Fore
SplineSet
861 891 m 257
NamedP: "hr00"
 832 895 832 895 804 897.5 c 128
 776 900 776 900 738 900 c 257
 696 900 696 900 658 884 c 128
 620 868 620 868 587 841 c 128
 554 814 554 814 526 777.5 c 128
 498 741 498 741 476 699.5 c 128
 454 658 454 658 439 613.5 c 128
 424 569 424 569 416 526 c 257
 401 442 401 442 408.5 381 c 128
 416 320 416 320 438 279.5 c 128
 460 239 460 239 494.5 219.5 c 128
 529 200 529 200 568 200 c 257
 604 200 604 200 631 205.5 c 128
 658 211 658 211 679 221.5 c 128
 700 232 700 232 717.5 246 c 128
 735 260 735 260 753 278 c 257
 861 891 l 257
NamedP: "hr00"
728 136 m 257
 586 -8 l 257
 536 -17 536 -17 492 -17 c 257
NamedP: "ab02"
 400 -17 400 -17 318 20.5 c 128
 236 58 236 58 179 128 c 128
 122 198 122 198 97 299 c 128
 72 400 72 400 95 526 c 257
 119 663 119 663 184.5 772.5 c 128
 250 882 250 882 342.5 958.5 c 128
 435 1035 435 1035 548 1076 c 128
 661 1117 661 1117 780 1117 c 257
NamedP: "at01"
 844 1117 844 1117 910.5 1108 c 128
 977 1099 977 1099 1036 1086.5 c 128
 1095 1074 1095 1074 1142 1060.5 c 128
 1189 1047 1189 1047 1213 1038 c 257
 942 -500 l 257
NamedP: "sv01"
 616 -500 l 257
NamedP: "ab01"
 728 136 l 257
EndSplineSet
PickledDataWithLists: "(dp0
Vcom.adobe.type.autohint
p1
(c_codecs
encode
p2
(Vdata
p3
Vlatin1
p4
tp5
Rp6
g2
(V<data>\\u000a        <hintSetList>\\u000a          <hintset pointTag=\"hr00\">\\u000a            <hstem pos=\"-479\" width=\"-21\"/>\\u000a            <hstem pos=\"-17\" width=\"160\"/>\\u000a            <hstem pos=\"957\" width=\"160\"/>\\u000a            <vstem pos=\"201\" width=\"195\"/>\\u000a            <vstem pos=\"911\" width=\"190\"/>\\u000a          </hintset>\\u000a        </hintSetList>\\u000a      </data>
p7
g4
tp8
Rp9
Ntp10
sVcom.fontlab.ttprogram
p11
(g2
(Vdata
p12
g4
tp13
Rp14
g2
(V<data>\\u000a        <ttProgram>\\u000a          <ttc code=\"alignt\" point=\"at01\" zone=\"t: x\"/>\\u000a          <ttc code=\"alignb\" point=\"ab01\" zone=\"b: -500\"/>\\u000a          <ttc code=\"alignb\" point=\"ab02\" zone=\"b: 0\"/>\\u000a          <ttc code=\"singlev\" point1=\"ab01\" point2=\"sv01\"/>\\u000a        </ttProgram>\\u000a      </data>
p15
g4
tp16
Rp17
Ntp18
s."
EndChar
StartChar: r
Encoding: 404 114 404
GlifName: r
Width: 1300
VWidth: 0
Flags: W
LayerCount: 2
Fore
SplineSet
559 1000 m 257
NamedP: "hr00"
 654 1100 l 257
 710 1115 710 1115 761 1116 c 128
 812 1117 812 1117 859 1117 c 257
NamedP: "at02"
 940 1117 940 1117 998.5 1108 c 128
 1057 1099 1057 1099 1098 1085.5 c 128
 1139 1072 1139 1072 1164.5 1057.5 c 128
 1190 1043 1190 1043 1205 1032 c 257
 1205 735 l 257
 916 700 l 257
 898 876 l 257
 879 879 879 879 859.5 882 c 128
 840 885 840 885 820 885 c 257
 724 885 724 885 648 849.5 c 128
 572 814 572 814 515 750 c 257
 383 0 l 257
NamedP: "sv01"
 66 0 l 257
NamedP: "ab01"
 260 1100 l 257
 580 1120 l 257
NamedP: "at01"
 559 1000 l 257
NamedP: "hr00"
EndSplineSet
PickledDataWithLists: "(dp0
Vcom.adobe.type.autohint
p1
(c_codecs
encode
p2
(Vdata
p3
Vlatin1
p4
tp5
Rp6
g2
(V<data>\\u000a        <hintSetList>\\u000a          <hintset pointTag=\"hr00\">\\u000a            <hstem pos=\"20\" width=\"-21\"/>\\u000a            <hstem pos=\"884\" width=\"232\"/>\\u000a            <vstem pos=\"136\" width=\"326\"/>\\u000a          </hintset>\\u000a        </hintSetList>\\u000a      </data>
p7
g4
tp8
Rp9
Ntp10
sVcom.fontlab.ttprogram
p11
(g2
(Vdata
p12
g4
tp13
Rp14
g2
(V<data>\\u000a        <ttProgram>\\u000a          <ttc code=\"alignt\" point=\"at01\" zone=\"t: x\"/>\\u000a          <ttc code=\"alignt\" point=\"at02\" zone=\"t: x\"/>\\u000a          <ttc code=\"alignb\" point=\"ab01\" zone=\"b: 0\"/>\\u000a          <ttc code=\"singlev\" point1=\"ab01\" point2=\"sv01\"/>\\u000a        </ttProgram>\\u000a      </data>
p15
g4
tp16
Rp17
Ntp18
s."
EndChar
StartChar: s
Encoding: 433 115 433
GlifName: s
Width: 1300
VWidth: 0
Flags: W
LayerCount: 2
Fore
SplineSet
1089 822 m 257,0,1
NamedP: "hr00"
 1064 840 1064 840 1031 854 c 128,-1,2
 998 868 998 868 961 877.5 c 128,-1,3
 924 887 924 887 884 892.5 c 128,-1,4
 844 898 844 898 805 898 c 257,5,6
 749 898 749 898 701 894 c 128,-1,7
 653 890 653 890 617.5 879.5 c 128,-1,8
 582 869 582 869 559.5 850.5 c 128,-1,9
 537 832 537 832 532 804 c 257,10,11
 527 778 527 778 551 759.5 c 128,-1,12
 575 741 575 741 613.5 727 c 128,-1,13
 652 713 652 713 699 703 c 128,-1,14
 746 693 746 693 788 684 c 257,15,16
 854 669 854 669 922.5 641 c 128,-1,17
 991 613 991 613 1044.5 570.5 c 128,-1,18
 1098 528 1098 528 1126.5 469.5 c 128,-1,19
 1155 411 1155 411 1142 335 c 257,20,21
 1124 235 1124 235 1067.5 167.5 c 128,-1,22
 1011 100 1011 100 924.5 59 c 128,-1,23
 838 18 838 18 727 0.5 c 128,-1,24
 616 -17 616 -17 490 -17 c 257,25,26
NamedP: "ab01"
 430 -17 430 -17 372.5 -8.5 c 128,-1,27
 315 0 315 0 263.5 15 c 128,-1,28
 212 30 212 30 169 50.5 c 128,-1,29
 126 71 126 71 96 95 c 257,30,-1
 231 305 l 257,31,32
 292 263 292 263 365.5 235.5 c 128,-1,33
 439 208 439 208 531 208 c 257,34,35
 553 208 553 208 584 210 c 128,-1,36
 615 212 615 212 649 217 c 128,-1,37
 683 222 683 222 717 231.5 c 128,-1,38
 751 241 751 241 779 256 c 128,-1,39
 807 271 807 271 826.5 292.5 c 128,-1,40
 846 314 846 314 851 344 c 257,41,42
 856 371 856 371 835 392 c 128,-1,43
 814 413 814 413 779.5 428.5 c 128,-1,44
 745 444 745 444 702.5 455.5 c 128,-1,45
 660 467 660 467 622 475 c 257,46,47
 540 493 540 493 468 523 c 128,-1,48
 396 553 396 553 344 596.5 c 128,-1,49
 292 640 292 640 267 698 c 128,-1,50
 242 756 242 756 255 832 c 257,51,52
 268 908 268 908 318 962 c 128,-1,53
 368 1016 368 1016 445 1050.5 c 128,-1,54
 522 1085 522 1085 622 1101 c 128,-1,55
 722 1117 722 1117 837 1117 c 257,56,57
NamedP: "at01"
 893 1117 893 1117 948 1108.5 c 128,-1,58
 1003 1100 1003 1100 1051.5 1086.5 c 128,-1,59
 1100 1073 1100 1073 1139.5 1056 c 128,-1,60
 1179 1039 1179 1039 1203 1022 c 257,61,-1
 1089 822 l 257,0,1
NamedP: "hr00"
EndSplineSet
PickledDataWithLists: "(dp0
Vcom.adobe.type.autohint
p1
(c_codecs
encode
p2
(Vdata
p3
Vlatin1
p4
tp5
Rp6
g2
(V<data>\\u000a        <hintSetList>\\u000a          <hintset pointTag=\"hr00\">\\u000a            <hstem pos=\"-16\" width=\"224\"/>\\u000a            <hstem pos=\"902\" width=\"214\"/>\\u000a            <vstem pos=\"32\" width=\"312\"/>\\u000a            <vstem pos=\"527\" width=\"320\"/>\\u000a          </hintset>\\u000a        </hintSetList>\\u000a      </data>
p7
g4
tp8
Rp9
Ntp10
sVcom.fontlab.ttprogram
p11
(g2
(Vdata
p12
g4
tp13
Rp14
g2
(V<data>\\u000a        <ttProgram>\\u000a          <ttc code=\"alignt\" point=\"at01\" zone=\"t: x\"/>\\u000a          <ttc code=\"alignb\" point=\"ab01\" zone=\"b: 0\"/>\\u000a        </ttProgram>\\u000a      </data>
p15
g4
tp16
Rp17
Ntp18
s."
EndChar
StartChar: t
Encoding: 514 116 514
GlifName: t
Width: 1300
VWidth: 0
Flags: W
LayerCount: 2
Fore
SplineSet
602 388 m 257
NamedP: "hr00"
 593 337 593 337 593 303.5 c 128
 593 270 593 270 601.5 250 c 128
 610 230 610 230 625.5 222 c 128
 641 214 641 214 663 214 c 257
 717 214 717 214 759 224 c 128
 801 234 801 234 834 249 c 128
 867 264 867 264 892.5 282 c 128
 918 300 918 300 939 316 c 257
 1011 135 l 257
 996 124 996 124 959 99 c 128
 922 74 922 74 863.5 48 c 128
 805 22 805 22 725 2.5 c 128
 645 -17 645 -17 545 -17 c 257
NamedP: "ab01"
 437 -17 437 -17 377.5 17 c 128
 318 51 318 51 293.5 109 c 128
 269 167 269 167 272 245 c 128
 275 323 275 323 290 410 c 257
 372 876 l 257
 130 876 l 257
 170 1100 l 257
NamedP: "at01"
 412 1100 l 257
 449 1310 l 257
 780 1420 l 257
NamedP: "av01"
 724 1100 l 257
 1183 1100 l 257
NamedP: "sv01"
 1116 876 l 257
 688 876 l 257
 602 388 l 257
NamedP: "hr00"
EndSplineSet
PickledDataWithLists: "(dp0
Vcom.adobe.type.autohint
p1
(c_codecs
encode
p2
(Vdata
p3
Vlatin1
p4
tp5
Rp6
g2
(V<data>\\u000a        <hintSetList>\\u000a          <hintset pointTag=\"hr00\">\\u000a            <hstem pos=\"-16\" width=\"224\"/>\\u000a            <hstem pos=\"876\" width=\"224\"/>\\u000a            <hstem pos=\"1398\" width=\"-20\"/>\\u000a            <vstem pos=\"132\" width=\"327\"/>\\u000a          </hintset>\\u000a        </hintSetList>\\u000a      </data>
p7
g4
tp8
Rp9
Ntp10
sVcom.fontlab.ttprogram
p11
(g2
(Vdata
p12
g4
tp13
Rp14
g2
(V<data>\\u000a        <ttProgram>\\u000a          <ttc align=\"round\" code=\"alignv\" point=\"av01\"/>\\u000a          <ttc code=\"alignt\" point=\"at01\" zone=\"t: x\"/>\\u000a          <ttc code=\"alignb\" point=\"ab01\" zone=\"b: 0\"/>\\u000a          <ttc code=\"singlev\" point1=\"at01\" point2=\"sv01\"/>\\u000a        </ttProgram>\\u000a      </data>
p15
g4
tp16
Rp17
Ntp18
s."
EndChar
StartChar: u
Encoding: 539 117 539
GlifName: u
Width: 1300
VWidth: 0
Flags: W
LayerCount: 2
Fore
SplineSet
892 1100 m 257
NamedP: "sv01"
 1213 1120 l 257
NamedP: "at03"
 1015 0 l 257
NamedP: "sv02"
 698 0 l 257
NamedP: "ab01"
 716 100 l 257
 617 0 l 257
 588 -8 588 -8 557.5 -12.5 c 128
 527 -17 527 -17 493 -17 c 257
NamedP: "ab02"
 359 -17 359 -17 275.5 21 c 128
 192 59 192 59 149 122.5 c 128
 106 186 106 186 97.5 268 c 128
 89 350 89 350 104 438 c 257
 221 1100 l 257
NamedP: "at01"
 541 1120 l 257
NamedP: "at02"
 420 438 l 257
 411 386 411 386 412.5 344.5 c 128
 414 303 414 303 429.5 273.5 c 128
 445 244 445 244 477 228.5 c 128
 509 213 509 213 560 213 c 257
 593 213 593 213 623 223 c 128
 653 233 653 233 677.5 249 c 128
 702 265 702 265 721.5 283 c 128
 741 301 741 301 754 318 c 257
 892 1100 l 257
NamedP: "sv01"
EndSplineSet
PickledDataWithLists: "(dp0
Vcom.adobe.type.autohint
p1
(c_codecs
encode
p2
(Vdata
p3
Vlatin1
p4
tp5
Rp6
g2
(V<data>\\u000a        <hintSetList>\\u000a          <hintset pointTag=\"sv01\">\\u000a            <hstem pos=\"-16\" width=\"224\"/>\\u000a            <hstem pos=\"1119\" width=\"-20\"/>\\u000a            <vstem pos=\"135\" width=\"326\"/>\\u000a            <vstem pos=\"704\" width=\"326\"/>\\u000a          </hintset>\\u000a        </hintSetList>\\u000a      </data>
p7
g4
tp8
Rp9
Ntp10
sVcom.fontlab.ttprogram
p11
(g2
(Vdata
p12
g4
tp13
Rp14
g2
(V<data>\\u000a        <ttProgram>\\u000a          <ttc code=\"alignt\" point=\"at01\" zone=\"t: x\"/>\\u000a          <ttc code=\"alignt\" point=\"at02\" zone=\"t: x\"/>\\u000a          <ttc code=\"alignt\" point=\"at03\" zone=\"t: x\"/>\\u000a          <ttc code=\"alignb\" point=\"ab01\" zone=\"b: 0\"/>\\u000a          <ttc code=\"alignb\" point=\"ab02\" zone=\"b: 0\"/>\\u000a          <ttc code=\"singlev\" point1=\"at01\" point2=\"sv01\"/>\\u000a          <ttc code=\"singlev\" point1=\"ab01\" point2=\"sv02\"/>\\u000a        </ttProgram>\\u000a      </data>
p15
g4
tp16
Rp17
Ntp18
s."
EndChar
StartChar: v
Encoding: 553 118 553
GlifName: v
Width: 1300
VWidth: 0
Flags: W
LayerCount: 2
Fore
SplineSet
509 700 m 257,0,-1
NamedP: "hr00"
 512 300 l 257,1,-1
 655 700 l 257,2,-1
 856 1100 l 257,3,-1
NamedP: "sv01"
 1173 1120 l 257,4,-1
NamedP: "at02"
 599 -17 l 257,5,-1
NamedP: "ab01"
 286 0 l 257,6,-1
 129 1100 l 257,7,-1
NamedP: "at03"
 447 1120 l 257,8,-1
NamedP: "at01"
 509 700 l 257,0,-1
NamedP: "hr00"
EndSplineSet
PickledDataWithLists: "(dp0
Vcom.adobe.type.autohint
p1
(c_codecs
encode
p2
(Vdata
p3
Vlatin1
p4
tp5
Rp6
g2
(V<data>\\u000a        <hintSetList>\\u000a          <hintset pointTag=\"hr00\">\\u000a            <hstem pos=\"1\" width=\"-21\"/>\\u000a            <hstem pos=\"1120\" width=\"-20\"/>\\u000a          </hintset>\\u000a        </hintSetList>\\u000a      </data>
p7
g4
tp8
Rp9
Ntp10
sVcom.fontlab.ttprogram
p11
(g2
(Vdata
p12
g4
tp13
Rp14
g2
(V<data>\\u000a        <ttProgram>\\u000a          <ttc code=\"alignt\" point=\"at01\" zone=\"t: x\"/>\\u000a          <ttc code=\"alignt\" point=\"at02\" zone=\"t: x\"/>\\u000a          <ttc code=\"alignt\" point=\"at03\" zone=\"t: x\"/>\\u000a          <ttc code=\"alignb\" point=\"ab01\" zone=\"b: 0\"/>\\u000a          <ttc code=\"singlev\" point1=\"at03\" point2=\"sv01\"/>\\u000a        </ttProgram>\\u000a      </data>
p15
g4
tp16
Rp17
Ntp18
sVcom.typemytype.robofont.guides
p19
(lp20
(dp21
Vangle
p22
I0
sVisGlobal
p23
I00
sVmagnetic
p24
I5
sVx
p25
I0
sVy
p26
I381
sas."
EndChar
StartChar: w
Encoding: 555 119 555
GlifName: w
Width: 1300
VWidth: 0
Flags: W
LayerCount: 2
Fore
SplineSet
766 600 m 257,0,-1
NamedP: "hr00"
 766 300 l 257,1,-1
 776 300 l 257,2,-1
 833 700 l 257,3,-1
 977 1100 l 257,4,-1
NamedP: "sv01"
 1273 1120 l 257,5,-1
NamedP: "at03"
 857 0 l 257,6,-1
NamedP: "sv02"
 591 0 l 257,7,-1
 562 400 l 257,8,-1
 582 600 l 257,9,-1
 530 400 l 257,10,-1
 364 0 l 257,11,-1
 79 0 l 257,12,-1
NamedP: "ab01"
 79 1100 l 257,13,-1
NamedP: "at01"
 370 1120 l 257,14,-1
NamedP: "at02"
 368 700 l 257,15,-1
 285 300 l 257,16,-1
 295 300 l 257,17,-1
 400 600 l 257,18,-1
 517 900 l 257,19,-1
NamedP: "av01"
 752 900 l 257,20,-1
NamedP: "sv03"
 766 600 l 257,0,-1
NamedP: "hr00"
EndSplineSet
PickledDataWithLists: "(dp0
Vcom.adobe.type.autohint
p1
(c_codecs
encode
p2
(Vdata
p3
Vlatin1
p4
tp5
Rp6
g2
(V<data>\\u000a        <hintSetList>\\u000a          <hintset pointTag=\"hr00\">\\u000a            <hstem pos=\"20\" width=\"-21\"/>\\u000a            <hstem pos=\"1119\" width=\"-20\"/>\\u000a          </hintset>\\u000a        </hintSetList>\\u000a      </data>
p7
g4
tp8
Rp9
Ntp10
sVcom.fontlab.ttprogram
p11
(g2
(Vdata
p12
g4
tp13
Rp14
g2
(V<data>\\u000a        <ttProgram>\\u000a          <ttc align=\"round\" code=\"alignv\" point=\"av01\"/>\\u000a          <ttc code=\"alignt\" point=\"at01\" zone=\"t: x\"/>\\u000a          <ttc code=\"alignt\" point=\"at02\" zone=\"t: x\"/>\\u000a          <ttc code=\"alignt\" point=\"at03\" zone=\"t: x\"/>\\u000a          <ttc code=\"alignb\" point=\"ab01\" zone=\"b: 0\"/>\\u000a          <ttc code=\"singlev\" point1=\"at01\" point2=\"sv01\"/>\\u000a          <ttc code=\"singlev\" point1=\"ab01\" point2=\"sv02\"/>\\u000a          <ttc code=\"singlev\" point1=\"av01\" point2=\"sv03\"/>\\u000a        </ttProgram>\\u000a      </data>
p15
g4
tp16
Rp17
Ntp18
sVcom.typemytype.robofont.guides
p19
(lp20
(dp21
Vangle
p22
I0
sVisGlobal
p23
I00
sVmagnetic
p24
I5
sVx
p25
I0
sVy
p26
I540
sa(dp27
g22
I0
sg23
I00
sg24
I5
sg25
I0
sg26
I640
sa(dp28
g22
I90
sg23
I00
sg24
I5
sg25
I467
sg26
I0
sa(dp29
g22
I90
sg23
I00
sg24
I5
sg25
I1040
sg26
I0
sa(dp30
g22
I90
sg23
I00
sg24
I5
sg25
I743
sg26
I0
sas."
EndChar
StartChar: y
Encoding: 580 121 580
GlifName: y
Width: 1300
VWidth: 0
Flags: W
LayerCount: 2
Fore
SplineSet
592 670 m 257
NamedP: "hr00"
 596 200 l 257
 738 670 l 257
 977 1100 l 257
NamedP: "sv01"
 1310 1120 l 257
NamedP: "at03"
 706 8 l 257
 661 -75 661 -75 613 -161.5 c 128
 565 -248 565 -248 506 -319 c 128
 447 -390 447 -390 372.5 -435 c 128
 298 -480 298 -480 201 -480 c 257
NamedP: "av01"
 134 -480 134 -480 78.5 -452 c 128
 23 -424 23 -424 -26 -374 c 257
 129 -194 l 257
 149 -209 149 -209 173 -221.5 c 128
 197 -234 197 -234 224 -234 c 257
 268 -234 268 -234 310.5 -184.5 c 128
 353 -135 353 -135 406 -47 c 257
 189 1100 l 257
NamedP: "at01"
 508 1120 l 257
NamedP: "at02"
 592 670 l 257
NamedP: "hr00"
EndSplineSet
PickledDataWithLists: "(dp0
Vcom.adobe.type.autohint
p1
(c_codecs
encode
p2
(Vdata
p3
Vlatin1
p4
tp5
Rp6
g2
(V<data>\\u000a        <hintSetList>\\u000a          <hintset pointTag=\"hr00\">\\u000a            <hstem pos=\"-480\" width=\"152\"/>\\u000a            <hstem pos=\"1117\" width=\"-20\"/>\\u000a          </hintset>\\u000a        </hintSetList>\\u000a      </data>
p7
g4
tp8
Rp9
Ntp10
sVcom.fontlab.ttprogram
p11
(g2
(Vdata
p12
g4
tp13
Rp14
g2
(V<data>\\u000a        <ttProgram>\\u000a          <ttc align=\"round\" code=\"alignv\" point=\"av01\"/>\\u000a          <ttc code=\"alignt\" point=\"at01\" zone=\"t: x\"/>\\u000a          <ttc code=\"alignt\" point=\"at02\" zone=\"t: x\"/>\\u000a          <ttc code=\"alignt\" point=\"at03\" zone=\"t: x\"/>\\u000a          <ttc code=\"singlev\" point1=\"at01\" point2=\"sv01\"/>\\u000a        </ttProgram>\\u000a      </data>
p15
g4
tp16
Rp17
Ntp18
sVcom.typemytype.robofont.guides
p19
(lp20
(dp21
Vangle
p22
I90
sVisGlobal
p23
I00
sVmagnetic
p24
I5
sVx
p25
I550
sVy
p26
I0
sas."
EndChar
StartChar: z
Encoding: 584 122 584
GlifName: z
Width: 1300
VWidth: 0
Flags: W
LayerCount: 2
Fore
SplineSet
683 200 m 257
NamedP: "hr00"
 1056 200 l 257
 1048 0 l 257
NamedP: "sv01"
 145 0 l 257
NamedP: "ab01"
 127 85 l 257
 645 757 l 257
 886 925 l 257
 630 900 l 257
 356 900 l 257
 364 1100 l 257
NamedP: "at01"
 1160 1100 l 257
NamedP: "sv02"
 1178 1017 l 257
 663 339 l 257
 427 175 l 257
 683 200 l 257
NamedP: "hr00"
EndSplineSet
PickledDataWithLists: "(dp0
Vcom.adobe.type.autohint
p1
(c_codecs
encode
p2
(Vdata
p3
Vlatin1
p4
tp5
Rp6
g2
(V<data>\\u000a        <hintSetList>\\u000a          <hintset pointTag=\"hr00\">\\u000a            <hstem pos=\"0\" width=\"160\"/>\\u000a            <hstem pos=\"940\" width=\"160\"/>\\u000a          </hintset>\\u000a        </hintSetList>\\u000a      </data>
p7
g4
tp8
Rp9
Ntp10
sVcom.fontlab.ttprogram
p11
(g2
(Vdata
p12
g4
tp13
Rp14
g2
(V<data>\\u000a        <ttProgram>\\u000a          <ttc code=\"alignt\" point=\"at01\" zone=\"t: x\"/>\\u000a          <ttc code=\"alignb\" point=\"ab01\" zone=\"b: 0\"/>\\u000a          <ttc code=\"singlev\" point1=\"ab01\" point2=\"sv01\"/>\\u000a          <ttc code=\"singlev\" point1=\"at01\" point2=\"sv02\"/>\\u000a        </ttProgram>\\u000a      </data>
p15
g4
tp16
Rp17
Ntp18
s."
EndChar
StartChar: braceleft
Encoding: 156 123 156
GlifName: braceleft
Width: 1300
VWidth: 0
Flags: W
LayerCount: 2
Fore
SplineSet
1078 1260 m 257
NamedP: "hr00"
 1048 1280 1048 1280 1006.5 1292.5 c 128
 965 1305 965 1305 930 1305 c 257
 900 1303 900 1303 879.5 1288.5 c 128
 859 1274 859 1274 845 1248 c 128
 831 1222 831 1222 821.5 1184.5 c 128
 812 1147 812 1147 804 1099 c 257
 762 864 l 257
 752 808 752 808 728 759 c 128
 704 710 704 710 673 670.5 c 128
 642 631 642 631 607.5 600.5 c 128
 573 570 573 570 543 550 c 257
NamedP: "iv01"
 567 530 567 530 590.5 500 c 128
 614 470 614 470 631 430 c 128
 648 390 648 390 655 341.5 c 128
 662 293 662 293 652 238 c 257
NamedP: "mh01"
 609 -2 l 257
 601 -50 601 -50 597 -88 c 128
 593 -126 593 -126 597.5 -153 c 128
 602 -180 602 -180 617.5 -194 c 128
 633 -208 633 -208 663 -208 c 257
 698 -208 698 -208 743.5 -195.5 c 128
 789 -183 789 -183 827 -163 c 257
 890 -348 l 257
 855 -363 855 -363 822 -376.5 c 128
 789 -390 789 -390 753.5 -399.5 c 128
 718 -409 718 -409 676.5 -414.5 c 128
 635 -420 635 -420 583 -420 c 257
NamedP: "av01"
 470 -420 470 -420 400.5 -388 c 128
 331 -356 331 -356 296.5 -300 c 128
 262 -244 262 -244 257 -167.5 c 128
 252 -91 252 -91 267 -2 c 257
 310 238 l 257
 326 327 326 327 319.5 379.5 c 128
 313 432 313 432 269 442 c 257
 134 462 l 257
 166 640 l 257
 307 660 l 257
 355 671 355 671 380 723.5 c 128
 405 776 405 776 420 864 c 257
 462 1099 l 257
 478 1188 478 1188 509.5 1264.5 c 128
 541 1341 541 1341 596 1397 c 128
 651 1453 651 1453 731.5 1485 c 128
 812 1517 812 1517 925 1517 c 257
NamedP: "at01"
 977 1517 977 1517 1016.5 1511.5 c 128
 1056 1506 1056 1506 1088 1496.5 c 128
 1120 1487 1120 1487 1148.5 1474 c 128
 1177 1461 1177 1461 1207 1445 c 257
 1078 1260 l 257
NamedP: "hr00"
EndSplineSet
PickledDataWithLists: "(dp0
Vcom.adobe.type.autohint
p1
(c_codecs
encode
p2
(Vdata
p3
Vlatin1
p4
tp5
Rp6
g2
(V<data>\\u000a        <hintSetList>\\u000a          <hintset pointTag=\"hr00\">\\u000a            <hstem pos=\"-399\" width=\"-21\"/>\\u000a            <hstem pos=\"475\" width=\"150\"/>\\u000a            <hstem pos=\"1519\" width=\"-20\"/>\\u000a            <vstem pos=\"500\" width=\"200\"/>\\u000a          </hintset>\\u000a        </hintSetList>\\u000a      </data>
p7
g4
tp8
Rp9
Ntp10
sVcom.fontlab.ttprogram
p11
(g2
(Vdata
p12
g4
tp13
Rp14
g2
(V<data>\\u000a        <ttProgram>\\u000a          <ttc code=\"mdeltah\" delta=\"-2\" point=\"mh01\" ppm1=\"14\" ppm2=\"14\"/>\\u000a          <ttc align=\"round\" code=\"alignv\" point=\"av01\"/>\\u000a          <ttc code=\"alignt\" point=\"at01\" zone=\"t: 1\"/>\\u000a          <ttc code=\"interpolatev\" point=\"iv01\" point1=\"at01\" point2=\"av01\"/>\\u000a        </ttProgram>\\u000a      </data>
p15
g4
tp16
Rp17
Ntp18
sVcom.typemytype.robofont.guides
p19
(lp20
(dp21
Vangle
p22
I0
sVisGlobal
p23
I00
sVmagnetic
p24
I5
sVx
p25
I0
sVy
p26
I550
sa(dp27
g22
I0
sg23
I00
sg24
I5
sg25
I0
sg26
I475
sas."
EndChar
StartChar: bar
Encoding: 133 124 133
GlifName: bar
Width: 1300
VWidth: 0
Flags: W
LayerCount: 2
Fore
SplineSet
983 1520 m 257,0,-1
NamedP: "at01"
 648 -380 l 257,1,-1
NamedP: "sv01"
 316 -380 l 257,2,-1
NamedP: "av01"
 647 1500 l 257,3,-1
 983 1520 l 257,0,-1
NamedP: "at01"
EndSplineSet
PickledDataWithLists: "(dp0
Vcom.adobe.type.autohint
p1
(c_codecs
encode
p2
(Vdata
p3
Vlatin1
p4
tp5
Rp6
g2
(V<data>\\u000a        <hintSetList>\\u000a          <hintset pointTag=\"at01\">\\u000a            <hstem pos=\"-379\" width=\"-21\"/>\\u000a            <hstem pos=\"1520\" width=\"-20\"/>\\u000a            <vstem pos=\"200\" width=\"200\"/>\\u000a          </hintset>\\u000a        </hintSetList>\\u000a      </data>
p7
g4
tp8
Rp9
Ntp10
sVcom.fontlab.ttprogram
p11
(g2
(Vdata
p12
g4
tp13
Rp14
g2
(V<data>\\u000a        <ttProgram>\\u000a          <ttc align=\"round\" code=\"alignv\" point=\"av01\"/>\\u000a          <ttc code=\"alignt\" point=\"at01\" zone=\"t: 1\"/>\\u000a          <ttc code=\"singlev\" point1=\"av01\" point2=\"sv01\"/>\\u000a        </ttProgram>\\u000a      </data>
p15
g4
tp16
Rp17
Ntp18
s."
EndChar
StartChar: braceright
Encoding: 157 125 157
GlifName: braceright
Width: 1300
VWidth: 0
Flags: W
LayerCount: 2
Fore
SplineSet
409 1445 m 257
NamedP: "hr00"
 444 1461 444 1461 477 1474 c 128
 510 1487 510 1487 545.5 1496.5 c 128
 581 1506 581 1506 622.5 1511.5 c 128
 664 1517 664 1517 716 1517 c 257
NamedP: "at01"
 829 1517 829 1517 898.5 1485 c 128
 968 1453 968 1453 1003 1397 c 128
 1038 1341 1038 1341 1043 1264.5 c 128
 1048 1188 1048 1188 1032 1099 c 257
 990 864 l 257
 975 776 975 776 981 723.5 c 128
 987 671 987 671 1031 660 c 257
 1166 640 l 257
 1134 462 l 257
 993 442 l 257
 945 432 945 432 920.5 379.5 c 128
 896 327 896 327 880 238 c 257
 837 -2 l 257
 822 -91 822 -91 790 -167.5 c 128
 758 -244 758 -244 703.5 -300 c 128
 649 -356 649 -356 568.5 -388 c 128
 488 -420 488 -420 375 -420 c 257
NamedP: "av01"
 323 -420 323 -420 283.5 -414.5 c 128
 244 -409 244 -409 211.5 -399.5 c 128
 179 -390 179 -390 150.5 -376.5 c 128
 122 -363 122 -363 92 -348 c 257
 221 -163 l 257
 251 -183 251 -183 292.5 -195.5 c 128
 334 -208 334 -208 369 -208 c 257
 399 -208 399 -208 419.5 -194 c 128
 440 -180 440 -180 454 -153 c 128
 468 -126 468 -126 477.5 -88 c 128
 487 -50 487 -50 495 -2 c 257
 538 238 l 257
 548 293 548 293 572 341.5 c 128
 596 390 596 390 626.5 430 c 128
 657 470 657 470 691.5 500 c 128
 726 530 726 530 757 550 c 257
NamedP: "iv01"
 734 570 734 570 710.5 600.5 c 128
 687 631 687 631 669.5 670.5 c 128
 652 710 652 710 645 759 c 128
 638 808 638 808 648 864 c 257
 690 1099 l 257
 698 1147 698 1147 702 1184.5 c 128
 706 1222 706 1222 701 1248 c 128
 696 1274 696 1274 681 1288.5 c 128
 666 1303 666 1303 636 1305 c 257
 601 1305 601 1305 555.5 1292.5 c 128
 510 1280 510 1280 472 1260 c 257
 409 1445 l 257
NamedP: "hr00"
EndSplineSet
PickledDataWithLists: "(dp0
Vcom.adobe.type.autohint
p1
(c_codecs
encode
p2
(Vdata
p3
Vlatin1
p4
tp5
Rp6
g2
(V<data>\\u000a        <hintSetList>\\u000a          <hintset pointTag=\"hr00\">\\u000a            <hstem pos=\"-399\" width=\"-21\"/>\\u000a            <hstem pos=\"475\" width=\"150\"/>\\u000a            <hstem pos=\"1519\" width=\"-20\"/>\\u000a            <vstem pos=\"500\" width=\"200\"/>\\u000a          </hintset>\\u000a        </hintSetList>\\u000a      </data>
p7
g4
tp8
Rp9
Ntp10
sVcom.fontlab.ttprogram
p11
(g2
(Vdata
p12
g4
tp13
Rp14
g2
(V<data>\\u000a        <ttProgram>\\u000a          <ttc align=\"round\" code=\"alignv\" point=\"av01\"/>\\u000a          <ttc code=\"alignt\" point=\"at01\" zone=\"t: 1\"/>\\u000a          <ttc code=\"interpolatev\" point=\"iv01\" point1=\"at01\" point2=\"av01\"/>\\u000a        </ttProgram>\\u000a      </data>
p15
g4
tp16
Rp17
Ntp18
s."
EndChar
StartChar: asciitilde
Encoding: 124 126 124
GlifName: asciitilde
Width: 1300
VWidth: 0
Flags: W
LayerCount: 2
Fore
SplineSet
0 441 m 257
 18 508 18 508 56.5 578 c 128
 95 648 95 648 155 705 c 128
 215 762 215 762 296.5 798.5 c 128
 378 835 378 835 482 835 c 257
 536 835 536 835 574.5 825 c 128
 613 815 613 815 641.5 800.5 c 128
 670 786 670 786 692 769 c 128
 714 752 714 752 736 737.5 c 128
 758 723 758 723 782.5 713 c 128
 807 703 807 703 841 703 c 257
 910 703 910 703 959.5 741 c 128
 1009 779 1009 779 1029 838 c 257
 1298 802 l 257
 1280 729 1280 729 1245 657 c 128
 1210 585 1210 585 1153 528 c 128
 1096 471 1096 471 1014.5 435.5 c 128
 933 400 933 400 823 400 c 257
 773 400 773 400 737.5 410 c 128
 702 420 702 420 675 434.5 c 128
 648 449 648 449 626.5 466 c 128
 605 483 605 483 582 497.5 c 128
 559 512 559 512 531.5 522 c 128
 504 532 504 532 465 532 c 257
 436 532 436 532 409.5 522 c 128
 383 512 383 512 361 495.5 c 128
 339 479 339 479 321.5 457 c 128
 304 435 304 435 294 410 c 257
 0 441 l 257
EndSplineSet
EndChar
StartChar: exclamdown
Encoding: 242 161 242
GlifName: exclamdown
Width: 1300
VWidth: 0
Flags: W
LayerCount: 2
Fore
SplineSet
227 -400 m 257,0,-1
NamedP: "av01"
 413 656 l 257,1,-1
 719 691 l 257,2,-1
NamedP: "av02"
 527 -400 l 257,3,-1
NamedP: "sv01"
 227 -400 l 257,0,-1
NamedP: "av01"
779 951 m 257,4,5
 773 917 773 917 755.5 887.5 c 128,-1,6
 738 858 738 858 711.5 835.5 c 128,-1,7
 685 813 685 813 653 800 c 128,-1,8
 621 787 621 787 587 787 c 257,9,10
NamedP: "av03"
 553 787 553 787 526 800 c 128,-1,11
 499 813 499 813 480.5 835.5 c 128,-1,12
 462 858 462 858 454.5 887.5 c 128,-1,13
 447 917 447 917 453 951 c 257,14,15
 459 984 459 984 477 1014.5 c 128,-1,16
 495 1045 495 1045 520.5 1067.5 c 128,-1,17
 546 1090 546 1090 578 1103.5 c 128,-1,18
 610 1117 610 1117 644 1117 c 257,19,20
NamedP: "at01"
 677 1117 677 1117 705 1103.5 c 128,-1,21
 733 1090 733 1090 752 1067.5 c 128,-1,22
 771 1045 771 1045 778 1014.5 c 128,-1,23
 785 984 785 984 779 951 c 257,4,5
EndSplineSet
PickledDataWithLists: "(dp0
Vcom.fontlab.ttprogram
p1
(c_codecs
encode
p2
(Vdata
p3
Vlatin1
p4
tp5
Rp6
g2
(V<data>\\u000a        <ttProgram>\\u000a          <ttc align=\"round\" code=\"alignv\" point=\"av01\"/>\\u000a          <ttc align=\"round\" code=\"alignv\" point=\"av02\"/>\\u000a          <ttc align=\"round\" code=\"alignv\" point=\"av03\"/>\\u000a          <ttc code=\"alignt\" point=\"at01\" zone=\"t: x\"/>\\u000a          <ttc code=\"singlev\" point1=\"av01\" point2=\"sv01\"/>\\u000a        </ttProgram>\\u000a      </data>
p7
g4
tp8
Rp9
Ntp10
s."
EndChar
StartChar: cent
Encoding: 170 162 170
GlifName: cent
Width: 1300
VWidth: 0
Flags: W
LayerCount: 2
Fore
SplineSet
981 814 m 257
NamedP: "hr00"
 961 837 961 837 941.5 852 c 128
 922 867 922 867 904 877 c 257
NamedP: "sh01"
 788 223 l 257
NamedP: "sh02"
 823 236 823 236 857 252.5 c 128
 891 269 891 269 922 288 c 257
 1000 93 l 257
 942 58 942 58 879.5 32.5 c 128
 817 7 817 7 748 -5 c 257
 716 -190 l 257
NamedP: "sv01"
 426 -190 l 257
NamedP: "av02"
 460 6 l 257
 372 34 372 34 312 90.5 c 128
 252 147 252 147 218.5 222.5 c 128
 185 298 185 298 177.5 388.5 c 128
 170 479 170 479 187 575 c 257
NamedP: "ah01"
 202 662 202 662 239 744.5 c 128
 276 827 276 827 334.5 896.5 c 128
 393 966 393 966 472.5 1017.5 c 128
 552 1069 552 1069 652 1095 c 257
 689 1302 l 257
 985 1340 l 257
NamedP: "av01"
 944 1105 l 257
 1008 1090 1008 1090 1060.5 1055.5 c 128
 1113 1021 1113 1021 1158 961 c 257
 981 814 l 257
NamedP: "hr00"
468 563 m 257
NamedP: "sh03"
 446 436 446 436 467 353.5 c 128
 488 271 488 271 548 232 c 257
NamedP: "ah03"
 661 873 l 257
NamedP: "ah02"
 590 840 590 840 540.5 765 c 128
 491 690 491 690 468 563 c 257
NamedP: "sh03"
EndSplineSet
PickledDataWithLists: "(dp0
Vcom.adobe.type.autohint
p1
(c_codecs
encode
p2
(Vdata
p3
Vlatin1
p4
tp5
Rp6
g2
(V<data>\\u000a        <hintSetList>\\u000a          <hintset pointTag=\"hr00\">\\u000a            <hstem pos=\"-379\" width=\"-21\"/>\\u000a            <hstem pos=\"-17\" width=\"169\"/>\\u000a            <hstem pos=\"957\" width=\"160\"/>\\u000a            <hstem pos=\"1520\" width=\"-20\"/>\\u000a            <vstem pos=\"100\" width=\"195\"/>\\u000a            <vstem pos=\"400\" width=\"200\"/>\\u000a          </hintset>\\u000a        </hintSetList>\\u000a      </data>
p7
g4
tp8
Rp9
Ntp10
sVcom.fontlab.ttprogram
p11
(g2
(Vdata
p12
g4
tp13
Rp14
g2
(V<data>\\u000a        <ttProgram>\\u000a          <ttc align=\"round\" code=\"alignh\" point=\"ah01\"/>\\u000a          <ttc align=\"round\" code=\"alignh\" point=\"ah02\"/>\\u000a          <ttc align=\"round\" code=\"alignh\" point=\"ah03\"/>\\u000a          <ttc code=\"singleh\" point1=\"ah02\" point2=\"sh01\" stem=\"X: 208\"/>\\u000a          <ttc code=\"singleh\" point1=\"ah03\" point2=\"sh02\" stem=\"X: 208\"/>\\u000a          <ttc code=\"singleh\" point1=\"ah01\" point2=\"sh03\" stem=\"X: 208\"/>\\u000a          <ttc align=\"round\" code=\"alignv\" point=\"av01\"/>\\u000a          <ttc align=\"round\" code=\"alignv\" point=\"av02\"/>\\u000a          <ttc code=\"singlev\" point1=\"av02\" point2=\"sv01\"/>\\u000a        </ttProgram>\\u000a      </data>
p15
g4
tp16
Rp17
Ntp18
s."
EndChar
StartChar: sterling
Encoding: 480 163 480
GlifName: sterling
Width: 1300
VWidth: 0
Flags: W
LayerCount: 2
Fore
SplineSet
683 216 m 257
NamedP: "ih03"
 1004 216 l 257
NamedP: "sv02"
 966 0 l 257
NamedP: "sv01"
 17 0 l 257
NamedP: "ab01"
 84 216 l 257
NamedP: "ih02"
 217 216 l 257
 219 218 219 218 223 224.5 c 128
 227 231 227 231 236 249 c 257
 249 277 249 277 287.5 378 c 128
 326 479 326 479 386 665 c 257
 258 665 l 257
 296 883 l 257
NamedP: "av01"
 455 883 l 257
 541 1150 l 257
 566 1229 566 1229 603 1296.5 c 128
 640 1364 640 1364 693 1413 c 128
 746 1462 746 1462 816.5 1489.5 c 128
 887 1517 887 1517 980 1517 c 257
NamedP: "at01"
 1034 1517 1034 1517 1075.5 1510.5 c 128
 1117 1504 1117 1504 1151.5 1489.5 c 128
 1186 1475 1186 1475 1216.5 1451.5 c 128
 1247 1428 1247 1428 1279 1395 c 257
 1119 1228 l 257
 1077 1273 1077 1273 1047 1288 c 128
 1017 1303 1017 1303 987 1303 c 257
 964 1303 964 1303 945 1289.5 c 128
 926 1276 926 1276 910.5 1251.5 c 128
 895 1227 895 1227 881 1192.5 c 128
 867 1158 867 1158 854 1116 c 257
 779 883 l 257
 974 883 l 257
NamedP: "sv03"
 909 665 l 257
NamedP: "sv04"
 711 665 l 257
 692 601 692 601 678 556 c 128
 664 511 664 511 652 474.5 c 128
 640 438 640 438 627 404.5 c 128
 614 371 614 371 597 331 c 257
 424 157 l 257
NamedP: "ih01"
 683 216 l 257
NamedP: "ih03"
EndSplineSet
PickledDataWithLists: "(dp0
Vcom.adobe.type.autohint
p1
(c_codecs
encode
p2
(Vdata
p3
Vlatin1
p4
tp5
Rp6
g2
(V<data>\\u000a        <hintSetList>\\u000a          <hintset pointTag=\"ih03\">\\u000a            <hstem pos=\"0\" width=\"147\"/>\\u000a            <hstem pos=\"700\" width=\"150\"/>\\u000a            <hstem pos=\"1372\" width=\"148\"/>\\u000a          </hintset>\\u000a        </hintSetList>\\u000a      </data>
p7
g4
tp8
Rp9
Ntp10
sVcom.fontlab.ttprogram
p11
(g2
(Vdata
p12
g4
tp13
Rp14
g2
(V<data>\\u000a        <ttProgram>\\u000a          <ttc code=\"interpolateh\" point=\"ih01\" point1=\"ih02\" point2=\"ih03\"/>\\u000a          <ttc align=\"round\" code=\"alignv\" point=\"av01\"/>\\u000a          <ttc code=\"alignt\" point=\"at01\" zone=\"t: 1\"/>\\u000a          <ttc code=\"alignb\" point=\"ab01\" zone=\"b: 0\"/>\\u000a          <ttc code=\"singlev\" point1=\"ab01\" point2=\"sv01\"/>\\u000a          <ttc code=\"singlev\" point1=\"sv01\" point2=\"sv02\" stem=\"Y: 171\"/>\\u000a          <ttc code=\"singlev\" point1=\"av01\" point2=\"sv03\"/>\\u000a          <ttc code=\"singlev\" point1=\"sv03\" point2=\"sv04\" stem=\"Y: 171\"/>\\u000a        </ttProgram>\\u000a      </data>
p15
g4
tp16
Rp17
Ntp18
s."
EndChar
StartChar: currency
Encoding: 201 164 201
GlifName: currency
Width: 1300
VWidth: 0
Flags: W
LayerCount: 2
Fore
SplineSet
1106 232 m 257
 899 55 l 257
 762 221 l 257
 676 188 676 188 582 188 c 257
NamedP: "av02"
 534 188 534 188 490.5 196 c 128
 447 204 447 204 411 221 c 257
 217 55 l 257
 71 232 l 257
 250 383 l 257
 230 431 230 431 224 479 c 128
 218 527 218 527 226 573 c 257
NamedP: "av03"
 234 618 234 618 256.5 666 c 128
 279 714 279 714 317 762 c 257
 191 913 l 257
 399 1092 l 257
 535 925 l 257
 578 942 578 942 623.5 949.5 c 128
 669 957 669 957 717 957 c 257
NamedP: "av01"
 764 957 764 957 806.5 949.5 c 128
 849 942 849 942 886 925 c 257
 1083 1092 l 257
 1226 913 l 257
 1049 762 l 257
 1068 714 1068 714 1073.5 666 c 128
 1079 618 1079 618 1071 573 c 257
NamedP: "sv03"
 1063 527 1063 527 1040.5 478.5 c 128
 1018 430 1018 430 982 383 c 257
 1106 232 l 257
484 573 m 257
NamedP: "sv01"
 476 525 476 525 485.5 491.5 c 128
 495 458 495 458 515.5 438 c 128
 536 418 536 418 564 409 c 128
 592 400 592 400 619 400 c 257
 646 400 646 400 677 409 c 128
 708 418 708 418 735.5 438 c 128
 763 458 763 458 784 491.5 c 128
 805 525 805 525 813 573 c 257
NamedP: "sv02"
 822 621 822 621 812.5 654 c 128
 803 687 803 687 782.5 707 c 128
 762 727 762 727 734.5 735.5 c 128
 707 744 707 744 680 744 c 257
 653 744 653 744 622 735.5 c 128
 591 727 591 727 563 707 c 128
 535 687 535 687 514 654 c 128
 493 621 493 621 484 573 c 257
NamedP: "sv01"
EndSplineSet
PickledDataWithLists: "(dp0
Vcom.fontlab.ttprogram
p1
(c_codecs
encode
p2
(Vdata
p3
Vlatin1
p4
tp5
Rp6
g2
(V<data>\\u000a        <ttProgram>\\u000a          <ttc align=\"round\" code=\"alignv\" point=\"av01\"/>\\u000a          <ttc align=\"round\" code=\"alignv\" point=\"av02\"/>\\u000a          <ttc align=\"round\" code=\"alignv\" point=\"av03\"/>\\u000a          <ttc code=\"singlev\" point1=\"av03\" point2=\"sv01\"/>\\u000a          <ttc code=\"singlev\" point1=\"sv01\" point2=\"sv02\"/>\\u000a          <ttc code=\"singlev\" point1=\"sv02\" point2=\"sv03\"/>\\u000a        </ttProgram>\\u000a      </data>
p7
g4
tp8
Rp9
Ntp10
s."
EndChar
StartChar: yen
Encoding: 583 165 583
GlifName: yen
Width: 1300
VWidth: 0
Flags: W
LayerCount: 2
Fore
SplineSet
39 589 m 257,0,-1
NamedP: "av02"
 348 589 l 257,1,-1
NamedP: "mv01"
 359 650 l 257,2,-1
 341 700 l 257,3,-1
NamedP: "mh01"
 58 700 l 257,4,-1
NamedP: "mh02"
 92 889 l 257,5,-1
NamedP: "av01"
 279 889 l 257,6,-1
NamedP: "mv02"
 78 1500 l 257,7,-1
NamedP: "ih02"
 423 1520 l 257,8,-1
NamedP: "at02"
 548 1143 l 257,9,-1
 589 773 l 257,10,-1
NamedP: "ih01"
 713 1143 l 257,11,-1
 958 1500 l 257,12,-1
NamedP: "at01"
 1293 1500 l 257,13,-1
NamedP: "ih03"
 874 889 l 257,14,-1
 1092 889 l 257,15,-1
NamedP: "sv01"
 1058 700 l 257,16,-1
NamedP: "sv02"
 743 700 l 257,17,-1
 710 650 l 257,18,-1
 699 589 l 257,19,-1
 1039 589 l 257,20,-1
NamedP: "sv03"
 1006 400 l 257,21,-1
NamedP: "sv04"
 666 400 l 257,22,-1
 595 0 l 257,23,-1
NamedP: "sv05"
 244 0 l 257,24,-1
NamedP: "ab01"
 315 400 l 257,25,-1
 6 400 l 257,26,-1
NamedP: "sv06"
 39 589 l 257,0,-1
NamedP: "av02"
EndSplineSet
PickledDataWithLists: "(dp0
Vcom.adobe.type.autohint
p1
(c_codecs
encode
p2
(Vdata
p3
Vlatin1
p4
tp5
Rp6
g2
(V<data>\\u000a        <hintSetList>\\u000a          <hintset pointTag=\"av02\">\\u000a            <hstem pos=\"21\" width=\"-21\"/>\\u000a            <hstem pos=\"400\" width=\"150\"/>\\u000a            <hstem pos=\"700\" width=\"150\"/>\\u000a            <hstem pos=\"1518\" width=\"-20\"/>\\u000a            <vstem pos=\"500\" width=\"200\"/>\\u000a          </hintset>\\u000a        </hintSetList>\\u000a      </data>
p7
g4
tp8
Rp9
Ntp10
sVcom.fontlab.ttprogram
p11
(g2
(Vdata
p12
g4
tp13
Rp14
g2
(V<data>\\u000a        <ttProgram>\\u000a          <ttc code=\"mdeltah\" delta=\"-4\" point=\"mh01\" ppm1=\"15\" ppm2=\"15\"/>\\u000a          <ttc code=\"mdeltah\" delta=\"-3\" point=\"mh02\" ppm1=\"16\" ppm2=\"16\"/>\\u000a          <ttc code=\"interpolateh\" point=\"ih01\" point1=\"ih02\" point2=\"ih03\"/>\\u000a          <ttc align=\"round\" code=\"alignv\" point=\"av01\"/>\\u000a          <ttc align=\"round\" code=\"alignv\" point=\"av02\"/>\\u000a          <ttc code=\"alignt\" point=\"at01\" zone=\"t: 1\"/>\\u000a          <ttc code=\"alignt\" point=\"at02\" zone=\"t: 1\"/>\\u000a          <ttc code=\"alignb\" point=\"ab01\" zone=\"b: 0\"/>\\u000a          <ttc code=\"mdeltav\" delta=\"-5\" point=\"av02\" ppm1=\"12\" ppm2=\"12\"/>\\u000a          <ttc code=\"mdeltav\" delta=\"-5\" point=\"mv01\" ppm1=\"12\" ppm2=\"12\"/>\\u000a          <ttc code=\"singlev\" point1=\"av01\" point2=\"sv01\"/>\\u000a          <ttc code=\"singlev\" point1=\"sv01\" point2=\"sv02\" stem=\"Y: 171\"/>\\u000a          <ttc code=\"singlev\" point1=\"sv02\" point2=\"mh02\"/>\\u000a          <ttc code=\"mdeltav\" delta=\"4\" point=\"mh02\" ppm1=\"15\" ppm2=\"15\"/>\\u000a          <ttc code=\"mdeltav\" delta=\"3\" point=\"mh02\" ppm1=\"16\" ppm2=\"16\"/>\\u000a          <ttc code=\"mdeltav\" delta=\"2\" point=\"mh02\" ppm1=\"14\" ppm2=\"14\"/>\\u000a          <ttc code=\"mdeltav\" delta=\"-1\" point=\"mv02\" ppm1=\"16\" ppm2=\"16\"/>\\u000a          <ttc code=\"singlev\" point1=\"at01\" point2=\"ih03\"/>\\u000a          <ttc code=\"singlev\" point1=\"av02\" point2=\"sv03\"/>\\u000a          <ttc code=\"singlev\" point1=\"sv03\" point2=\"sv04\" stem=\"Y: 171\"/>\\u000a          <ttc code=\"singlev\" point1=\"ab01\" point2=\"sv05\"/>\\u000a          <ttc code=\"singlev\" point1=\"sv04\" point2=\"sv06\"/>\\u000a          <ttc code=\"mdeltav\" delta=\"-2\" point=\"sv06\" ppm1=\"12\" ppm2=\"12\"/>\\u000a        </ttProgram>\\u000a      </data>
p15
g4
tp16
Rp17
Ntp18
s."
EndChar
StartChar: brokenbar
Encoding: 161 166 161
GlifName: brokenbar
Width: 1300
VWidth: 0
Flags: W
LayerCount: 2
Fore
SplineSet
1010 1520 m 257
NamedP: "at01"
 865 700 l 257
NamedP: "sv01"
 523 700 l 257
NamedP: "av01"
 664 1500 l 257
 1010 1520 l 257
NamedP: "at01"
806 362 m 257
NamedP: "sv02"
 671 -400 l 257
NamedP: "sv03"
 329 -400 l 257
NamedP: "av03"
 464 362 l 257
NamedP: "av02"
 806 362 l 257
NamedP: "sv02"
EndSplineSet
PickledDataWithLists: "(dp0
Vcom.fontlab.ttprogram
p1
(c_codecs
encode
p2
(Vdata
p3
Vlatin1
p4
tp5
Rp6
g2
(V<data>\\u000a        <ttProgram>\\u000a          <ttc align=\"round\" code=\"alignv\" point=\"av01\"/>\\u000a          <ttc align=\"round\" code=\"alignv\" point=\"av02\"/>\\u000a          <ttc align=\"round\" code=\"alignv\" point=\"av03\"/>\\u000a          <ttc code=\"alignt\" point=\"at01\" zone=\"t: 1\"/>\\u000a          <ttc code=\"singlev\" point1=\"av01\" point2=\"sv01\"/>\\u000a          <ttc code=\"singlev\" point1=\"av02\" point2=\"sv02\"/>\\u000a          <ttc code=\"singlev\" point1=\"av03\" point2=\"sv03\"/>\\u000a        </ttProgram>\\u000a      </data>
p7
g4
tp8
Rp9
Ntp10
s."
EndChar
StartChar: section
Encoding: 437 167 437
GlifName: section
Width: 1300
VWidth: 0
Flags: W
LayerCount: 2
Fore
SplineSet
1059 1249 m 257
NamedP: "hr00"
 1021 1272 1021 1272 990 1285.5 c 128
 959 1299 959 1299 933 1306.5 c 128
 907 1314 907 1314 884 1316 c 128
 861 1318 861 1318 840 1318 c 257
NamedP: "iv03"
 809 1318 809 1318 779.5 1310.5 c 128
 750 1303 750 1303 726 1286 c 128
 702 1269 702 1269 684.5 1241.5 c 128
 667 1214 667 1214 660 1174 c 257
 653 1135 653 1135 663 1105 c 128
 673 1075 673 1075 694.5 1050 c 128
 716 1025 716 1025 745.5 1002.5 c 128
 775 980 775 980 807 958 c 257
NamedP: "iv01"
 860 921 860 921 913 880 c 128
 966 839 966 839 1005.5 788 c 128
 1045 737 1045 737 1064.5 673.5 c 128
 1084 610 1084 610 1069 527 c 257
 1060 479 1060 479 1037.5 433.5 c 128
 1015 388 1015 388 982.5 350 c 128
 950 312 950 312 909.5 282 c 128
 869 252 869 252 825 234 c 257
NamedP: "iv04"
 857 205 857 205 883 173 c 128
 909 141 909 141 926 106 c 128
 943 71 943 71 949.5 33 c 128
 956 -5 956 -5 949 -46 c 257
 934 -128 934 -128 892 -193.5 c 128
 850 -259 850 -259 783 -305 c 128
 716 -351 716 -351 627.5 -375.5 c 128
 539 -400 539 -400 431 -400 c 257
NamedP: "av01"
 384 -400 384 -400 341 -395 c 128
 298 -390 298 -390 257 -378 c 128
 216 -366 216 -366 176 -347 c 128
 136 -328 136 -328 95 -299 c 257
 231 -129 l 257
 269 -152 269 -152 300 -166 c 128
 331 -180 331 -180 357.5 -187.5 c 128
 384 -195 384 -195 406.5 -197.5 c 128
 429 -200 429 -200 450 -200 c 257
NamedP: "iv05"
 481 -200 481 -200 510.5 -192 c 128
 540 -184 540 -184 564 -166.5 c 128
 588 -149 588 -149 605 -121 c 128
 622 -93 622 -93 629 -54 c 257
 636 -15 636 -15 626.5 15 c 128
 617 45 617 45 596 70.5 c 128
 575 96 575 96 545.5 118 c 128
 516 140 516 140 484 163 c 257
NamedP: "iv06"
 431 200 431 200 378 240.5 c 128
 325 281 325 281 285.5 332 c 128
 246 383 246 383 226.5 446.5 c 128
 207 510 207 510 222 593 c 257
 231 645 231 645 253.5 689 c 128
 276 733 276 733 308 769 c 128
 340 805 340 805 380 833.5 c 128
 420 862 420 862 464 885 c 257
NamedP: "iv08"
 432 915 432 915 406.5 947 c 128
 381 979 381 979 364 1014 c 128
 347 1049 347 1049 340.5 1087 c 128
 334 1125 334 1125 342 1166 c 257
 356 1248 356 1248 398 1313 c 128
 440 1378 440 1378 506.5 1423.5 c 128
 573 1469 573 1469 662 1493 c 128
 751 1517 751 1517 859 1517 c 257
NamedP: "at01"
 951 1517 951 1517 1032 1496.5 c 128
 1113 1476 1113 1476 1194 1419 c 257
 1059 1249 l 257
NamedP: "hr00"
631 747 m 257
NamedP: "iv02"
 617 737 l 257
 605 728 605 728 590.5 714.5 c 128
 576 701 576 701 563 683.5 c 128
 550 666 550 666 539.5 644 c 128
 529 622 529 622 525 595 c 257
 519 561 519 561 527 532 c 128
 535 503 535 503 552.5 477.5 c 128
 570 452 570 452 593 429.5 c 128
 616 407 616 407 640 387 c 257
 660 372 l 257
NamedP: "iv07"
 674 383 l 257
 699 401 699 401 727.5 436.5 c 128
 756 472 756 472 766 525 c 257
 772 558 772 558 763.5 587 c 128
 755 616 755 616 738 641.5 c 128
 721 667 721 667 698 689 c 128
 675 711 675 711 651 731 c 257
 631 747 l 257
NamedP: "iv02"
EndSplineSet
PickledDataWithLists: "(dp0
Vcom.adobe.type.autohint
p1
(c_codecs
encode
p2
(Vdata
p3
Vlatin1
p4
tp5
Rp6
g2
(V<data>\\u000a        <hintSetList>\\u000a          <hintset pointTag=\"hr00\">\\u000a            <hstem pos=\"-420\" width=\"127\"/>\\u000a            <hstem pos=\"186\" width=\"85\"/>\\u000a            <hstem pos=\"829\" width=\"85\"/>\\u000a            <hstem pos=\"1393\" width=\"127\"/>\\u000a            <vstem pos=\"126\" width=\"180\"/>\\u000a            <vstem pos=\"676\" width=\"174\"/>\\u000a          </hintset>\\u000a        </hintSetList>\\u000a      </data>
p7
g4
tp8
Rp9
Ntp10
sVcom.fontlab.ttprogram
p11
(g2
(Vdata
p12
g4
tp13
Rp14
g2
(V<data>\\u000a        <ttProgram>\\u000a          <ttc align=\"round\" code=\"alignv\" point=\"av01\"/>\\u000a          <ttc code=\"alignt\" point=\"at01\" zone=\"t: 1\"/>\\u000a          <ttc code=\"interpolatev\" point=\"iv01\" point1=\"iv02\" point2=\"iv03\"/>\\u000a          <ttc code=\"interpolatev\" point=\"iv04\" point1=\"iv02\" point2=\"iv05\"/>\\u000a          <ttc code=\"interpolatev\" point=\"iv06\" point1=\"iv05\" point2=\"iv07\"/>\\u000a          <ttc code=\"interpolatev\" point=\"iv08\" point1=\"iv03\" point2=\"iv07\"/>\\u000a        </ttProgram>\\u000a      </data>
p15
g4
tp16
Rp17
Ntp18
sVcom.typemytype.robofont.guides
p19
(lp20
(dp21
Vangle
p22
I90
sVisGlobal
p23
I00
sVmagnetic
p24
I5
sVx
p25
I850
sVy
p26
I0
sas."
EndChar
StartChar: copyright
Encoding: 198 169 198
GlifName: copyright
Width: 1300
VWidth: 0
Flags: W
LayerCount: 2
Fore
SplineSet
732 1517 m 256
NamedP: "+AxEA-T+AMgA"
 538 1517 538 1517 376 1379 c 0
 214 1241 214 1241 180 1047 c 256
 146 852 146 852 259.5 714.5 c 0
 373 577 373 577 567 577 c 256
 694 577 694 577 813.5 640 c 0
 933 703 933 703 1015 811 c 0
 1097 919 1097 919 1120 1047 c 256
 1142 1174 1142 1174 1098 1282.5 c 0
 1054 1391 1054 1391 956.5 1454 c 0
 859 1517 859 1517 732 1517 c 256
NamedP: "+AxEA-T+AMgA"
588 701 m 256
 446 701 446 701 362.5 804 c 0
 279 907 279 907 304 1047 c 256
 329 1190 329 1190 448.5 1291.5 c 0
 568 1393 568 1393 711 1393 c 256
 854 1393 854 1393 937.5 1291.5 c 0
 1021 1190 1021 1190 996 1047 c 256
 971 905 971 905 849.5 803 c 0
 728 701 728 701 588 701 c 256
805 1165 m 257
 766 1204 766 1204 708 1204 c 256
 653 1204 653 1204 619.5 1161 c 0
 586 1118 586 1118 574 1052 c 256
 568 1009 568 1009 570.5 973 c 0
 573 937 573 937 595 913 c 0
 617 889 617 889 658 889 c 256
 712 889 712 889 781 929 c 257
 821 841 l 257
 731 791 731 791 633 791 c 256
 547 791 547 791 491 829.5 c 0
 435 868 435 868 416.5 927.5 c 0
 398 987 398 987 410 1058 c 256
 428 1160 428 1160 511 1231 c 0
 594 1302 594 1302 726 1302 c 256
 834 1302 834 1302 892 1231 c 257
 805 1165 l 257
EndSplineSet
PickledDataWithLists: "(dp0
Vcom.adobe.type.autohint
p1
(c_codecs
encode
p2
(Vdata
p3
Vlatin1
p4
tp5
Rp6
g2
(V<data>\\u000a        <hintSetList>\\u000a          <hintset pointTag=\"hr00\">\\u000a            <hstem pos=\"790\" width=\"104\"/>\\u000a            <hstem pos=\"1198\" width=\"101\"/>\\u000a            <vstem pos=\"341\" width=\"165\"/>\\u000a          </hintset>\\u000a        </hintSetList>\\u000a      </data>
p7
g4
tp8
Rp9
Ntp10
s."
EndChar
StartChar: ordfeminine
Encoding: 356 170 356
GlifName: ordfeminine
Width: 1300
VWidth: 0
Flags: W
LayerCount: 2
Fore
SplineSet
189 810 m 257
NamedP: "hr00"
 631 810 l 257
 610 690 l 257
 168 690 l 257
 189 810 l 257
NamedP: "hr00"
565 1401 m 257
 555 1403 555 1403 546.5 1404 c 128
 538 1405 538 1405 534 1405 c 257
 497 1405 497 1405 468 1389.5 c 128
 439 1374 439 1374 418.5 1348 c 128
 398 1322 398 1322 386 1287.5 c 128
 374 1253 374 1253 370 1214 c 257
 367 1183 367 1183 368 1156 c 128
 369 1129 369 1129 374.5 1108 c 128
 380 1087 380 1087 390.5 1075 c 128
 401 1063 401 1063 415 1063 c 257
 432 1063 432 1063 447.5 1069 c 128
 463 1075 463 1075 476 1084 c 128
 489 1093 489 1093 499.5 1103.5 c 128
 510 1114 510 1114 517 1123 c 257
 565 1401 l 257
387 951 m 257
 348 951 348 951 319.5 963 c 128
 291 975 291 975 271 995 c 128
 251 1015 251 1015 238.5 1041.5 c 128
 226 1068 226 1068 220.5 1099 c 128
 215 1130 215 1130 214.5 1163.5 c 128
 214 1197 214 1197 219 1230 c 257
 223 1266 223 1266 235 1301.5 c 128
 247 1337 247 1337 267 1369 c 128
 287 1401 287 1401 314 1428 c 128
 341 1455 341 1455 376.5 1475 c 128
 412 1495 412 1495 455.5 1506 c 128
 499 1517 499 1517 551 1517 c 257
 582 1517 582 1517 613 1513 c 257
 640 1509 640 1509 671.5 1501.5 c 128
 703 1494 703 1494 732 1480 c 257
 660 1063 l 257
 653 959 l 257
 492 959 l 257
 506 1040 l 257
 429 954 l 257
 423 953 423 953 414 951.5 c 128
 405 950 405 950 387 951 c 257
EndSplineSet
PickledDataWithLists: "(dp0
Vcom.adobe.type.autohint
p1
(c_codecs
encode
p2
(Vdata
p3
Vlatin1
p4
tp5
Rp6
g2
(V<data>\\u000a        <hintSetList>\\u000a          <hintset pointTag=\"hr00\">\\u000a            <hstem pos=\"951\" width=\"112\"/>\\u000a            <hstem pos=\"1215\" width=\"112\"/>\\u000a            <hstem pos=\"1405\" width=\"112\"/>\\u000a            <vstem pos=\"151\" width=\"163\"/>\\u000a            <vstem pos=\"449\" width=\"163\"/>\\u000a          </hintset>\\u000a        </hintSetList>\\u000a      </data>
p7
g4
tp8
Rp9
Ntp10
s."
EndChar
StartChar: guillemotleft
Encoding: 271 171 271
GlifName: guillemotleft
Width: 1300
VWidth: 0
Flags: W
LayerCount: 2
Fore
SplineSet
710 1106 m 257,0,-1
NamedP: "at01"
 759 880 l 257,1,-1
 376 583 l 257,2,-1
 294 550 l 257,3,-1
NamedP: "iv01"
 363 517 l 257,4,-1
 646 224 l 257,5,-1
 510 -13 l 257,6,-1
NamedP: "ab01"
 41 476 l 257,7,-1
 66 620 l 257,8,-1
 710 1106 l 257,0,-1
NamedP: "at01"
1210 1106 m 257,9,-1
NamedP: "at02"
 1259 880 l 257,10,-1
 876 583 l 257,11,-1
 794 550 l 257,12,-1
NamedP: "iv02"
 863 517 l 257,13,-1
 1146 224 l 257,14,-1
 1010 -13 l 257,15,-1
NamedP: "ab02"
 541 476 l 257,16,-1
 566 620 l 257,17,-1
 1210 1106 l 257,9,-1
NamedP: "at02"
EndSplineSet
PickledDataWithLists: "(dp0
Vcom.fontlab.ttprogram
p1
(c_codecs
encode
p2
(Vdata
p3
Vlatin1
p4
tp5
Rp6
g2
(V<data>\\u000a        <ttProgram>\\u000a          <ttc code=\"alignt\" point=\"at01\" zone=\"t: x\"/>\\u000a          <ttc code=\"alignb\" point=\"ab01\" zone=\"b: 0\"/>\\u000a          <ttc code=\"interpolatev\" point=\"iv01\" point1=\"at01\" point2=\"ab01\"/>\\u000a          <ttc code=\"alignt\" point=\"at02\" zone=\"t: x\"/>\\u000a          <ttc code=\"alignb\" point=\"ab02\" zone=\"b: 0\"/>\\u000a          <ttc code=\"interpolatev\" point=\"iv02\" point1=\"at02\" point2=\"ab02\"/>\\u000a        </ttProgram>\\u000a      </data>
p7
g4
tp8
Rp9
Ntp10
s."
EndChar
StartChar: logicalnot
Encoding: 314 172 314
GlifName: logicalnot
Width: 1300
VWidth: 0
Flags: W
LayerCount: 2
Fore
SplineSet
1271 827 m 257
NamedP: "sv01"
 1209 586 l 257
 1151 258 l 257
NamedP: "sv02"
 809 258 l 257
NamedP: "av02"
 845 459 l 257
 882 600 l 257
NamedP: "sv04"
 32 600 l 257
NamedP: "sv03"
 72 827 l 257
NamedP: "av01"
 1271 827 l 257
NamedP: "sv01"
EndSplineSet
PickledDataWithLists: "(dp0
Vcom.fontlab.ttprogram
p1
(c_codecs
encode
p2
(Vdata
p3
Vlatin1
p4
tp5
Rp6
g2
(V<data>\\u000a        <ttProgram>\\u000a          <ttc align=\"round\" code=\"alignv\" point=\"av01\"/>\\u000a          <ttc align=\"round\" code=\"alignv\" point=\"av02\"/>\\u000a          <ttc code=\"singlev\" point1=\"av01\" point2=\"sv01\"/>\\u000a          <ttc code=\"singlev\" point1=\"av02\" point2=\"sv02\"/>\\u000a          <ttc code=\"singlev\" point1=\"av01\" point2=\"sv03\" stem=\"Y: 171\"/>\\u000a          <ttc code=\"singlev\" point1=\"sv03\" point2=\"sv04\"/>\\u000a        </ttProgram>\\u000a      </data>
p7
g4
tp8
Rp9
Ntp10
s."
EndChar
StartChar: registered
Encoding: 411 174 411
GlifName: registered
Width: 1300
VWidth: 0
Flags: W
LayerCount: 2
Fore
SplineSet
732 1517 m 256
NamedP: "+BJQAyAAA"
 538 1517 538 1517 376 1379 c 0
 214 1241 214 1241 180 1047 c 256
 146 852 146 852 259.5 714.5 c 0
 373 577 373 577 567 577 c 256
 694 577 694 577 813.5 640 c 0
 933 703 933 703 1015 811 c 0
 1097 919 1097 919 1120 1047 c 256
 1142 1174 1142 1174 1098 1282.5 c 0
 1054 1391 1054 1391 956.5 1454 c 0
 859 1517 859 1517 732 1517 c 256
NamedP: "+BJQAyAAA"
588 701 m 256
 446 701 446 701 362.5 804 c 0
 279 907 279 907 304 1047 c 256
 329 1190 329 1190 448.5 1291.5 c 0
 568 1393 568 1393 711 1393 c 256
 854 1393 854 1393 937.5 1291.5 c 0
 1021 1190 1021 1190 996 1047 c 256
 971 905 971 905 849.5 803 c 0
 728 701 728 701 588 701 c 256
629 1174 m 257
 610 1065 l 257
 630 1065 l 258
 671 1065 671 1065 697 1090 c 0
 723 1115 723 1115 729 1153 c 256
 737 1195 737 1195 716 1213.5 c 0
 695 1232 695 1232 660 1232 c 256
 641 1232 641 1232 633 1231 c 257
 629 1174 l 257
611 987 m 257
 608 991 608 991 603.5 992 c 128
 599 993 599 993 597 993 c 257
 563 800 l 257
 450 800 l 257
 524 1218 l 257
 525 1291 l 257
 563 1295 563 1295 595.5 1297.5 c 128
EndSplineSet
PickledDataWithLists: "(dp0
Vcom.adobe.type.autohint
p1
(c_codecs
encode
p2
(Vdata
p3
Vlatin1
p4
tp5
Rp6
g2
(V<data>\\u000a        <hintSetList>\\u000a          <hintset pointTag=\"hr00\">\\u000a            <hstem pos=\"807\" width=\"-7\"/>\\u000a            <hstem pos=\"1017\" width=\"53\"/>\\u000a            <hstem pos=\"1286\" width=\"48\"/>\\u000a            <vstem pos=\"400\" width=\"74\"/>\\u000a            <vstem pos=\"653\" width=\"66\"/>\\u000a          </hintset>\\u000a        </hintSetList>\\u000a      </data>
p7
g4
tp8
Rp9
Ntp10
s."
EndChar
StartChar: macron
Encoding: 318 175 318
GlifName: macron
Width: 1300
VWidth: 0
Flags: W
LayerCount: 2
Fore
SplineSet
319 1500 m 257
NamedP: "at01"
 1019 1500 l 257
NamedP: "sv01"
 980 1282 l 257
NamedP: "sv02"
 280 1282 l 257
 319 1500 l 257
NamedP: "at01"
EndSplineSet
PickledDataWithLists: "(dp0
Vcom.fontlab.ttprogram
p1
(c_codecs
encode
p2
(Vdata
p3
Vlatin1
p4
tp5
Rp6
g2
(V<data>\\u000a        <ttProgram>\\u000a          <ttc code=\"alignt\" point=\"at01\" zone=\"t: 1\"/>\\u000a          <ttc code=\"singlev\" point1=\"at01\" point2=\"sv01\"/>\\u000a          <ttc code=\"singlev\" point1=\"sv01\" point2=\"sv02\" stem=\"Y: 171\"/>\\u000a        </ttProgram>\\u000a      </data>
p7
g4
tp8
Rp9
Ntp10
s."
EndChar
StartChar: degree
Encoding: 206 176 206
GlifName: degree
Width: 1300
VWidth: 0
Flags: W
LayerCount: 2
Fore
SplineSet
547 1517 m 257,0,1
NamedP: "at01"
 608 1517 608 1517 658.5 1496 c 128,-1,2
 709 1475 709 1475 742.5 1438 c 128,-1,3
 776 1401 776 1401 791 1352 c 128,-1,4
 806 1303 806 1303 796 1247 c 257,5,6
 786 1191 786 1191 754 1142 c 128,-1,7
 722 1093 722 1093 675.5 1056.5 c 128,-1,8
 629 1020 629 1020 571 998.5 c 128,-1,9
 513 977 513 977 452 977 c 257,10,11
NamedP: "av01"
 390 977 390 977 340 998.5 c 128,-1,12
 290 1020 290 1020 256.5 1056.5 c 128,-1,13
 223 1093 223 1093 208.5 1142 c 128,-1,14
 194 1191 194 1191 204 1247 c 257,15,16
 214 1303 214 1303 245.5 1352 c 128,-1,17
 277 1401 277 1401 323.5 1438 c 128,-1,18
 370 1475 370 1475 427.5 1496 c 128,-1,19
 485 1517 485 1517 547 1517 c 257,0,1
NamedP: "at01"
482 1145 m 257,20,21
NamedP: "av02"
 505 1145 505 1145 527 1153 c 128,-1,22
 549 1161 549 1161 566.5 1175 c 128,-1,23
 584 1189 584 1189 596 1207.5 c 128,-1,24
 608 1226 608 1226 612 1247 c 257,25,26
 615 1268 615 1268 609.5 1286.5 c 128,-1,27
 604 1305 604 1305 591 1319 c 128,-1,28
 578 1333 578 1333 559 1341 c 128,-1,29
 540 1349 540 1349 517 1349 c 257,30,31
NamedP: "av03"
 494 1349 494 1349 472 1341 c 128,-1,32
 450 1333 450 1333 432.5 1319 c 128,-1,33
 415 1305 415 1305 403 1286.5 c 128,-1,34
 391 1268 391 1268 388 1247 c 257,35,36
 384 1226 384 1226 389.5 1207.5 c 128,-1,37
 395 1189 395 1189 408 1175 c 128,-1,38
 421 1161 421 1161 440 1153 c 128,-1,39
 459 1145 459 1145 482 1145 c 257,20,21
NamedP: "av02"
EndSplineSet
PickledDataWithLists: "(dp0
Vcom.fontlab.ttprogram
p1
(c_codecs
encode
p2
(Vdata
p3
Vlatin1
p4
tp5
Rp6
g2
(V<data>\\u000a        <ttProgram>\\u000a          <ttc align=\"round\" code=\"alignv\" point=\"av01\"/>\\u000a          <ttc align=\"round\" code=\"alignv\" point=\"av02\"/>\\u000a          <ttc align=\"round\" code=\"alignv\" point=\"av03\"/>\\u000a          <ttc code=\"alignt\" point=\"at01\" zone=\"t: 1\"/>\\u000a        </ttProgram>\\u000a      </data>
p7
g4
tp8
Rp9
Ntp10
s."
EndChar
StartChar: plusminus
Encoding: 385 177 385
GlifName: plusminus
Width: 1300
VWidth: 0
Flags: W
LayerCount: 2
Fore
SplineSet
239 862 m 257,0,-1
NamedP: "av02"
 599 862 l 257,1,-1
 672 1196 l 257,2,-1
NamedP: "av01"
 892 1196 l 257,3,-1
NamedP: "sv01"
 819 862 l 257,4,-1
 1179 862 l 257,5,-1
NamedP: "sv02"
 1143 702 l 257,6,-1
NamedP: "sv03"
 783 702 l 257,7,-1
 713 382 l 257,8,-1
NamedP: "sv04"
 493 382 l 257,9,-1
NamedP: "av04"
 563 702 l 257,10,-1
 203 702 l 257,11,-1
 239 862 l 257,0,-1
NamedP: "av02"
159 290 m 257,12,-1
NamedP: "av03"
 1059 290 l 257,13,-1
NamedP: "sv05"
 1020 88 l 257,14,-1
NamedP: "sv06"
 120 88 l 257,15,-1
 159 290 l 257,12,-1
NamedP: "av03"
EndSplineSet
PickledDataWithLists: "(dp0
Vcom.adobe.type.autohint
p1
(c_codecs
encode
p2
(Vdata
p3
Vlatin1
p4
tp5
Rp6
g2
(V<data>\\u000a        <hintSetList>\\u000a          <hintset pointTag=\"av03\">\\u000a            <hstem pos=\"-261\" width=\"-19\"/>\\u000a            <hstem pos=\"56\" width=\"139\"/>\\u000a            <hstem pos=\"531\" width=\"-18\"/>\\u000a            <vstem pos=\"412\" width=\"155\"/>\\u000a          </hintset>\\u000a        </hintSetList>\\u000a      </data>
p7
g4
tp8
Rp9
Ntp10
sVcom.fontlab.ttprogram
p11
(g2
(Vdata
p12
g4
tp13
Rp14
g2
(V<data>\\u000a        <ttProgram>\\u000a          <ttc align=\"round\" code=\"alignv\" point=\"av01\"/>\\u000a          <ttc align=\"round\" code=\"alignv\" point=\"av02\"/>\\u000a          <ttc align=\"round\" code=\"alignv\" point=\"av03\"/>\\u000a          <ttc align=\"round\" code=\"alignv\" point=\"av04\"/>\\u000a          <ttc code=\"singlev\" point1=\"av01\" point2=\"sv01\"/>\\u000a          <ttc code=\"singlev\" point1=\"av02\" point2=\"sv02\"/>\\u000a          <ttc code=\"singlev\" point1=\"sv02\" point2=\"sv03\" stem=\"Y: 162\"/>\\u000a          <ttc code=\"singlev\" point1=\"av04\" point2=\"sv04\"/>\\u000a          <ttc code=\"singlev\" point1=\"av03\" point2=\"sv05\"/>\\u000a          <ttc code=\"singlev\" point1=\"sv05\" point2=\"sv06\" stem=\"Y: 171\"/>\\u000a        </ttProgram>\\u000a      </data>
p15
g4
tp16
Rp17
Ntp18
s."
EndChar
StartChar: twosuperior
Encoding: 537 178 537
GlifName: twosuperior
Width: 1300
VWidth: 0
Flags: W
LayerCount: 2
Fore
SplineSet
123 720 m 257
NamedP: "hr00"
 139 815 l 257
 169 852 169 852 207 892.5 c 128
 245 933 245 933 284.5 972.5 c 128
 324 1012 324 1012 361 1047 c 128
 398 1082 398 1082 426 1107 c 257
 459 1136 459 1136 481 1156 c 128
 503 1176 503 1176 518 1193 c 128
 533 1210 533 1210 541 1227.5 c 128
 549 1245 549 1245 553 1268 c 257
 557 1287 557 1287 554 1305 c 128
 551 1323 551 1323 542 1337.5 c 128
 533 1352 533 1352 518 1361 c 128
 503 1370 503 1370 483 1370 c 257
 442 1370 442 1370 406 1342.5 c 128
 370 1315 370 1315 338 1268 c 257
 229 1311 l 257
 250 1350 250 1350 278.5 1380.5 c 128
 307 1411 307 1411 342 1433 c 128
 377 1455 377 1455 419 1466.5 c 128
 461 1478 461 1478 509 1478 c 257
 566 1478 566 1478 607.5 1459.5 c 128
 649 1441 649 1441 674 1410.5 c 128
 699 1380 699 1380 708.5 1341 c 128
 718 1302 718 1302 711 1263 c 257
 705 1228 705 1228 688.5 1198.5 c 128
 672 1169 672 1169 649 1141.5 c 128
 626 1114 626 1114 597.5 1087 c 128
 569 1060 569 1060 539 1030 c 257
 509 1000 509 1000 476.5 969 c 128
 444 938 444 938 415 910 c 128
 386 882 386 882 362 858.5 c 128
 338 835 338 835 324 820 c 257
 645 820 l 257
 628 720 l 257
 123 720 l 257
NamedP: "hr00"
EndSplineSet
PickledDataWithLists: "(dp0
Vcom.adobe.type.autohint
p1
(c_codecs
encode
p2
(Vdata
p3
Vlatin1
p4
tp5
Rp6
g2
(V<data>\\u000a        <hintSetList>\\u000a          <hintset pointTag=\"hr00\">\\u000a            <hstem pos=\"720\" width=\"80\"/>\\u000a            <hstem pos=\"1394\" width=\"84\"/>\\u000a            <vstem pos=\"517\" width=\"97\"/>\\u000a          </hintset>\\u000a        </hintSetList>\\u000a      </data>
p7
g4
tp8
Rp9
Ntp10
s."
EndChar
StartChar: threesuperior
Encoding: 526 179 526
GlifName: threesuperior
Width: 1300
VWidth: 0
Flags: W
LayerCount: 2
Fore
SplineSet
279 1189 m 257,0,1
NamedP: "hr00"
 296 1199 296 1199 319 1214 c 128,-1,2
 342 1229 342 1229 368.5 1247 c 128,-1,3
 395 1265 395 1265 422.5 1285 c 128,-1,4
 450 1305 450 1305 476 1325.5 c 128,-1,5
 502 1346 502 1346 524 1367 c 128,-1,6
 546 1388 546 1388 562 1407 c 257,7,-1
 425 1370 l 257,8,-1
 259 1370 l 257,9,-1
 288 1470 l 257,10,-1
 709 1470 l 257,11,-1
 693 1383 l 257,12,13
 671 1344 671 1344 636 1311 c 128,-1,14
 601 1278 601 1278 560 1246 c 257,15,-1
 475 1204 l 257,16,17
 527 1204 527 1204 568 1190.5 c 128,-1,18
 609 1177 609 1177 635 1151.5 c 128,-1,19
 661 1126 661 1126 671 1089 c 128,-1,20
 681 1052 681 1052 673 1006 c 257,21,22
 664 957 664 957 636.5 916.5 c 128,-1,23
 609 876 609 876 568.5 844 c 128,-1,24
 528 812 528 812 476.5 788.5 c 128,-1,25
 425 765 425 765 368.5 750 c 128,-1,26
 312 735 312 735 253.5 727.5 c 128,-1,27
 195 720 195 720 140 720 c 257,28,-1
 158 820 l 257,29,30
 217 822 217 822 275.5 835.5 c 128,-1,31
 334 849 334 849 382 872 c 128,-1,32
 430 895 430 895 462.5 928 c 128,-1,33
 495 961 495 961 502 1001 c 257,34,35
 507 1030 507 1030 498.5 1050 c 128,-1,36
 490 1070 490 1070 471 1082 c 128,-1,37
 452 1094 452 1094 425 1099.5 c 128,-1,38
 398 1105 398 1105 367 1105 c 257,39,40
 360 1105 360 1105 345.5 1104 c 128,-1,41
 331 1103 331 1103 315 1102.5 c 128,-1,42
 299 1102 299 1102 285 1101 c 128,-1,43
 271 1100 271 1100 263 1100 c 257,44,-1
 279 1189 l 257,0,1
NamedP: "hr00"
EndSplineSet
PickledDataWithLists: "(dp0
Vcom.adobe.type.autohint
p1
(c_codecs
encode
p2
(Vdata
p3
Vlatin1
p4
tp5
Rp6
g2
(V<data>\\u000a        <hintSetList>\\u000a          <hintset pointTag=\"hr00\">\\u000a            <hstem pos=\"720\" width=\"80\"/>\\u000a            <hstem pos=\"1115\" width=\"79\"/>\\u000a            <hstem pos=\"1390\" width=\"80\"/>\\u000a            <vstem pos=\"523\" width=\"105\"/>\\u000a          </hintset>\\u000a        </hintSetList>\\u000a      </data>
p7
g4
tp8
Rp9
Ntp10
s."
EndChar
StartChar: mu
Encoding: 324 181 324
GlifName: mu
Width: 1300
VWidth: 0
Flags: W
LayerCount: 2
Fore
SplineSet
1282 51 m 257
 1265 37 1265 37 1245.5 25 c 128
 1226 13 1226 13 1199.5 3.5 c 128
 1173 -6 1173 -6 1138.5 -11.5 c 128
 1104 -17 1104 -17 1056 -17 c 257
NamedP: "ab03"
 1022 -17 1022 -17 991 -5 c 128
 960 7 960 7 935.5 32 c 128
 911 57 911 57 893.5 96 c 128
 876 135 876 135 870 190 c 257
 802 72 l 257
 782 56 782 56 755.5 40 c 128
 729 24 729 24 696.5 11.5 c 128
 664 -1 664 -1 626.5 -9 c 128
 589 -17 589 -17 546 -17 c 257
NamedP: "ab02"
 526 -17 526 -17 498 -12 c 128
 470 -7 470 -7 442 1.5 c 128
 414 10 414 10 390.5 20 c 128
 367 30 367 30 357 40 c 257
 386 -166 l 257
 327 -500 l 257
NamedP: "sv01"
 17 -500 l 257
NamedP: "ab01"
 299 1100 l 257
NamedP: "at01"
 613 1120 l 257
NamedP: "at02"
 479 362 l 257
NamedP: "av01"
 472 324 472 324 479.5 293.5 c 128
 487 263 487 263 503.5 242 c 128
 520 221 520 221 543.5 210 c 128
 567 199 567 199 594 199 c 257
 637 199 637 199 677 219.5 c 128
 717 240 717 240 752 268 c 257
 899 1100 l 257
NamedP: "sv02"
 1213 1120 l 257
NamedP: "at03"
 1080 365 l 257
NamedP: "sv03"
 1063 273 1063 273 1075.5 236 c 128
 1088 199 1088 199 1123 199 c 257
 1150 199 1150 199 1168.5 204.5 c 128
 1187 210 1187 210 1214 223 c 257
 1282 51 l 257
EndSplineSet
PickledDataWithLists: "(dp0
Vcom.fontlab.ttprogram
p1
(c_codecs
encode
p2
(Vdata
p3
Vlatin1
p4
tp5
Rp6
g2
(V<data>\\u000a        <ttProgram>\\u000a          <ttc align=\"round\" code=\"alignv\" point=\"av01\"/>\\u000a          <ttc code=\"alignt\" point=\"at01\" zone=\"t: x\"/>\\u000a          <ttc code=\"alignt\" point=\"at02\" zone=\"t: x\"/>\\u000a          <ttc code=\"alignt\" point=\"at03\" zone=\"t: x\"/>\\u000a          <ttc code=\"alignb\" point=\"ab01\" zone=\"b: -500\"/>\\u000a          <ttc code=\"alignb\" point=\"ab02\" zone=\"b: 0\"/>\\u000a          <ttc code=\"alignb\" point=\"ab03\" zone=\"b: 0\"/>\\u000a          <ttc code=\"singlev\" point1=\"ab01\" point2=\"sv01\"/>\\u000a          <ttc code=\"singlev\" point1=\"at01\" point2=\"sv02\"/>\\u000a          <ttc code=\"singlev\" point1=\"av01\" point2=\"sv03\"/>\\u000a        </ttProgram>\\u000a      </data>
p7
g4
tp8
Rp9
Ntp10
s."
EndChar
StartChar: periodcentered
Encoding: 372 183 372
GlifName: periodcentered
Width: 1300
VWidth: 0
Flags: W
LayerCount: 2
Fore
SplineSet
103 683 m 257,0,1
NamedP: "hr00"
 110 724 110 724 132 760 c 128,-1,2
 154 796 154 796 185.5 823 c 128,-1,3
 217 850 217 850 255.5 865.5 c 128,-1,4
 294 881 294 881 335 881 c 257,5,6
NamedP: "av01"
 376 881 376 881 409 865.5 c 128,-1,7
 442 850 442 850 464.5 823 c 128,-1,8
 487 796 487 796 496 760 c 128,-1,9
 505 724 505 724 498 683 c 257,10,11
 490 642 490 642 468.5 605.5 c 128,-1,12
 447 569 447 569 415.5 542 c 128,-1,13
 384 515 384 515 345.5 499 c 128,-1,14
 307 483 307 483 266 483 c 257,15,16
NamedP: "av02"
 225 483 225 483 191.5 499 c 128,-1,17
 158 515 158 515 136 542 c 128,-1,18
 114 569 114 569 104.5 605.5 c 128,-1,19
 95 642 95 642 103 683 c 257,0,1
NamedP: "hr00"
EndSplineSet
PickledDataWithLists: "(dp0
Vcom.adobe.type.autohint
p1
(c_codecs
encode
p2
(Vdata
p3
Vlatin1
p4
tp5
Rp6
g2
(V<data>\\u000a        <hintSetList>\\u000a          <hintset pointTag=\"hr00\">\\u000a            <hstem pos=\"483\" width=\"244\"/>\\u000a            <vstem pos=\"78\" width=\"242\"/>\\u000a          </hintset>\\u000a        </hintSetList>\\u000a      </data>
p7
g4
tp8
Rp9
Ntp10
sVcom.fontlab.ttprogram
p11
(g2
(Vdata
p12
g4
tp13
Rp14
g2
(V<data>\\u000a        <ttProgram>\\u000a          <ttc align=\"round\" code=\"alignv\" point=\"av01\"/>\\u000a          <ttc align=\"round\" code=\"alignv\" point=\"av02\"/>\\u000a        </ttProgram>\\u000a      </data>
p15
g4
tp16
Rp17
Ntp18
s."
EndChar
StartChar: cedilla
Encoding: 169 184 169
GlifName: cedilla
Width: 1300
VWidth: 0
Flags: W
LayerCount: 2
Fore
SplineSet
719 0 m 257
NamedP: "sv01"
 743 -20 743 -20 761 -46 c 257
 776 -69 776 -69 785.5 -100.5 c 128
 795 -132 795 -132 788 -171 c 257
 779 -221 779 -221 748 -264 c 128
 717 -307 717 -307 672 -338.5 c 128
 627 -370 627 -370 571.5 -388.5 c 128
 516 -407 516 -407 459 -407 c 257
NamedP: "av01"
 399 -407 399 -407 344.5 -389 c 128
 290 -371 290 -371 246 -349 c 257
 195 -323 195 -323 150 -290 c 257
 293 -131 l 257
 322 -151 322 -151 351 -166 c 257
 375 -179 375 -179 402.5 -189.5 c 128
 430 -200 430 -200 452 -200 c 257
 475 -200 475 -200 497.5 -187.5 c 128
 520 -175 520 -175 525 -147 c 257
 529 -126 529 -126 521 -102.5 c 128
 513 -79 513 -79 501 -58 c 128
 489 -37 489 -37 476 -21.5 c 128
NamedP: "ab01"
 463 -6 463 -6 457 0 c 257
 719 0 l 257
NamedP: "sv01"
EndSplineSet
PickledDataWithLists: "(dp0
Vcom.fontlab.ttprogram
p1
(c_codecs
encode
p2
(Vdata
p3
Vlatin1
p4
tp5
Rp6
g2
(V<data>\\u000a        <ttProgram>\\u000a          <ttc align=\"round\" code=\"alignv\" point=\"av01\"/>\\u000a          <ttc code=\"alignb\" point=\"ab01\" zone=\"b: 0\"/>\\u000a          <ttc code=\"singlev\" point1=\"ab01\" point2=\"sv01\" round=\"true\"/>\\u000a        </ttProgram>\\u000a      </data>
p7
g4
tp8
Rp9
Ntp10
s."
EndChar
StartChar: onesuperior
Encoding: 354 185 354
GlifName: onesuperior
Width: 1300
VWidth: 0
Flags: W
LayerCount: 2
Fore
SplineSet
422 1160 m 257
NamedP: "hr00"
 491 1341 l 257
 353 1206 l 257
 305 1169 l 257
 243 1261 l 257
 522 1480 l 257
 642 1470 l 257
 527 820 l 257
 649 820 l 257
 631 720 l 257
 222 720 l 257
 240 820 l 257
 362 820 l 257
 422 1160 l 257
NamedP: "hr00"
EndSplineSet
PickledDataWithLists: "(dp0
Vcom.adobe.type.autohint
p1
(c_codecs
encode
p2
(Vdata
p3
Vlatin1
p4
tp5
Rp6
g2
(V<data>\\u000a        <hintSetList>\\u000a          <hintset pointTag=\"hr00\">\\u000a            <hstem pos=\"720\" width=\"80\"/>\\u000a            <hstem pos=\"1480\" width=\"-10\"/>\\u000a            <vstem pos=\"455\" width=\"105\"/>\\u000a          </hintset>\\u000a        </hintSetList>\\u000a      </data>
p7
g4
tp8
Rp9
Ntp10
s."
EndChar
StartChar: ordmasculine
Encoding: 357 186 357
GlifName: ordmasculine
Width: 1300
VWidth: 0
Flags: W
LayerCount: 2
Fore
SplineSet
200 810 m 257
NamedP: "hr00"
 642 810 l 257
 621 690 l 257
 179 690 l 257
 200 810 l 257
NamedP: "hr00"
467 950 m 257
 407 950 407 950 360.5 972 c 128
 314 994 314 994 285 1032 c 128
 256 1070 256 1070 245 1122 c 128
 234 1174 234 1174 244 1235 c 257
 255 1296 255 1296 283.5 1347.5 c 128
 312 1399 312 1399 354.5 1437 c 128
 397 1475 397 1475 451.5 1496 c 128
 506 1517 506 1517 567 1517 c 257
 627 1517 627 1517 673 1496 c 128
 719 1475 719 1475 747.5 1437 c 128
 776 1399 776 1399 786 1347.5 c 128
 796 1296 796 1296 786 1235 c 257
 775 1174 775 1174 747 1122 c 128
 719 1070 719 1070 677.5 1032 c 128
 636 994 636 994 582.5 972 c 128
 529 950 529 950 467 950 c 257
620 1223 m 257
 626 1257 626 1257 626 1290 c 128
 626 1323 626 1323 618 1349 c 128
 610 1375 610 1375 592 1391 c 128
 574 1407 574 1407 545 1407 c 257
 517 1407 517 1407 494.5 1393.5 c 128
 472 1380 472 1380 455 1357 c 128
 438 1334 438 1334 426.5 1304.5 c 128
 415 1275 415 1275 409 1244 c 257
 403 1210 403 1210 403.5 1177 c 128
 404 1144 404 1144 413 1118 c 128
 422 1092 422 1092 440.5 1076 c 128
 459 1060 459 1060 488 1060 c 257
 515 1060 515 1060 537 1074 c 128
 559 1088 559 1088 576 1111 c 128
 593 1134 593 1134 604 1163 c 128
 615 1192 615 1192 620 1223 c 257
EndSplineSet
PickledDataWithLists: "(dp0
Vcom.adobe.type.autohint
p1
(c_codecs
encode
p2
(Vdata
p3
Vlatin1
p4
tp5
Rp6
g2
(V<data>\\u000a        <hintSetList>\\u000a          <hintset pointTag=\"hr00\">\\u000a            <hstem pos=\"951\" width=\"109\"/>\\u000a            <hstem pos=\"1407\" width=\"110\"/>\\u000a            <vstem pos=\"209\" width=\"163\"/>\\u000a            <vstem pos=\"587\" width=\"163\"/>\\u000a          </hintset>\\u000a        </hintSetList>\\u000a      </data>
p7
g4
tp8
Rp9
Ntp10
s."
EndChar
StartChar: guillemotright
Encoding: 272 187 272
GlifName: guillemotright
Width: 1300
VWidth: 0
Flags: W
LayerCount: 2
Fore
SplineSet
789 619 m 257,0,-1
 764 476 l 257,1,-1
 122 -13 l 257,2,-1
NamedP: "ab01"
 70 224 l 257,3,-1
 455 517 l 257,4,-1
 535 550 l 257,5,-1
NamedP: "iv01"
 466 582 l 257,6,-1
 187 880 l 257,7,-1
 316 1106 l 257,8,-1
NamedP: "at01"
 789 619 l 257,0,-1
1289 619 m 257,9,-1
 1264 476 l 257,10,-1
 622 -13 l 257,11,-1
NamedP: "ab02"
 570 224 l 257,12,-1
 955 517 l 257,13,-1
 1035 550 l 257,14,-1
NamedP: "iv02"
 966 582 l 257,15,-1
 687 880 l 257,16,-1
 816 1106 l 257,17,-1
NamedP: "at02"
 1289 619 l 257,9,-1
EndSplineSet
PickledDataWithLists: "(dp0
Vcom.fontlab.ttprogram
p1
(c_codecs
encode
p2
(Vdata
p3
Vlatin1
p4
tp5
Rp6
g2
(V<data>\\u000a        <ttProgram>\\u000a          <ttc code=\"alignt\" point=\"at01\" zone=\"t: x\"/>\\u000a          <ttc code=\"alignb\" point=\"ab01\" zone=\"b: 0\"/>\\u000a          <ttc code=\"interpolatev\" point=\"iv01\" point1=\"at01\" point2=\"ab01\"/>\\u000a          <ttc code=\"alignt\" point=\"at02\" zone=\"t: x\"/>\\u000a          <ttc code=\"alignb\" point=\"ab02\" zone=\"b: 0\"/>\\u000a          <ttc code=\"interpolatev\" point=\"iv02\" point1=\"at02\" point2=\"ab02\"/>\\u000a        </ttProgram>\\u000a      </data>
p7
g4
tp8
Rp9
Ntp10
s."
EndChar
StartChar: onequarter
Encoding: 352 188 352
GlifName: onequarter
Width: 1300
VWidth: 0
Flags: W
LayerCount: 2
Fore
SplineSet
261 0 m 257
 76 0 l 257
 1116 1500 l 257
 1292 1500 l 257
 261 0 l 257
300 1160 m 257
NamedP: "hr01"
 369 1341 l 257
 231 1206 l 257
 183 1169 l 257
 121 1261 l 257
 400 1480 l 257
 520 1470 l 257
 405 820 l 257
 527 820 l 257
 509 720 l 257
 100 720 l 257
 118 820 l 257
 240 820 l 257
 300 1160 l 257
NamedP: "hr01"
1191 150 m 257
NamedP: "hr02"
 1102 150 l 257
 1076 0 l 257
 915 0 l 257
 942 150 l 257
 662 150 l 257
 680 250 l 257
 1016 760 l 257
 1155 750 l 257
 924 381 l 257
 814 250 l 257
 960 250 l 257
 984 390 l 257
 1147 400 l 257
 1120 250 l 257
 1220 250 l 257
 1191 150 l 257
NamedP: "hr02"
EndSplineSet
PickledDataWithLists: "(dp0
Vcom.adobe.type.autohint
p1
(c_codecs
encode
p2
(Vdata
p3
Vlatin1
p4
tp5
Rp6
g2
(V<data>\\u000a        <hintSetList>\\u000a          <hintset pointTag=\"hr01\">\\u000a            <hstem pos=\"720\" width=\"80\"/>\\u000a            <hstem pos=\"1480\" width=\"-10\"/>\\u000a            <vstem pos=\"333\" width=\"105\"/>\\u000a          </hintset>\\u000a          <hintset pointTag=\"hr02\">\\u000a            <hstem pos=\"10\" width=\"-10\"/>\\u000a            <hstem pos=\"150\" width=\"80\"/>\\u000a            <hstem pos=\"760\" width=\"-10\"/>\\u000a            <vstem pos=\"962\" width=\"105\"/>\\u000a          </hintset>\\u000a        </hintSetList>\\u000a      </data>
p7
g4
tp8
Rp9
Ntp10
s."
EndChar
StartChar: threequarters
Encoding: 525 190 525
GlifName: threequarters
Width: 1300
VWidth: 0
Flags: W
LayerCount: 2
Fore
SplineSet
261 0 m 257,0,-1
 76 0 l 257,1,-1
 1116 1500 l 257,2,-1
 1292 1500 l 257,3,-1
 261 0 l 257,0,-1
1169 150 m 257,4,-1
 1080 150 l 257,5,-1
 1054 0 l 257,6,-1
 893 0 l 257,7,-1
 920 150 l 257,8,-1
 640 150 l 257,9,-1
 658 250 l 257,10,-1
 994 760 l 257,11,-1
 1133 750 l 257,12,-1
 902 381 l 257,13,-1
 792 250 l 257,14,-1
 938 250 l 257,15,-1
 962 390 l 257,16,-1
 1125 400 l 257,17,-1
 1098 250 l 257,18,-1
 1198 250 l 257,19,-1
 1169 150 l 257,4,-1
239 1189 m 257,20,21
NamedP: "hr01"
 256 1199 256 1199 279 1214 c 128,-1,22
 302 1229 302 1229 328.5 1247 c 128,-1,23
 355 1265 355 1265 382.5 1285 c 128,-1,24
 410 1305 410 1305 436 1325.5 c 128,-1,25
 462 1346 462 1346 484 1367 c 128,-1,26
 506 1388 506 1388 522 1407 c 257,27,-1
 385 1370 l 257,28,-1
 219 1370 l 257,29,-1
 248 1470 l 257,30,-1
 669 1470 l 257,31,-1
 653 1383 l 257,32,33
 631 1344 631 1344 596 1311 c 128,-1,34
 561 1278 561 1278 520 1246 c 257,35,-1
 435 1204 l 257,36,37
 487 1204 487 1204 528 1190.5 c 128,-1,38
 569 1177 569 1177 595 1151.5 c 128,-1,39
 621 1126 621 1126 631 1089 c 128,-1,40
 641 1052 641 1052 633 1006 c 257,41,42
 624 957 624 957 596.5 916.5 c 128,-1,43
 569 876 569 876 528.5 844 c 128,-1,44
 488 812 488 812 436.5 788.5 c 128,-1,45
 385 765 385 765 328.5 750 c 128,-1,46
 272 735 272 735 213.5 727.5 c 128,-1,47
 155 720 155 720 100 720 c 257,48,-1
 118 820 l 257,49,50
 177 822 177 822 235.5 835.5 c 128,-1,51
 294 849 294 849 342 872 c 128,-1,52
 390 895 390 895 422.5 928 c 128,-1,53
 455 961 455 961 462 1001 c 257,54,55
 467 1030 467 1030 458.5 1050 c 128,-1,56
 450 1070 450 1070 431 1082 c 128,-1,57
 412 1094 412 1094 385 1099.5 c 128,-1,58
 358 1105 358 1105 327 1105 c 257,59,60
 320 1105 320 1105 305.5 1104 c 128,-1,61
 291 1103 291 1103 275 1102.5 c 128,-1,62
 259 1102 259 1102 245 1101 c 128,-1,63
 231 1100 231 1100 223 1100 c 257,64,-1
 239 1189 l 257,20,21
NamedP: "hr01"
EndSplineSet
PickledDataWithLists: "(dp0
Vcom.adobe.type.autohint
p1
(c_codecs
encode
p2
(Vdata
p3
Vlatin1
p4
tp5
Rp6
g2
(V<data>\\u000a        <hintSetList>\\u000a          <hintset pointTag=\"hr01\">\\u000a            <hstem pos=\"720\" width=\"80\"/>\\u000a            <hstem pos=\"1115\" width=\"79\"/>\\u000a            <hstem pos=\"1390\" width=\"80\"/>\\u000a            <vstem pos=\"483\" width=\"105\"/>\\u000a          </hintset>\\u000a        </hintSetList>\\u000a      </data>
p7
g4
tp8
Rp9
Ntp10
s."
EndChar
StartChar: questiondown
Encoding: 394 191 394
GlifName: questiondown
Width: 1300
VWidth: 0
Flags: W
LayerCount: 2
Fore
SplineSet
141 -24 m 257
 152 36 152 36 180 85.5 c 128
 208 135 208 135 248 178 c 128
 288 221 288 221 336.5 259 c 128
 385 297 385 297 435 335 c 257
 469 360 469 360 503.5 391.5 c 128
 538 423 538 423 568.5 463 c 128
 599 503 599 503 622.5 553 c 128
 646 603 646 603 657 666 c 257
 974 701 l 257
 958 614 958 614 932 538 c 128
 906 462 906 462 865.5 395 c 128
 825 328 825 328 767.5 269.5 c 128
 710 211 710 211 630 158 c 257
 604 139 604 139 579.5 119 c 128
 555 99 555 99 535 76.5 c 128
 515 54 515 54 500.5 27.5 c 128
 486 1 486 1 480 -32 c 257
 473 -72 473 -72 482.5 -100.5 c 128
 492 -129 492 -129 513.5 -147.5 c 128
 535 -166 535 -166 565.5 -174.5 c 128
 596 -183 596 -183 630 -183 c 257
 656 -183 656 -183 695 -174.5 c 128
 734 -166 734 -166 779.5 -146.5 c 128
 825 -127 825 -127 873 -95 c 128
 921 -63 921 -63 964 -17 c 257
 1119 -168 l 257
 1049 -244 1049 -244 975.5 -292.5 c 128
 902 -341 902 -341 830 -368.5 c 128
 758 -396 758 -396 690.5 -406.5 c 128
 623 -417 623 -417 564 -417 c 257
 469 -417 469 -417 384.5 -393.5 c 128
 300 -370 300 -370 240 -321.5 c 128
 180 -273 180 -273 151.5 -199 c 128
 123 -125 123 -125 141 -24 c 257
1014 951 m 257
 1008 917 1008 917 990.5 887.5 c 128
 973 858 973 858 946.5 835.5 c 128
 920 813 920 813 888.5 800 c 128
 857 787 857 787 823 787 c 257
 789 787 789 787 761.5 800 c 128
 734 813 734 813 715.5 835.5 c 128
 697 858 697 858 689.5 887.5 c 128
 682 917 682 917 688 951 c 257
 694 984 694 984 712 1014.5 c 128
 730 1045 730 1045 756 1067.5 c 128
 782 1090 782 1090 814 1103.5 c 128
 846 1117 846 1117 880 1117 c 257
 913 1117 913 1117 941 1103.5 c 128
 969 1090 969 1090 987.5 1067.5 c 128
 1006 1045 1006 1045 1013 1014.5 c 128
 1020 984 1020 984 1014 951 c 257
EndSplineSet
EndChar
StartChar: Aacute
Encoding: 3 193 3
GlifName: A_acute
Width: 1300
VWidth: 0
Flags: W
LayerCount: 2
Fore
SplineSet
35 0 m 257
NamedP: "ab01"
 616 1284 l 257
 680 1500 l 257
 1072 1520 l 257
NamedP: "at01"
 1234 0 l 257
NamedP: "sv01"
 900 0 l 257
 872 427 l 257
NamedP: "sv02"
 530 427 l 257
NamedP: "av01"
 353 0 l 257
 35 0 l 257
NamedP: "ab01"
862 1331 m 257
NamedP: "mv01"
 763 990 l 257
NamedP: "mh01"
 627 646 l 257
 851 646 l 257
 840 990 l 257
NamedP: "mh02"
 862 1331 l 257
NamedP: "mv01"
960 1900 m 257
NamedP: "at02"
 1301 1920 l 257
 959 1600 l 257
 744 1600 l 257
NamedP: "av02"
 960 1900 l 257
NamedP: "at02"
EndSplineSet
PickledDataWithLists: "(dp0
Vcom.adobe.type.autohint
p1
(c_codecs
encode
p2
(Vdata
p3
Vlatin1
p4
tp5
Rp6
g2
(V<data>\\u000a        <hintSetList>\\u000a          <hintset pointTag=\"at02\">\\u000a            <hstem pos=\"1621\" width=\"-21\"/>\\u000a            <hstem pos=\"1920\" width=\"-20\"/>\\u000a          </hintset>\\u000a        </hintSetList>\\u000a      </data>
p7
g4
tp8
Rp9
Ntp10
sVcom.fontlab.ttprogram
p11
(g2
(Vdata
p12
g4
tp13
Rp14
g2
(V<data>\\u000a        <ttProgram>\\u000a          <ttc code=\"mdeltah\" delta=\"-1\" point=\"mh01\" ppm1=\"20\" ppm2=\"20\"/>\\u000a          <ttc code=\"mdeltah\" delta=\"1\" point=\"mh02\" ppm1=\"13\" ppm2=\"13\"/>\\u000a          <ttc align=\"round\" code=\"alignv\" point=\"av01\"/>\\u000a          <ttc code=\"alignt\" point=\"at01\" zone=\"t: 1\"/>\\u000a          <ttc code=\"alignb\" point=\"ab01\" zone=\"b: 0\"/>\\u000a          <ttc code=\"singlev\" point1=\"ab01\" point2=\"sv01\"/>\\u000a          <ttc code=\"singlev\" point1=\"av01\" point2=\"sv02\"/>\\u000a          <ttc code=\"mdeltav\" delta=\"-3\" point=\"mv01\" ppm1=\"20\" ppm2=\"20\"/>\\u000a          <ttc code=\"mdeltav\" delta=\"-8\" point=\"mv01\" ppm1=\"13\" ppm2=\"13\"/>\\u000a          <ttc code=\"mdeltav\" delta=\"8\" point=\"mh01\" ppm1=\"20\" ppm2=\"20\"/>\\u000a          <ttc code=\"mdeltav\" delta=\"3\" point=\"mh01\" ppm1=\"13\" ppm2=\"13\"/>\\u000a          <ttc code=\"mdeltav\" delta=\"8\" point=\"mh02\" ppm1=\"20\" ppm2=\"20\"/>\\u000a          <ttc code=\"mdeltav\" delta=\"7\" point=\"mh02\" ppm1=\"13\" ppm2=\"13\"/>\\u000a          <ttc align=\"round\" code=\"alignv\" point=\"av02\"/>\\u000a          <ttc code=\"alignt\" point=\"at02\" zone=\"t: 1\"/>\\u000a        </ttProgram>\\u000a      </data>
p15
g4
tp16
Rp17
Ntp18
s."
EndChar
StartChar: Aring
Encoding: 8 197 8
GlifName: A_ring
Width: 1300
VWidth: 0
Flags: W
LayerCount: 2
Fore
SplineSet
35 0 m 257
NamedP: "ab01"
 616 1284 l 257
 680 1500 l 257
 1072 1520 l 257
NamedP: "at01"
 1234 0 l 257
NamedP: "sv01"
 900 0 l 257
 872 427 l 257
NamedP: "sv02"
 530 427 l 257
NamedP: "av01"
 353 0 l 257
 35 0 l 257
NamedP: "ab01"
862 1331 m 257
NamedP: "mv01"
 763 990 l 257
NamedP: "mh01"
 627 646 l 257
 851 646 l 257
 840 990 l 257
NamedP: "mh02"
 862 1331 l 257
NamedP: "mv01"
974 1927 m 257
NamedP: "av02"
 1033 1927 1033 1927 1081 1904.5 c 128
 1129 1882 1129 1882 1160.5 1843.5 c 128
 1192 1805 1192 1805 1205 1753 c 128
 1218 1701 1218 1701 1208 1642 c 257
NamedP: "sv03"
 1197 1583 1197 1583 1166 1530.5 c 128
 1135 1478 1135 1478 1090 1438.5 c 128
 1045 1399 1045 1399 989.5 1376 c 128
 934 1353 934 1353 875 1353 c 257
NamedP: "at02"
 816 1353 816 1353 767.5 1376 c 128
 719 1399 719 1399 687 1438.5 c 128
 655 1478 655 1478 641 1530.5 c 128
 627 1583 627 1583 638 1642 c 257
NamedP: "av03"
 648 1701 648 1701 680 1753 c 128
 712 1805 712 1805 757.5 1843.5 c 128
 803 1882 803 1882 859 1904.5 c 128
 915 1927 915 1927 974 1927 c 257
NamedP: "av02"
907 1542 m 257
 927 1542 927 1542 946 1550 c 128
 965 1558 965 1558 980.5 1571.5 c 128
 996 1585 996 1585 1006.5 1603 c 128
 1017 1621 1017 1621 1021 1641 c 257
NamedP: "sv04"
 1024 1661 1024 1661 1019.5 1678.5 c 128
 1015 1696 1015 1696 1004.5 1709.5 c 128
 994 1723 994 1723 977.5 1730.5 c 128
 961 1738 961 1738 941 1738 c 257
 921 1738 921 1738 902 1730.5 c 128
 883 1723 883 1723 867.5 1709.5 c 128
 852 1696 852 1696 841 1678.5 c 128
 830 1661 830 1661 827 1641 c 257
NamedP: "av04"
 823 1621 823 1621 827.5 1603 c 128
 832 1585 832 1585 843 1571.5 c 128
 854 1558 854 1558 870.5 1550 c 128
 887 1542 887 1542 907 1542 c 257
EndSplineSet
PickledDataWithLists: "(dp0
Vcom.adobe.type.autohint
p1
(c_codecs
encode
p2
(Vdata
p3
Vlatin1
p4
tp5
Rp6
g2
(V<data>\\u000a        <hintSetList>\\u000a          <hintset pointTag=\"ab01\">\\u000a            <hstem pos=\"19\" width=\"-21\"/>\\u000a            <hstem pos=\"407\" width=\"280\"/>\\u000a            <hstem pos=\"1518\" width=\"-20\"/>\\u000a          </hintset>\\u000a        </hintSetList>\\u000a      </data>
p7
g4
tp8
Rp9
Ntp10
sVcom.fontlab.ttprogram
p11
(g2
(Vdata
p12
g4
tp13
Rp14
g2
(V<data>\\u000a        <ttProgram>\\u000a          <ttc code=\"mdeltah\" delta=\"-1\" point=\"mh01\" ppm1=\"20\" ppm2=\"20\"/>\\u000a          <ttc code=\"mdeltah\" delta=\"1\" point=\"mh02\" ppm1=\"13\" ppm2=\"13\"/>\\u000a          <ttc align=\"round\" code=\"alignv\" point=\"av01\"/>\\u000a          <ttc code=\"alignt\" point=\"at01\" zone=\"t: 1\"/>\\u000a          <ttc code=\"alignb\" point=\"ab01\" zone=\"b: 0\"/>\\u000a          <ttc code=\"singlev\" point1=\"ab01\" point2=\"sv01\"/>\\u000a          <ttc code=\"singlev\" point1=\"av01\" point2=\"sv02\"/>\\u000a          <ttc code=\"mdeltav\" delta=\"-3\" point=\"mv01\" ppm1=\"20\" ppm2=\"20\"/>\\u000a          <ttc code=\"mdeltav\" delta=\"-8\" point=\"mv01\" ppm1=\"13\" ppm2=\"13\"/>\\u000a          <ttc code=\"mdeltav\" delta=\"8\" point=\"mh01\" ppm1=\"20\" ppm2=\"20\"/>\\u000a          <ttc code=\"mdeltav\" delta=\"3\" point=\"mh01\" ppm1=\"13\" ppm2=\"13\"/>\\u000a          <ttc code=\"mdeltav\" delta=\"8\" point=\"mh02\" ppm1=\"20\" ppm2=\"20\"/>\\u000a          <ttc code=\"mdeltav\" delta=\"7\" point=\"mh02\" ppm1=\"13\" ppm2=\"13\"/>\\u000a          <ttc align=\"round\" code=\"alignv\" point=\"av02\"/>\\u000a          <ttc align=\"round\" code=\"alignv\" point=\"av03\"/>\\u000a          <ttc align=\"round\" code=\"alignv\" point=\"av04\"/>\\u000a          <ttc code=\"alignt\" point=\"at02\" zone=\"t: x\"/>\\u000a          <ttc code=\"singlev\" point1=\"av03\" point2=\"sv03\"/>\\u000a          <ttc code=\"singlev\" point1=\"av04\" point2=\"sv04\"/>\\u000a        </ttProgram>\\u000a      </data>
p15
g4
tp16
Rp17
Ntp18
s."
EndChar
StartChar: AE
Encoding: 2 198 2
GlifName: A_E_
Width: 1300
VWidth: 0
Flags: W
LayerCount: 2
Fore
SplineSet
1177 228 m 257,0,-1
 1110 0 l 257,1,-1
NamedP: "sv01"
 480 0 l 257,2,-1
 539 231 l 257,3,-1
 574 427 l 257,4,-1
 403 427 l 257,5,-1
 181 0 l 257,6,-1
 -82 0 l 257,7,-1
NamedP: "ab01"
 569 1284 l 257,8,-1
 653 1500 l 257,9,-1
NamedP: "at01"
 1365 1500 l 257,10,-1
NamedP: "sv02"
 1325 1272 l 257,11,-1
 993 1272 l 257,12,13
 991 1237 991 1237 989 1202 c 128,-1,14
 987 1167 987 1167 984 1133 c 257,15,-1
 946 916 l 257,16,-1
NamedP: "av02"
 1195 916 l 257,17,-1
NamedP: "sv03"
 1157 703 l 257,18,-1
 908 703 l 257,19,-1
 848 360 l 257,20,-1
 817 228 l 257,21,-1
 1177 228 l 257,0,-1
710 1250 m 257,22,-1
 590 851 l 257,23,-1
 481 599 l 257,24,-1
NamedP: "av01"
 604 599 l 257,25,-1
NamedP: "sv04"
 710 1250 l 257,22,-1
EndSplineSet
PickledDataWithLists: "(dp0
Vcom.fontlab.ttprogram
p1
(c_codecs
encode
p2
(Vdata
p3
Vlatin1
p4
tp5
Rp6
g2
(V<data>\\u000a        <ttProgram>\\u000a          <ttc align=\"round\" code=\"alignv\" point=\"av01\"/>\\u000a          <ttc align=\"round\" code=\"alignv\" point=\"av02\"/>\\u000a          <ttc code=\"alignt\" point=\"at01\" zone=\"t: 1\"/>\\u000a          <ttc code=\"alignb\" point=\"ab01\" zone=\"b: 0\"/>\\u000a          <ttc code=\"singlev\" point1=\"ab01\" point2=\"sv01\"/>\\u000a          <ttc code=\"singlev\" point1=\"at01\" point2=\"sv02\"/>\\u000a          <ttc code=\"singlev\" point1=\"av02\" point2=\"sv03\"/>\\u000a          <ttc code=\"singlev\" point1=\"av01\" point2=\"sv04\"/>\\u000a        </ttProgram>\\u000a      </data>
p7
g4
tp8
Rp9
Ntp10
s."
EndChar
StartChar: Ccedilla
Encoding: 13 199 13
GlifName: C_cedilla
Width: 1300
VWidth: 0
Flags: W
LayerCount: 2
Fore
SplineSet
1048 133 m 257
NamedP: "hr01"
 933 52 933 52 814 17.5 c 128
 695 -17 695 -17 565 -17 c 257
NamedP: "ab01"
 462 -17 462 -17 377.5 11.5 c 128
 293 40 293 40 228.5 91.5 c 128
 164 143 164 143 119 215 c 128
 74 287 74 287 50.5 374 c 128
 27 461 27 461 24 561.5 c 128
 21 662 21 662 40 769 c 257
 58 870 58 870 86 964.5 c 128
 114 1059 114 1059 157 1142 c 128
 200 1225 200 1225 260.5 1294 c 128
 321 1363 321 1363 404 1412.5 c 128
 487 1462 487 1462 595 1489.5 c 128
 703 1517 703 1517 840 1517 c 257
NamedP: "at01"
 904 1517 904 1517 964.5 1505.5 c 128
 1025 1494 1025 1494 1079 1472 c 128
 1133 1450 1133 1450 1179 1418 c 128
 1225 1386 1225 1386 1261 1344 c 257
 1081 1160 l 257
 1052 1182 1052 1182 1019 1202 c 128
 986 1222 986 1222 951.5 1237 c 128
 917 1252 917 1252 881.5 1261 c 128
 846 1270 846 1270 812 1270 c 257
 717 1270 717 1270 646 1231 c 128
 575 1192 575 1192 524.5 1124.5 c 128
 474 1057 474 1057 441 966 c 128
 408 875 408 875 390 772 c 257
 379 711 379 711 376.5 647.5 c 128
 374 584 374 584 381 524 c 128
 388 464 388 464 406 411 c 128
 424 358 424 358 454.5 318.5 c 128
 485 279 485 279 529.5 256 c 128
 574 233 574 233 633 233 c 257
 667 233 667 233 701 238.5 c 128
 735 244 735 244 774 256.5 c 128
 813 269 813 269 859.5 289.5 c 128
 906 310 906 310 965 340 c 257
 1048 133 l 257
NamedP: "hr01"
713 0 m 257
NamedP: "sv01"
 737 -20 737 -20 755 -46 c 257
 770 -69 770 -69 779.5 -100.5 c 128
 789 -132 789 -132 782 -171 c 257
 773 -221 773 -221 742 -264 c 128
 711 -307 711 -307 666 -338.5 c 128
 621 -370 621 -370 565.5 -388.5 c 128
 510 -407 510 -407 453 -407 c 257
NamedP: "av01"
 393 -407 393 -407 338.5 -389 c 128
 284 -371 284 -371 240 -349 c 257
 189 -323 189 -323 144 -290 c 257
 287 -131 l 257
 316 -151 316 -151 345 -166 c 257
 369 -179 369 -179 396.5 -189.5 c 128
 424 -200 424 -200 446 -200 c 257
 469 -200 469 -200 491.5 -187.5 c 128
 514 -175 514 -175 519 -147 c 257
 523 -126 523 -126 515 -102.5 c 128
 507 -79 507 -79 495 -58 c 128
 483 -37 483 -37 470 -21.5 c 128
NamedP: "ab02"
 457 -6 457 -6 451 0 c 257
 713 0 l 257
NamedP: "sv01"
EndSplineSet
PickledDataWithLists: "(dp0
Vcom.adobe.type.autohint
p1
(c_codecs
encode
p2
(Vdata
p3
Vlatin1
p4
tp5
Rp6
g2
(V<data>\\u000a        <hintSetList>\\u000a          <hintset pointTag=\"hr01\">\\u000a            <hstem pos=\"-15\" width=\"298\"/>\\u000a            <hstem pos=\"1218\" width=\"297\"/>\\u000a            <vstem pos=\"74\" width=\"261\"/>\\u000a          </hintset>\\u000a        </hintSetList>\\u000a      </data>
p7
g4
tp8
Rp9
Ntp10
sVcom.fontlab.ttprogram
p11
(g2
(Vdata
p12
g4
tp13
Rp14
g2
(V<data>\\u000a        <ttProgram>\\u000a          <ttc code=\"alignt\" point=\"at01\" zone=\"t: 1\"/>\\u000a          <ttc code=\"alignb\" point=\"ab01\" zone=\"b: 0\"/>\\u000a          <ttc align=\"round\" code=\"alignv\" point=\"av01\"/>\\u000a          <ttc code=\"alignb\" point=\"ab02\" zone=\"b: 0\"/>\\u000a          <ttc code=\"singlev\" point1=\"ab02\" point2=\"sv01\" round=\"true\"/>\\u000a        </ttProgram>\\u000a      </data>
p15
g4
tp16
Rp17
Ntp18
s."
EndChar
